<svg width="20" height="20" viewBox="0 0 20 20" fill="none" xmlns="http://www.w3.org/2000/svg">
<path fill-rule="evenodd" clip-rule="evenodd" d="M9.61769 0H10.347C11.5698 0 12.7711 0 13.9867 0.0572041C14.8376 0.100107 15.6456 0.221666 16.4393 0.529138C17.1543 0.808009 17.7264 1.17984 18.2698 1.72327C18.8133 2.26671 19.1851 2.84591 19.4639 3.55381C19.7714 4.35467 19.9001 5.15552 19.9359 6.00644C19.9931 7.26493 19.9931 8.50197 19.9931 9.76046V10.2395C19.9931 11.498 19.9931 12.7351 19.9359 13.9936C19.9001 14.8445 19.7714 15.6453 19.4639 16.4462C19.1851 17.1541 18.8133 17.7333 18.2698 18.2767C17.7264 18.8202 17.1543 19.192 16.4393 19.4709C15.6456 19.7783 14.8376 19.8999 13.9867 19.9428C12.6567 20 11.3338 20 9.99666 20C8.65951 20 7.33667 20 6.00667 19.9428C5.15576 19.8999 4.34775 19.7783 3.55404 19.4709C2.83899 19.192 2.2598 18.8202 1.71636 18.2767C1.18007 17.7333 0.801097 17.1541 0.529377 16.4462C0.214754 15.6453 0.0931956 14.8445 0.057443 13.9936C-0.00691169 12.6564 0.000236148 11.3336 0.000236148 9.99642C0.000236148 8.66643 -0.00691169 7.34358 0.057443 6.00644C0.0931956 5.15552 0.214754 4.35467 0.529377 3.55381C0.801097 2.84591 1.18007 2.26671 1.71636 1.72327C2.2598 1.17984 2.83899 0.808009 3.55404 0.529138C4.34775 0.221666 5.15576 0.100107 6.00667 0.0572041C7.21511 0 8.40925 0 9.61769 0V0ZM9.99666 2.45263C8.69526 2.45263 7.41533 2.45263 6.11393 2.50983C5.54189 2.53128 4.977 2.60994 4.44071 2.8173C4.04028 2.97462 3.75426 3.15338 3.45394 3.4537C3.15361 3.76117 2.96771 4.04719 2.81039 4.44047C2.60303 4.98391 2.53152 5.54165 2.50292 6.12084C2.44572 7.41509 2.44571 8.70218 2.44571 9.99642C2.44571 11.2978 2.44572 12.5849 2.50292 13.8792C2.53152 14.4583 2.60303 15.0161 2.81039 15.5595C2.96771 15.9528 3.15361 16.2388 3.45394 16.5391C3.75426 16.8466 4.04028 17.0254 4.44071 17.1827C4.977 17.3901 5.54189 17.4616 6.11393 17.4902C7.41533 17.5474 8.69526 17.5474 9.99666 17.5474C11.2909 17.5474 12.578 17.5474 13.8794 17.4902C14.4514 17.4616 15.0163 17.3901 15.5526 17.1827C15.953 17.0254 16.2391 16.8466 16.5394 16.5391C16.8397 16.2388 17.0256 15.9528 17.1758 15.5595C17.3903 15.0161 17.4618 14.4583 17.4833 13.8792C17.5476 12.5849 17.5405 11.2978 17.5405 9.99642C17.5405 8.70218 17.5476 7.41509 17.4833 6.12084C17.4618 5.54165 17.3903 4.98391 17.1758 4.44047C17.0256 4.04719 16.8397 3.76117 16.5394 3.4537C16.2391 3.15338 15.953 2.97462 15.5526 2.8173C15.0163 2.60994 14.4514 2.53128 13.8794 2.50983C12.578 2.45263 11.2909 2.45263 9.99666 2.45263ZM16.189 5.08402C16.189 5.78477 15.617 6.35681 14.9162 6.35681C14.2083 6.35681 13.6363 5.78477 13.6363 5.08402C13.6363 4.37612 14.2083 3.80408 14.9162 3.80408C15.617 3.80408 16.189 4.37612 16.189 5.08402ZM14.8018 9.99642C14.8018 12.6564 12.6495 14.8087 9.99666 14.8087C7.34382 14.8087 5.19151 12.6564 5.19151 9.99642C5.19151 7.34358 7.34382 5.19128 9.99666 5.19128C12.6495 5.19128 14.8018 7.34358 14.8018 9.99642ZM9.99666 12.6993C11.484 12.6993 12.6924 11.4909 12.6924 9.99642C12.6924 8.50912 11.484 7.30068 9.99666 7.30068C8.50935 7.30068 7.30091 8.50912 7.30091 9.99642C7.30091 11.4909 8.50935 12.6993 9.99666 12.6993Z" fill="#666666"/>
</svg>
