<svg width="20" height="16" viewBox="0 0 20 16" fill="none" xmlns="http://www.w3.org/2000/svg">
<path d="M19.5781 3.17697C19.3493 2.31891 18.67 1.63961 17.8048 1.40365C16.246 0.981766 9.99642 0.981766 9.99642 0.981766C9.99642 0.981766 3.74687 0.981766 2.18091 1.40365C1.3157 1.62531 0.650697 2.30461 0.40758 3.17697C0 4.74294 0 7.99642 0 7.99642C0 7.99642 0 11.2571 0.421881 12.823C0.650697 13.6811 1.33 14.3604 2.19521 14.5964C3.74687 15.0182 9.99642 15.0182 9.99642 15.0182C9.99642 15.0182 16.246 15.0182 17.8191 14.5964C18.6772 14.3675 19.3493 13.6954 19.5924 12.823C20 11.2571 20 7.99642 20 7.99642C20 7.99642 20 4.74294 19.5781 3.17697ZM13.1999 8.74008L8.30175 11.3715C8.03003 11.5145 7.72971 11.5073 7.46514 11.35C7.20772 11.1927 7.05756 10.9353 7.05756 10.6278V5.37218C7.05756 5.06471 7.20772 4.80729 7.46514 4.64998C7.72971 4.49267 8.03003 4.48552 8.30175 4.62853L13.1999 7.25992C13.4859 7.41008 13.6432 7.6818 13.6432 7.99642C13.6432 8.3182 13.4859 8.58992 13.1999 8.74008Z" fill="#666666"/>
</svg>
