<svg width="22" height="19" viewBox="0 0 22 19" fill="none" xmlns="http://www.w3.org/2000/svg">
<path fill-rule="evenodd" clip-rule="evenodd" d="M17.3916 3.61208L9.14704 11.3632C9.05409 11.4419 9.01118 11.5563 8.98258 11.6707L8.32473 14.6668C8.31043 14.7669 8.16742 14.7812 8.13881 14.6811L6.71586 10.0475C6.65151 9.84018 6.73731 9.60422 6.92322 9.48981L17.1127 3.2331C17.3558 3.08294 17.599 3.41187 17.3916 3.61208ZM19.8156 0.0725749L0.452008 7.68073C-0.177238 7.93099 -0.141483 8.83911 0.509215 9.03217L5.42877 10.498L7.26645 16.3758C7.45952 16.9979 8.22463 17.1838 8.67511 16.719L11.2207 14.0947L16.2117 17.7987C16.8195 18.2492 17.6919 17.9131 17.8492 17.1623C18.9504 11.8495 20.0516 6.52949 21.1528 1.20951C21.3172 0.430101 20.5521 -0.220596 19.8156 0.0725749Z" fill="#666666"/>
</svg>
