<svg width="22" height="22" viewBox="0 0 22 22" fill="none" xmlns="http://www.w3.org/2000/svg">
<path fill-rule="evenodd" clip-rule="evenodd" d="M11.0004 1.55619C7.44951 1.55619 4.35755 3.5152 2.74425 6.41138C2.68918 6.5103 2.69019 6.62248 2.7473 6.72038C2.80543 6.81929 2.90231 6.87436 3.01653 6.87436H5.12136C5.26413 6.87436 5.38546 6.78156 5.42218 6.64389C6.02283 4.39221 8.38975 3.48154 10.5517 3.48154C11.548 3.48154 12.5382 3.63451 13.4683 3.99959C13.8242 4.13828 14.3331 4.40241 14.7043 4.44626C15.257 4.51254 14.8562 3.66306 15.5048 3.66306H15.7832C16.0218 3.66306 16.2176 3.85784 16.2176 4.09749V8.18988C16.2176 8.42851 16.0218 8.62431 15.7832 8.62431H15.5038C15.0051 8.62431 15.0153 7.86049 14.8837 7.49745C14.3137 5.91679 12.7718 5.00102 11.1095 5.00102C10.2937 5.00102 9.06487 5.30797 9.06487 6.32674C9.06487 7.38527 11.2564 8.06547 12.113 8.41322C14.0669 9.20661 16.0534 10.1142 16.6225 12.2823C16.6592 12.421 16.7795 12.5148 16.9243 12.5148H20.0541C20.2121 12.5148 20.3426 12.3996 20.363 12.2435C20.4171 11.8366 20.4446 11.4216 20.4446 11.0004C20.4446 5.78421 16.2166 1.55619 11.0004 1.55619V1.55619ZM16.8835 14.9449H19.0822C19.1944 14.9449 19.2913 14.999 19.3494 15.0959C19.4075 15.1917 19.4106 15.3029 19.3575 15.4018C17.7758 18.401 14.6267 20.4446 11.0004 20.4446C5.7842 20.4446 1.55516 16.2166 1.55516 11.0004C1.55516 10.5079 1.59392 10.0245 1.66633 9.55231C1.68978 9.39935 1.8193 9.28819 1.97431 9.28819C3.06853 9.28819 4.16275 9.28819 5.25596 9.28819C5.38751 9.28819 5.4997 9.36569 5.54763 9.48807C6.21253 11.2186 8.26431 12.218 9.83988 12.8819C10.5578 13.1827 11.9733 13.7528 12.476 14.2525C12.7779 14.5523 12.9451 14.9031 12.9451 15.3325C12.9451 16.4614 11.6061 16.7387 10.7057 16.7387C8.52742 16.7387 6.91822 15.3936 6.3655 13.3184C6.28493 13.0124 6.27778 12.5648 5.8454 12.5648H5.54252C5.30287 12.5648 5.10707 12.7595 5.10707 12.9992V17.7024C5.10707 17.9421 5.30287 18.1379 5.54252 18.1379H5.81686C6.1595 18.1379 6.19315 17.8799 6.32062 17.6545C6.5725 17.2058 6.75606 17.268 7.17621 17.4047C8.69976 17.9054 9.6645 18.3388 11.3369 18.3388C13.6671 18.3388 15.9209 17.4159 16.5847 15.1683C16.6245 15.0337 16.7438 14.9449 16.8835 14.9449V14.9449ZM11.0004 0C4.92452 0 0 4.92454 0 11.0004C0 17.0753 4.92452 22.0008 11.0004 22.0008C17.0752 22.0008 22.0008 17.0753 22.0008 11.0004C22.0008 4.92454 17.0752 0 11.0004 0Z" fill="#7CB3A4"/>
</svg>
