<svg width="23" height="22" viewBox="0 0 23 22" fill="none" xmlns="http://www.w3.org/2000/svg">
<path fill-rule="evenodd" clip-rule="evenodd" d="M11.1075 2.20273C12.6127 2.20273 13.8334 3.42239 13.8334 4.9276C13.8334 6.4328 12.6127 7.65348 11.1075 7.65348C9.60333 7.65348 8.38266 6.4328 8.38266 4.9276C8.38266 3.42239 9.60333 2.20273 11.1075 2.20273V2.20273ZM11.1075 0C17.2425 0 22.216 4.97349 22.216 11.1085C22.216 16.4828 18.3979 20.9657 13.3265 21.9937C13.2307 22.0131 13.141 21.9906 13.0645 21.9284C12.989 21.8662 12.9492 21.7826 12.9492 21.6847V11.1564C12.9492 10.1438 12.1212 9.31471 11.1075 9.31471C10.0949 9.31471 9.26681 10.1438 9.26681 11.1564V21.6847C9.26681 21.7826 9.22598 21.8662 9.15154 21.9284C9.07506 21.9906 8.9843 22.0131 8.88844 21.9937C3.81807 20.9657 0 16.4828 0 11.1085C0 4.97349 4.97352 0 11.1075 0V0Z" fill="#7CB3A4"/>
</svg>
