<svg width="24" height="24" viewBox="0 0 24 24" fill="none" xmlns="http://www.w3.org/2000/svg">
<path fill-rule="evenodd" clip-rule="evenodd" d="M24.0006 12.0008C24.0006 5.37324 18.6274 0 11.9998 0C5.37222 0 0 5.37324 0 12.0008C0 18.6274 5.37222 24.0006 11.9998 24.0006C18.6274 24.0006 24.0006 18.6274 24.0006 12.0008V12.0008ZM13.9976 17.5291C13.9568 17.4771 13.8997 17.4526 13.8324 17.4526H13.0757V18.3887H13.8324C13.8997 18.3887 13.9537 18.3632 13.9976 18.3143C14.0373 18.2633 14.0598 18.2011 14.0598 18.1226V17.7208C14.0598 17.6433 14.0414 17.5801 13.9976 17.5291V17.5291ZM8.43872 18.2011V17.7208C8.43872 17.6433 8.41729 17.5801 8.37344 17.5291C8.33061 17.4771 8.27352 17.4526 8.20825 17.4526H7.41894V18.4693H8.20825C8.27556 18.4693 8.33265 18.4428 8.37344 18.3928C8.41729 18.3429 8.43872 18.2796 8.43872 18.2011V18.2011ZM20.4864 17.2252L20.6108 17.0324H20.6598V17.3496H20.6027V17.1548C20.6027 17.1466 20.6027 17.1354 20.6047 17.1191C20.6007 17.1334 20.5976 17.1436 20.5894 17.1548L20.4895 17.3088H20.4783L20.3753 17.1517C20.3702 17.1436 20.361 17.1303 20.3559 17.1191C20.3559 17.1334 20.361 17.1436 20.361 17.1548V17.3496H20.307V17.0324H20.361L20.4864 17.2252ZM19.9245 17.0324H20.2335V17.0865H20.1122V17.3496H20.05V17.0865H19.9276L19.9245 17.0324ZM11.2156 19.3993V17.7208C11.2156 17.6433 11.1942 17.5801 11.1483 17.5291C11.1034 17.4771 11.0504 17.4526 10.9831 17.4526H10.4263C10.3528 17.4526 10.2988 17.4771 10.256 17.5291C10.2152 17.5801 10.1928 17.6433 10.1928 17.7208V19.3993C10.1928 19.4758 10.2121 19.538 10.256 19.59C10.2988 19.6431 10.3559 19.6706 10.4263 19.6706H10.9831C11.0504 19.6706 11.1034 19.6431 11.1483 19.59C11.1942 19.538 11.2156 19.4758 11.2156 19.3993ZM11.5868 17.1273C11.7255 17.2598 11.7928 17.4261 11.7928 17.6157V19.4972C11.7928 19.6951 11.7285 19.8603 11.5868 19.9969C11.4512 20.1316 11.289 20.1999 11.0932 20.1999H10.3121C10.1173 20.1999 9.95208 20.1316 9.81645 19.9969C9.68082 19.8634 9.61249 19.6981 9.61249 19.4972V17.6157C9.61249 17.4281 9.68285 17.2629 9.81645 17.1303C9.95208 16.9947 10.1173 16.9274 10.3121 16.9274H11.0932C11.289 16.9274 11.4481 16.9916 11.5868 17.1273ZM17.885 17.1273C18.0186 16.9916 18.1838 16.9233 18.3765 16.9233H19.1852C19.3769 16.9233 19.5401 16.9896 19.6727 17.1191C19.8032 17.2496 19.8705 17.4118 19.8705 17.6066V17.9003H19.3667L19.2902 17.6341C19.2494 17.5066 19.1648 17.4444 19.0353 17.4444H18.4856C18.4142 17.4444 18.3541 17.4689 18.3143 17.5209C18.2735 17.5719 18.2521 17.6372 18.2521 17.7157V17.992C18.2521 18.1634 18.3306 18.2501 18.4856 18.2501H19.1811C19.3739 18.2501 19.537 18.3204 19.6727 18.4591C19.8134 18.5968 19.8817 18.7599 19.8817 18.9496V19.5034C19.8817 19.6981 19.8134 19.8634 19.6778 19.9969C19.5401 20.1316 19.3769 20.1999 19.1811 20.1999H18.3633C18.1644 20.1999 18.0053 20.1346 17.8727 20.0041C17.7422 19.8735 17.6769 19.7114 17.6769 19.5136V19.1883H18.1817L18.2572 19.4891C18.2919 19.6104 18.3785 19.6767 18.5172 19.6767H19.074C19.1444 19.6767 19.2005 19.6512 19.2433 19.6002C19.2851 19.5482 19.3066 19.484 19.3066 19.4075V19.0496C19.3066 18.8742 19.2311 18.7834 19.074 18.7834H18.3765C18.1838 18.7834 18.0186 18.7161 17.885 18.5805C17.7524 18.4448 17.6831 18.2796 17.6831 18.0879V17.6157C17.6831 17.4261 17.7493 17.2629 17.885 17.1273V17.1273ZM15.0092 16.9233H17.2588V17.4526H16.4185V20.1968H15.8383V17.4526H15.0092V16.9233ZM13.9404 16.9274C14.1362 16.9274 14.2984 16.9947 14.434 17.1303C14.5697 17.2629 14.637 17.4281 14.637 17.6157V18.1868C14.637 18.3367 14.5962 18.4724 14.5156 18.5917C14.434 18.7059 14.3259 18.7895 14.1985 18.8456L14.7726 20.1999H14.1577L13.6233 18.919H13.0726V20.1999H12.4924V16.9274H13.9404V16.9274ZM8.81604 17.1303C8.95167 17.2629 9.01898 17.4281 9.01898 17.6157V18.3041C9.01898 18.4968 8.95167 18.66 8.81604 18.7946C8.67735 18.9302 8.51112 18.9976 8.3194 18.9976H7.4169V20.1999H6.83868V16.9274H8.3194C8.51112 16.9274 8.67735 16.9916 8.81604 17.1303V17.1303ZM5.95963 17.1191C6.09118 17.2496 6.15543 17.4118 6.15543 17.6066V17.9003H5.65369L5.57822 17.6341C5.54049 17.5066 5.45381 17.4444 5.32327 17.4444H4.77565C4.70222 17.4444 4.64613 17.4689 4.60432 17.5209C4.55843 17.5719 4.54009 17.6372 4.54009 17.7157V17.992C4.54009 18.1634 4.61555 18.2501 4.7726 18.2501H5.47012C5.65878 18.2501 5.82297 18.3204 5.96268 18.4591C6.09933 18.5968 6.16663 18.7599 6.16663 18.9496V19.5034C6.16663 19.6981 6.09933 19.8634 5.96574 19.9969C5.83011 20.1316 5.6649 20.1999 5.47522 20.1999H4.65328C4.4585 20.1999 4.29534 20.1346 4.16582 20.0041C4.03529 19.8735 3.97002 19.7114 3.97002 19.5136V19.1883H4.47481L4.54722 19.4891C4.58291 19.6104 4.66654 19.6767 4.80829 19.6767H5.36407C5.43444 19.6767 5.49052 19.6512 5.53437 19.6002C5.57516 19.5482 5.59759 19.484 5.59759 19.4075V19.0496C5.59759 18.8742 5.51908 18.7834 5.36407 18.7834H4.6645C4.47482 18.7834 4.30962 18.7161 4.17093 18.5805C4.03836 18.4448 3.97002 18.2796 3.97002 18.0879V17.6157C3.97002 17.4261 4.03836 17.2629 4.17093 17.1273C4.30656 16.9916 4.47482 16.9233 4.6645 16.9233H5.47522C5.6649 16.9233 5.82807 16.9896 5.95963 17.1191V17.1191ZM5.67205 5.24883H14.486L13.1348 7.38833L4.3249 7.39343L5.67205 5.24883ZM10.8107 13.8201L16.288 5.17132L23.1073 15.9606H20.5334L19.1791 13.8201H15.1489L16.5021 11.6735H17.8217L16.288 9.2372L12.0539 15.9606L0.893338 15.9637L3.60902 11.6765H1.61738L2.97268 9.53294H11.2707L9.91333 11.6765H6.19315L4.8195 13.8201H10.8107V13.8201Z" fill="#7CB3A4"/>
</svg>
