<svg width="24" height="20" viewBox="0 0 24 20" fill="none" xmlns="http://www.w3.org/2000/svg">
<path fill-rule="evenodd" clip-rule="evenodd" d="M13.2678 12.7057C12.6732 13.0708 11.9788 13.1962 11.317 13.0412C10.648 12.8831 10.0769 12.4722 9.71794 11.8715L3.3769 1.43504C3.32285 1.3453 3.22386 1.30043 3.11984 1.31675C3.01684 1.33306 2.93742 1.40649 2.91295 1.50948L0.0472941 13.7071C-0.171959 14.6392 0.391942 15.5723 1.30771 15.7875L19.0439 19.9553C19.9637 20.1715 20.8845 19.5872 21.1037 18.6541L23.9714 6.45034C23.9959 6.34836 23.9571 6.2474 23.8714 6.18621C23.7858 6.12503 23.6777 6.12197 23.589 6.17805L13.2678 12.7057V12.7057ZM12.355 11.2046L22.7895 4.61167C22.8772 4.5566 22.921 4.4587 22.9037 4.3557C22.8863 4.2527 22.8129 4.1752 22.712 4.15072L5.07588 0.00734297C4.9739 -0.0171318 4.87393 0.0206002 4.81172 0.105242C4.75053 0.189884 4.74647 0.296962 4.80052 0.385683L11.2109 10.9364C11.4363 11.3178 11.9767 11.4452 12.355 11.2046Z" fill="#7CB3A4"/>
</svg>
