<svg width="25" height="21" viewBox="0 0 25 21" fill="none" xmlns="http://www.w3.org/2000/svg">
<path fill-rule="evenodd" clip-rule="evenodd" d="M7.11908 12.8143C5.8707 11.7451 5.31587 9.6568 6.01659 8.14501C6.00463 8.03497 5.99506 7.92493 5.98789 7.8149C5.66025 3.52352 7.92502 0 12.5 0C17.075 0 19.3398 3.52352 19.0121 7.8149C19.0049 7.92493 18.9954 8.03497 18.9834 8.14501C19.6841 9.6568 19.1293 11.7451 17.8809 12.8143C17.6418 13.3549 17.3357 13.941 16.9506 14.3835C16.9339 14.4027 16.9147 14.4242 16.8956 14.4433C16.9602 14.7997 17.173 15.1729 17.4935 15.3356C19.3493 16.278 22.3794 16.778 23.8239 18.2491C24.3715 18.8041 24.7255 19.5097 24.9383 20.2561L24.9813 20.4139C25.022 20.5575 24.9957 20.6986 24.9072 20.8158C24.8163 20.9354 24.6872 21 24.5389 21H23.0873C22.8912 21 22.7238 20.8852 22.6544 20.701L22.6257 20.6221C22.5229 20.3494 22.3794 20.0791 22.1737 19.8686C21.3151 18.9931 17.7805 18.0769 16.446 17.3975C15.2766 16.8043 14.5615 15.5126 14.5615 14.2137C14.5615 13.5415 14.8006 13.3286 15.2096 12.8598C15.4846 12.544 15.7788 11.8766 15.9294 11.4796L16.0131 11.2619L16.2212 11.1614C16.8 10.8815 17.2711 9.45347 16.7808 8.96788L16.5752 8.75977L16.6158 8.47033C16.6541 8.19524 16.6852 7.91776 16.7067 7.63789C16.9315 4.69803 15.7262 2.31313 12.5 2.31313C9.27384 2.31313 8.06851 4.69803 8.29331 7.63789C8.31484 7.91776 8.34593 8.19524 8.38419 8.47033L8.42724 8.75977L8.21918 8.96788C7.72891 9.45347 8.20004 10.8815 8.77879 11.1614L8.98685 11.2619L9.07056 11.4796C9.22122 11.8766 9.51538 12.544 9.7904 12.8598C10.1994 13.3286 10.4385 13.5415 10.4385 14.2137C10.4385 15.5126 9.72344 16.8043 8.55399 17.3975C7.21952 18.0769 3.68724 18.9931 2.8263 19.8686C2.62062 20.0791 2.47713 20.3494 2.3743 20.6221L2.3456 20.701C2.27625 20.8852 2.10884 21 1.91273 21H0.46108C0.312806 21 0.183664 20.9354 0.0927861 20.8158C0.00429984 20.6986 -0.0220069 20.5575 0.018649 20.4139L0.0640879 20.2561C0.274542 19.5097 0.628487 18.8041 1.17615 18.2491C2.62062 16.778 5.65068 16.278 7.5065 15.3356C7.82697 15.1729 8.03981 14.7997 8.10438 14.4433C8.08525 14.4242 8.06612 14.4027 8.04938 14.3835C7.66434 13.941 7.35823 13.3549 7.11908 12.8143V12.8143Z" fill="#7CB3A4"/>
</svg>
