<svg width="21" height="20" viewBox="0 0 21 20" fill="none" xmlns="http://www.w3.org/2000/svg">
<path fill-rule="evenodd" clip-rule="evenodd" d="M0 4.89088V4.88476V4.79706V4.53294C0 3.28472 0.509846 2.15072 1.32975 1.3298C2.15068 0.508872 3.28575 0 4.53295 0H15.6873C16.9355 0 18.0685 0.508872 18.8895 1.3298C19.7104 2.15072 20.2203 3.28472 20.2203 4.53294V15.4671C20.2203 16.7143 19.7104 17.8483 18.8895 18.6692C18.0685 19.4901 16.9355 20 15.6873 20H4.53295C3.28575 20 2.15068 19.4901 1.32975 18.6692C0.509846 17.8483 0 16.7143 0 15.4671V15.2029V15.1142V15.1091V11.9417C0 11.7846 0.126406 11.6582 0.283453 11.6582H9.0873C9.22192 11.6582 9.33713 11.7398 9.38302 11.8672C9.42789 11.9947 9.38915 12.1303 9.28412 12.215L5.69446 15.105C4.98367 15.6771 4.87046 16.7183 5.44256 17.4301C6.01364 18.1409 7.05483 18.2541 7.76664 17.682L15.6027 11.3696C15.6078 11.3655 15.6129 11.3614 15.619 11.3573C16.0463 11.0585 16.3257 10.5609 16.3257 10C16.3257 9.43912 16.0463 8.94146 15.619 8.64165C15.6129 8.63859 15.6078 8.63451 15.6027 8.63043L7.76664 2.31797C7.05483 1.74587 6.01364 1.85907 5.44256 2.56986C4.87046 3.28166 4.98367 4.32286 5.69446 4.89394L9.28412 7.78503C9.38915 7.86967 9.42789 8.0053 9.38302 8.13278C9.33713 8.26025 9.22192 8.34183 9.0873 8.34183H0.283453C0.126406 8.34183 0 8.21538 0 8.05833V4.89088V4.89088Z" fill="#7CB3A4"/>
</svg>
