<svg width="172" height="41" viewBox="0 0 172 41" fill="none" xmlns="http://www.w3.org/2000/svg">
<path fill-rule="evenodd" clip-rule="evenodd" d="M38.8258 29.2539C41.8698 29.2539 44.3368 31.7219 44.3368 34.7649C44.3368 37.8089 41.8698 40.2769 38.8258 40.2769C35.7828 40.2769 33.3148 37.8089 33.3148 34.7649C33.3148 31.7219 35.7828 29.2539 38.8258 29.2539ZM38.8258 1.04395C41.8698 1.04395 44.3368 3.51095 44.3368 6.55495C44.3368 9.59795 41.8698 12.0659 38.8258 12.0659C35.7828 12.0659 33.3148 9.59795 33.3148 6.55495C33.3148 3.51095 35.7828 1.04395 38.8258 1.04395ZM7.72479 13.4949C11.6828 13.4949 14.8908 16.7029 14.8908 20.6599C14.8908 24.6179 11.6828 27.8259 7.72479 27.8259C3.76779 27.8259 0.559814 24.6179 0.559814 20.6599C0.559814 16.7029 3.76779 13.4949 7.72479 13.4949ZM133.173 29.2539C130.13 29.2539 127.662 31.7219 127.662 34.7649C127.662 37.8089 130.13 40.2769 133.173 40.2769C136.217 40.2769 138.684 37.8089 138.684 34.7649C138.684 31.7219 136.217 29.2539 133.173 29.2539ZM133.173 1.04395C130.13 1.04395 127.662 3.51095 127.662 6.55495C127.662 9.59795 130.13 12.0659 133.173 12.0659C136.217 12.0659 138.684 9.59795 138.684 6.55495C138.684 3.51095 136.217 1.04395 133.173 1.04395ZM164.274 13.4949C160.316 13.4949 157.108 16.7029 157.108 20.6599C157.108 24.6179 160.316 27.8259 164.274 27.8259C168.231 27.8259 171.44 24.6179 171.44 20.6599C171.44 16.7029 168.231 13.4949 164.274 13.4949ZM46.2448 7.73095L64.1008 13.0699C63.8818 13.6899 63.6978 14.3389 63.5778 14.9979L45.6738 9.64495C45.9448 9.04395 46.1388 8.40195 46.2448 7.73095ZM64.1008 28.2499L46.2448 33.5889C46.1388 32.9179 45.9448 32.2759 45.6738 31.6759L63.5778 26.3219C63.6978 26.9809 63.8818 27.6309 64.1008 28.2499ZM64.2088 21.6599H16.8368C16.8718 21.3319 16.8908 20.9979 16.8908 20.6599C16.8908 20.3219 16.8718 19.9889 16.8368 19.6599H64.2088C64.4088 19.9909 64.6488 20.3009 64.9328 20.5849C64.9578 20.6099 64.9838 20.6349 65.0098 20.6599C64.9838 20.6849 64.9578 20.7099 64.9328 20.7359C64.6488 21.0189 64.4078 21.3299 64.2088 21.6599ZM125.754 7.73095L107.898 13.0699C108.118 13.6889 108.3 14.3399 108.421 14.9979L126.326 9.64495C126.054 9.04395 125.86 8.40195 125.754 7.73095ZM107.898 28.2499L125.754 33.5889C125.86 32.9179 126.054 32.2759 126.326 31.6759L108.421 26.3219C108.3 26.9809 108.117 27.6309 107.898 28.2499ZM107.791 21.6599H155.163C155.127 21.3319 155.108 20.9979 155.108 20.6599C155.108 20.3219 155.127 19.9889 155.163 19.6599H107.791C107.591 19.9909 107.351 20.3009 107.067 20.5849C107.042 20.6099 107.016 20.6349 106.99 20.6599C107.016 20.6849 107.042 20.7099 107.067 20.7359C107.351 21.0189 107.591 21.3299 107.791 21.6599Z" fill="#FF6600"/>
<path fill-rule="evenodd" clip-rule="evenodd" d="M85.7376 9.74097C84.8546 12.423 83.5306 14.645 81.7556 16.42C79.9836 18.192 77.7685 19.513 75.0955 20.396C74.9795 20.434 74.9056 20.538 74.9056 20.659C74.9056 20.781 74.9795 20.885 75.0955 20.922C77.7685 21.806 79.9836 23.127 81.7556 24.898C83.5306 26.674 84.8536 28.895 85.7366 31.576C85.7756 31.691 85.8786 31.766 85.9986 31.766C86.1196 31.766 86.2216 31.691 86.2606 31.576C87.1436 28.895 88.4666 26.674 90.2426 24.898C92.0136 23.127 94.2286 21.806 96.9006 20.922C97.0156 20.885 97.0906 20.781 97.0906 20.659C97.0906 20.537 97.0156 20.434 96.9006 20.396C94.2286 19.513 92.0136 18.192 90.2426 16.42C88.4676 14.645 87.1446 12.423 86.2616 9.74097C86.2236 9.62597 86.1206 9.55097 85.9996 9.55097C85.8786 9.55097 85.7756 9.62597 85.7376 9.74097ZM78.7855 27.879C77.6935 26.787 76.4296 25.705 75.0756 24.779C73.8956 23.971 72.6496 23.28 71.3946 22.808C70.5386 22.486 69.4125 22.177 68.3895 22.218C67.7195 22.244 67.0966 22.427 66.6536 22.87C66.2116 23.312 66.0286 23.933 66.0036 24.602C65.9626 25.621 66.2706 26.746 66.5936 27.602C67.0676 28.859 67.7565 30.107 68.5615 31.285C69.4885 32.637 70.5706 33.9 71.6626 34.993C72.7556 36.086 74.0186 37.169 75.3726 38.095C76.5536 38.903 77.7996 39.593 79.0556 40.066C79.9086 40.388 81.0366 40.696 82.0596 40.656C82.7286 40.63 83.3516 40.447 83.7956 40.004C84.2376 39.562 84.4195 38.941 84.4445 38.272C84.4855 37.253 84.1776 36.128 83.8556 35.271C83.3815 34.014 82.6926 32.768 81.8866 31.59C80.9596 30.236 79.8785 28.973 78.7855 27.879ZM93.2116 27.879C92.1186 28.973 91.0386 30.236 90.1126 31.589C89.3066 32.767 88.6176 34.013 88.1436 35.271C87.8216 36.128 87.5126 37.253 87.5526 38.273C87.5786 38.941 87.7606 39.562 88.2026 40.004C88.6466 40.447 89.2696 40.63 89.9396 40.656C90.9616 40.696 92.0886 40.388 92.9436 40.066C94.1986 39.593 95.4456 38.903 96.6256 38.095C97.9796 37.169 99.2416 36.086 100.335 34.993C101.428 33.9 102.51 32.637 103.437 31.284C104.243 30.106 104.932 28.859 105.405 27.602C105.727 26.746 106.036 25.62 105.996 24.601C105.97 23.933 105.788 23.312 105.346 22.87C104.903 22.427 104.279 22.244 103.61 22.218C102.587 22.177 101.46 22.486 100.605 22.808C99.3506 23.281 98.1026 23.971 96.9216 24.779C95.5676 25.705 94.3046 26.787 93.2116 27.879ZM100.335 6.32697C99.2416 5.23397 97.9796 4.15097 96.6256 3.22497C95.4456 2.41797 94.1986 1.72697 92.9436 1.25497C92.0886 0.932966 90.9616 0.623966 89.9396 0.663966C89.2696 0.690966 88.6466 0.873967 88.2026 1.31697C87.7606 1.75897 87.5786 2.37997 87.5526 3.04697C87.5126 4.06697 87.8216 5.19297 88.1436 6.04897C88.6176 7.30697 89.3066 8.55297 90.1126 9.73097C91.0386 11.085 92.1186 12.347 93.2116 13.441C94.3046 14.534 95.5676 15.616 96.9216 16.542C98.1026 17.349 99.3506 18.039 100.605 18.512C101.46 18.834 102.587 19.143 103.61 19.103C104.279 19.076 104.903 18.893 105.346 18.45C105.788 18.008 105.97 17.387 105.996 16.72C106.036 15.7 105.727 14.574 105.405 13.718C104.932 12.461 104.243 11.214 103.437 10.037C102.51 8.68297 101.428 7.41997 100.335 6.32697ZM71.6626 6.32697C70.5706 7.41997 69.4885 8.68297 68.5615 10.036C67.7565 11.214 67.0676 12.461 66.5936 13.718C66.2706 14.574 65.9626 15.699 66.0036 16.719C66.0286 17.387 66.2116 18.008 66.6536 18.45C67.0966 18.893 67.7195 19.076 68.3895 19.103C69.4125 19.143 70.5386 18.834 71.3946 18.512C72.6496 18.04 73.8956 17.349 75.0756 16.542C76.4296 15.616 77.6935 14.534 78.7855 13.441C79.8785 12.347 80.9596 11.085 81.8866 9.72997C82.6926 8.55197 83.3815 7.30597 83.8556 6.04897C84.1776 5.19297 84.4855 4.06697 84.4445 3.04797C84.4195 2.37997 84.2376 1.75897 83.7956 1.31697C83.3516 0.873967 82.7286 0.690966 82.0596 0.663966C81.0366 0.623966 79.9086 0.932966 79.0556 1.25497C77.7996 1.72697 76.5536 2.41797 75.3726 3.22497C74.0186 4.15097 72.7556 5.23397 71.6626 6.32697Z" fill="#128264"/>
</svg>
