<svg width="160" height="41" viewBox="0 0 160 41" fill="none" xmlns="http://www.w3.org/2000/svg">
<path fill-rule="evenodd" clip-rule="evenodd" d="M109.671 20.7409L103.425 23.9279L97.1786 27.1149C97.0206 27.1959 96.8396 27.1959 96.6826 27.1149C96.5246 27.0349 96.4346 26.8969 96.4346 26.7359V20.3619V13.9879C96.4346 13.8269 96.5246 13.6889 96.6826 13.6089C96.8396 13.5279 97.0206 13.5279 97.1786 13.6089L103.425 16.7959L109.671 19.9819C109.829 20.0629 109.919 20.2009 109.919 20.3619C109.919 20.5229 109.829 20.6609 109.671 20.7409ZM90.6786 20.7409L84.4326 23.9279L78.1856 27.1149C78.0286 27.1959 77.8476 27.1959 77.6896 27.1149C77.5316 27.0349 77.4416 26.8969 77.4416 26.7359V20.3619V13.9879C77.4416 13.8269 77.5316 13.6889 77.6896 13.6089C77.8476 13.5279 78.0276 13.5279 78.1856 13.6089L84.4326 16.7959L90.6786 19.9819C90.8366 20.0629 90.9266 20.2009 90.9266 20.3619C90.9266 20.5229 90.8366 20.6609 90.6786 20.7409ZM71.6856 20.7409L65.4396 23.9279L59.1936 27.1149C59.0356 27.1959 58.8556 27.1959 58.6976 27.1149C58.5396 27.0349 58.4496 26.8969 58.4496 26.7359V20.3619V13.9879C58.4496 13.8269 58.5396 13.6889 58.6976 13.6089C58.8556 13.5279 59.0356 13.5279 59.1936 13.6089L65.4396 16.7959L71.6856 19.9819C71.8436 20.0629 71.9336 20.2009 71.9336 20.3619C71.9336 20.5229 71.8436 20.6609 71.6856 20.7409Z" fill="#FF6600"/>
<path fill-rule="evenodd" clip-rule="evenodd" d="M139.482 9.44288C138.599 12.1249 137.275 14.3469 135.5 16.1219C133.728 17.8939 131.513 19.2149 128.84 20.0979C128.724 20.1359 128.65 20.2399 128.65 20.3609C128.65 20.4829 128.724 20.5859 128.84 20.6239C131.513 21.5079 133.728 22.8289 135.5 24.5999C137.275 26.3759 138.598 28.5969 139.481 31.2779C139.52 31.3929 139.622 31.4669 139.743 31.4669C139.864 31.4669 139.966 31.3929 140.005 31.2779C140.888 28.5969 142.211 26.3759 143.987 24.5999C145.758 22.8289 147.973 21.5079 150.645 20.6239C150.76 20.5859 150.835 20.4829 150.835 20.3609C150.835 20.2389 150.76 20.1359 150.645 20.0979C147.973 19.2149 145.758 17.8939 143.987 16.1219C142.212 14.3469 140.889 12.1249 140.006 9.44288C139.968 9.32688 139.865 9.25288 139.744 9.25288C139.623 9.25288 139.52 9.32688 139.482 9.44288ZM132.53 27.5809C131.438 26.4879 130.174 25.4059 128.82 24.4809C127.64 23.6729 126.394 22.9819 125.139 22.5099C124.283 22.1879 123.157 21.8789 122.134 21.9189C121.464 21.9459 120.841 22.1289 120.398 22.5719C119.956 23.0139 119.773 23.6349 119.748 24.3029C119.707 25.3229 120.015 26.4479 120.338 27.3039C120.812 28.5609 121.501 29.8089 122.306 30.9859C123.233 32.3389 124.315 33.6019 125.407 34.6949C126.5 35.7879 127.763 36.8709 129.117 37.7969C130.298 38.6049 131.544 39.2949 132.8 39.7679C133.653 40.0899 134.781 40.3979 135.804 40.3579C136.473 40.3309 137.096 40.1489 137.54 39.7049C137.982 39.2639 138.164 38.6419 138.189 37.9739C138.23 36.9549 137.922 35.8289 137.6 34.9729C137.126 33.7159 136.437 32.4699 135.631 31.2919C134.704 29.9379 133.623 28.6749 132.53 27.5809ZM146.956 27.5809C145.863 28.6749 144.783 29.9379 143.857 31.2909C143.051 32.4689 142.362 33.7149 141.888 34.9729C141.566 35.8289 141.257 36.9549 141.297 37.9749C141.323 38.6419 141.505 39.2639 141.947 39.7049C142.391 40.1489 143.014 40.3309 143.684 40.3579C144.706 40.3979 145.833 40.0899 146.688 39.7679C147.943 39.2949 149.19 38.6049 150.37 37.7969C151.724 36.8709 152.986 35.7879 154.079 34.6949C155.172 33.6019 156.254 32.3389 157.181 30.9859C157.987 29.8079 158.676 28.5609 159.149 27.3039C159.471 26.4479 159.78 25.3219 159.74 24.3029C159.714 23.6349 159.532 23.0139 159.09 22.5719C158.647 22.1289 158.023 21.9459 157.354 21.9189C156.331 21.8789 155.204 22.1879 154.349 22.5099C153.095 22.9829 151.847 23.6729 150.666 24.4809C149.312 25.4059 148.049 26.4879 146.956 27.5809ZM154.079 6.02888C152.986 4.93588 151.724 3.85288 150.37 2.92688C149.19 2.11888 147.943 1.42888 146.688 0.95588C145.833 0.63388 144.706 0.32588 143.684 0.36588C143.014 0.39288 142.391 0.57488 141.947 1.01888C141.505 1.45988 141.323 2.08088 141.297 2.74888C141.257 3.76888 141.566 4.89488 141.888 5.75088C142.362 7.00888 143.051 8.25488 143.857 9.43288C144.783 10.7859 145.863 12.0489 146.956 13.1429C148.049 14.2359 149.312 15.3179 150.666 16.2429C151.847 17.0509 153.095 17.7409 154.349 18.2139C155.204 18.5359 156.331 18.8449 157.354 18.8049C158.023 18.7779 158.647 18.5949 159.09 18.1519C159.532 17.7099 159.714 17.0889 159.74 16.4209C159.78 15.4019 159.471 14.2759 159.149 13.4199C158.676 12.1629 157.987 10.9159 157.181 9.73788C156.254 8.38488 155.172 7.12188 154.079 6.02888ZM125.407 6.02888C124.315 7.12188 123.233 8.38488 122.306 9.73788C121.501 10.9149 120.812 12.1629 120.338 13.4199C120.015 14.2759 119.707 15.4009 119.748 16.4209C119.773 17.0889 119.956 17.7099 120.398 18.1519C120.841 18.5949 121.464 18.7779 122.134 18.8049C123.157 18.8449 124.283 18.5359 125.139 18.2139C126.394 17.7419 127.64 17.0509 128.82 16.2429C130.174 15.3179 131.438 14.2359 132.53 13.1429C133.623 12.0489 134.704 10.7859 135.631 9.43188C136.437 8.25388 137.126 7.00788 137.6 5.75088C137.922 4.89488 138.23 3.76888 138.189 2.74988C138.164 2.08088 137.982 1.45988 137.54 1.01888C137.096 0.57488 136.473 0.39288 135.804 0.36588C134.781 0.32588 133.653 0.63388 132.8 0.95588C131.544 1.42888 130.298 2.11888 129.117 2.92688C127.763 3.85288 126.5 4.93588 125.407 6.02888Z" fill="#128264"/>
<path fill-rule="evenodd" clip-rule="evenodd" d="M33.974 24.704C33.534 25.692 32.954 26.791 32.269 27.576C32.262 27.584 32.255 27.592 32.248 27.6C32.053 27.82 31.983 28.096 32.049 28.382C32.243 29.225 32.765 30.036 33.526 30.423C36.981 32.177 43.174 33.349 45.799 36.024C46.677 36.917 47.281 38.023 47.677 39.203C47.77 39.479 47.728 39.759 47.558 39.996C47.387 40.233 47.136 40.362 46.843 40.362H45.211C44.848 40.362 44.537 40.155 44.399 39.819C44.173 39.273 43.867 38.75 43.452 38.328C41.713 36.556 34.713 34.715 32.036 33.355C29.948 32.295 28.675 29.97 28.675 27.658C28.675 26.521 29.109 26.195 29.792 25.413C30.345 24.779 30.947 23.472 31.276 22.63C31.355 22.431 31.482 22.285 31.669 22.181C33.118 21.378 34.06 18.293 32.933 16.992C32.762 16.794 32.691 16.557 32.726 16.299C32.794 15.796 32.848 15.293 32.887 14.788C33.358 8.633 30.718 3.652 23.996 3.652C17.273 3.652 14.633 8.633 15.104 14.788C15.143 15.293 15.197 15.796 15.265 16.299C15.3 16.557 15.229 16.794 15.058 16.991C13.931 18.293 14.873 21.378 16.322 22.181C16.508 22.284 16.637 22.431 16.715 22.63C17.045 23.472 17.646 24.779 18.199 25.413C18.882 26.195 19.316 26.521 19.316 27.658C19.316 29.97 18.043 32.295 15.955 33.355C13.278 34.715 6.279 36.556 4.539 38.328C4.124 38.75 3.818 39.273 3.592 39.819C3.454 40.155 3.144 40.362 2.78 40.362H1.148C0.855995 40.362 0.603995 40.233 0.432995 39.996C0.262995 39.759 0.220996 39.479 0.313996 39.203C0.709996 38.023 1.314 36.917 2.192 36.024C4.817 33.349 11.01 32.177 14.465 30.423C15.226 30.036 15.748 29.225 15.942 28.382C16.008 28.096 15.938 27.82 15.743 27.6C15.736 27.592 15.729 27.584 15.722 27.576C15.037 26.791 14.457 25.692 14.017 24.704C13.963 24.581 13.893 24.487 13.791 24.398C11.591 22.483 10.587 18.747 11.8 16.055C11.866 15.908 11.889 15.768 11.874 15.608C11.855 15.418 11.838 15.229 11.824 15.038C11.205 6.954 15.348 0.362 23.996 0.362C32.644 0.362 36.786 6.954 36.167 15.038C36.152 15.229 36.136 15.419 36.117 15.608C36.102 15.768 36.126 15.908 36.191 16.054C37.405 18.746 36.4 22.483 34.2 24.398C34.099 24.487 34.028 24.581 33.974 24.704Z" fill="#FF6600"/>
</svg>
