<svg width="26" height="25" viewBox="0 0 26 25" fill="none" xmlns="http://www.w3.org/2000/svg">
<path fill-rule="evenodd" clip-rule="evenodd" d="M5.66536 22.0135H19.6096C20.3446 22.0135 21.0144 21.7113 21.5017 21.224C21.9863 20.7394 22.2885 20.0697 22.2885 19.3346V5.66536C22.2885 4.93031 21.9863 4.26059 21.5017 3.776C21.0144 3.28869 20.3446 2.9865 19.6096 2.9865H5.66536C4.93031 2.9865 4.26059 3.28869 3.776 3.776C3.28869 4.26059 2.9865 4.93031 2.9865 5.66536V6.10639C2.9865 6.26157 2.86126 6.38952 2.70609 6.38952H0.283132C0.127954 6.38952 0 6.26157 0 6.10639V5.66536C0 4.10541 0.637047 2.68975 1.6634 1.6634C2.68975 0.637047 4.10814 0 5.66536 0H19.6096C21.1695 0 22.5879 0.637047 23.6116 1.6634C24.6379 2.68975 25.275 4.10541 25.275 5.66536V19.3346C25.275 20.8946 24.6379 22.3102 23.6116 23.3366C22.5879 24.363 21.1695 25 19.6096 25H5.66536C4.10814 25 2.68975 24.363 1.6634 23.3366C0.637047 22.3102 0 20.8946 0 19.3346V18.8936C0 18.7384 0.127954 18.6105 0.283132 18.6105H2.70609C2.86126 18.6105 2.9865 18.7384 2.9865 18.8936V19.3346C2.9865 20.0697 3.28869 20.7394 3.776 21.224C4.26059 21.7113 4.93031 22.0135 5.66536 22.0135V22.0135ZM0 12.5014C0 11.7391 0.61799 11.1211 1.38027 11.1211H11.652C11.7636 11.1211 11.8589 11.053 11.897 10.9469C11.9351 10.8407 11.9024 10.7263 11.8153 10.6556L8.8288 8.25166C8.23532 7.77524 8.14004 6.90678 8.61647 6.31602C9.09289 5.72253 9.96134 5.62997 10.5521 6.10639L17.075 11.3607C17.0805 11.3634 17.0832 11.3661 17.0886 11.3688C17.4453 11.6193 17.6767 12.0331 17.6767 12.5014C17.6767 12.9669 17.4453 13.3807 17.0886 13.6312C17.0832 13.6339 17.0805 13.6366 17.075 13.6421L10.5521 18.8963C9.96134 19.37 9.09289 19.2775 8.61647 18.684C8.14004 18.0932 8.23532 17.2275 8.8288 16.7511L11.8153 14.3444C11.9024 14.2737 11.9351 14.1593 11.897 14.0531C11.8589 13.947 11.7636 13.8789 11.652 13.8789H1.38027C0.61799 13.8789 0 13.2609 0 12.5014V12.5014Z" fill="#7CB3A4"/>
</svg>
