<svg width="29" height="24" viewBox="0 0 29 24" fill="none" xmlns="http://www.w3.org/2000/svg">
<path fill-rule="evenodd" clip-rule="evenodd" d="M8.1041 14.584C6.683 13.3671 6.05139 10.9904 6.84906 9.26985C6.83545 9.14462 6.82456 9.01938 6.81639 8.89415C6.44342 4.01013 9.02156 0 14.2295 0C19.4375 0 22.0157 4.01013 21.6427 8.89415C21.6345 9.01938 21.6236 9.14462 21.61 9.26985C22.4077 10.9904 21.7761 13.3671 20.355 14.584C20.0828 15.1993 19.7343 15.8663 19.296 16.3699C19.2769 16.3917 19.2551 16.4162 19.2334 16.438C19.3069 16.8436 19.5492 17.2683 19.914 17.4534C22.0266 18.5261 25.4759 19.0951 27.1202 20.7694C27.7437 21.401 28.1466 22.2041 28.3889 23.0535L28.4379 23.2331C28.4841 23.3965 28.4542 23.5571 28.3535 23.6905C28.25 23.8266 28.103 23.9001 27.9342 23.9001H26.2817C26.0585 23.9001 25.8679 23.7695 25.789 23.5598L25.7563 23.47C25.6392 23.1596 25.4759 22.852 25.2417 22.6124C24.2644 21.616 20.2407 20.5733 18.7215 19.8002C17.3903 19.125 16.5763 17.6549 16.5763 16.1766C16.5763 15.4116 16.8485 15.1693 17.3141 14.6357C17.6271 14.2764 17.962 13.5168 18.1335 13.0649L18.2288 12.8172L18.4656 12.7028C19.1245 12.3843 19.6608 10.759 19.1027 10.2064L18.8686 9.96951L18.9148 9.6401C18.9584 9.32702 18.9938 9.01122 19.0183 8.69269C19.2742 5.34684 17.9021 2.63258 14.2295 2.63258C10.557 2.63258 9.1849 5.34684 9.44081 8.69269C9.46531 9.01122 9.5007 9.32702 9.54426 9.6401L9.59326 9.96951L9.35641 10.2064C8.79832 10.759 9.33463 12.3843 9.99346 12.7028L10.2303 12.8172L10.3256 13.0649C10.4971 13.5168 10.832 14.2764 11.145 14.6357C11.6106 15.1693 11.8828 15.4116 11.8828 16.1766C11.8828 17.6549 11.0688 19.125 9.73755 19.8002C8.21844 20.5733 4.19742 21.616 3.21735 22.6124C2.98322 22.852 2.81988 23.1596 2.70281 23.47L2.67015 23.5598C2.5912 23.7695 2.40063 23.9001 2.17739 23.9001H0.524877C0.356087 23.9001 0.209076 23.8266 0.105624 23.6905C0.00489478 23.5571 -0.0250519 23.3965 0.0212293 23.2331L0.0729553 23.0535C0.312528 22.2041 0.715447 21.401 1.33888 20.7694C2.98322 19.0951 6.43253 18.5261 8.54513 17.4534C8.90994 17.2683 9.15223 16.8436 9.22574 16.438C9.20396 16.4162 9.18218 16.3917 9.16312 16.3699C8.72481 15.8663 8.37634 15.1993 8.1041 14.584Z" fill="white"/>
</svg>
