<svg width="190" height="43" viewBox="0 0 190 43" fill="none" xmlns="http://www.w3.org/2000/svg">
<path fill-rule="evenodd" clip-rule="evenodd" d="M104.555 21.7409L98.3086 24.9279L92.0616 28.1149C91.9036 28.1959 91.7236 28.1959 91.5656 28.1149C91.4076 28.0349 91.3176 27.8969 91.3176 27.7359V21.3619V14.9879C91.3176 14.8269 91.4076 14.6889 91.5656 14.6089C91.7236 14.5279 91.9036 14.5279 92.0616 14.6089L98.3086 17.7959L104.555 20.9819C104.713 21.0629 104.803 21.2009 104.803 21.3619C104.803 21.5229 104.713 21.6609 104.555 21.7409ZM85.5616 21.7409L79.3156 24.9279L73.0696 28.1149C72.9116 28.1959 72.7306 28.1959 72.5736 28.1149C72.4156 28.0349 72.3256 27.8969 72.3256 27.7359V21.3619V14.9879C72.3256 14.8269 72.4156 14.6889 72.5736 14.6089C72.7306 14.5279 72.9116 14.5279 73.0696 14.6089L79.3156 17.7959L85.5616 20.9819C85.7196 21.0629 85.8096 21.2009 85.8096 21.3619C85.8096 21.5229 85.7196 21.6609 85.5616 21.7409ZM66.5696 21.7409L60.3236 24.9279L54.0766 28.1149C53.9196 28.1959 53.7386 28.1959 53.5806 28.1149C53.4236 28.0349 53.3326 27.8969 53.3326 27.7359V21.3619V14.9879C53.3326 14.8269 53.4236 14.6889 53.5806 14.6089C53.7386 14.5279 53.9186 14.5279 54.0766 14.6089L60.3236 17.7959L66.5696 20.9819C66.7276 21.0629 66.8176 21.2009 66.8176 21.3619C66.8176 21.5229 66.7276 21.6609 66.5696 21.7409Z" fill="#FF6600"/>
<path fill-rule="evenodd" clip-rule="evenodd" d="M20.5788 10.4429C19.6958 13.1249 18.3718 15.3469 16.5968 17.1219C14.8248 18.8939 12.6098 20.2149 9.93679 21.0979C9.82079 21.1359 9.74679 21.2399 9.74679 21.3609C9.74679 21.4829 9.82079 21.5859 9.93679 21.6239C12.6098 22.5079 14.8248 23.8289 16.5968 25.5999C18.3718 27.3759 19.6958 29.5969 20.5788 32.2779C20.6168 32.3929 20.7198 32.4669 20.8398 32.4669C20.9608 32.4669 21.0638 32.3929 21.1018 32.2779C21.9848 29.5969 23.3078 27.3759 25.0838 25.5999C26.8548 23.8289 29.0698 22.5079 31.7418 21.6239C31.8568 21.5859 31.9318 21.4829 31.9318 21.3609C31.9318 21.2389 31.8568 21.1359 31.7418 21.0979C29.0698 20.2149 26.8548 18.8939 25.0848 17.1219C23.3088 15.3469 21.9858 13.1249 21.1028 10.4429C21.0648 10.3269 20.9618 10.2529 20.8408 10.2529C20.7198 10.2529 20.6168 10.3269 20.5788 10.4429ZM13.6268 28.5809C12.5348 27.4879 11.2708 26.4059 9.91683 25.4809C8.73683 24.6729 7.4908 23.9819 6.2358 23.5099C5.3798 23.1879 4.25379 22.8789 3.23079 22.9189C2.56079 22.9459 1.93783 23.1289 1.49483 23.5719C1.05283 24.0139 0.869808 24.6349 0.844808 25.3029C0.803808 26.3229 1.11184 27.4479 1.43484 28.3039C1.90884 29.5609 2.59779 30.8089 3.40279 31.9859C4.32979 33.3389 5.41181 34.6019 6.50381 35.6949C7.59681 36.7879 8.85983 37.8709 10.2138 38.7969C11.3948 39.6049 12.6408 40.2949 13.8968 40.7679C14.7508 41.0899 15.8778 41.3979 16.9008 41.3579C17.5698 41.3309 18.1928 41.1489 18.6368 40.7049C19.0788 40.2639 19.2608 39.6419 19.2868 38.9739C19.3268 37.9549 19.0188 36.8289 18.6968 35.9729C18.2228 34.7159 17.5338 33.4699 16.7278 32.2919C15.8008 30.9379 14.7198 29.6749 13.6268 28.5809ZM28.0538 28.5809C26.9598 29.6749 25.8798 30.9379 24.9538 32.2909C24.1478 33.4689 23.4588 34.7149 22.9848 35.9729C22.6628 36.8289 22.3538 37.9549 22.3938 38.9749C22.4208 39.6419 22.6018 40.2639 23.0438 40.7049C23.4878 41.1489 24.1108 41.3309 24.7808 41.3579C25.8028 41.3979 26.9298 41.0899 27.7848 40.7679C29.0408 40.2949 30.2868 39.6049 31.4668 38.7969C32.8208 37.8709 34.0828 36.7879 35.1758 35.6949C36.2688 34.6019 37.3508 33.3389 38.2778 31.9859C39.0838 30.8079 39.7728 29.5609 40.2458 28.3039C40.5678 27.4479 40.8768 26.3219 40.8368 25.3029C40.8108 24.6349 40.6288 24.0139 40.1868 23.5719C39.7438 23.1289 39.1198 22.9459 38.4508 22.9189C37.4278 22.8789 36.3008 23.1879 35.4458 23.5099C34.1918 23.9829 32.9438 24.6729 31.7628 25.4809C30.4088 26.4059 29.1458 27.4879 28.0538 28.5809ZM35.1758 7.02894C34.0828 5.93594 32.8208 4.85294 31.4668 3.92694C30.2868 3.11894 29.0408 2.42894 27.7848 1.95594C26.9298 1.63394 25.8028 1.32594 24.7808 1.36594C24.1108 1.39294 23.4878 1.57494 23.0438 2.01894C22.6018 2.45994 22.4208 3.08094 22.3938 3.74894C22.3538 4.76894 22.6628 5.89494 22.9848 6.75094C23.4588 8.00894 24.1478 9.25494 24.9538 10.4329C25.8798 11.7859 26.9598 13.0489 28.0538 14.1429C29.1458 15.2359 30.4088 16.3179 31.7628 17.2429C32.9438 18.0509 34.1918 18.7409 35.4458 19.2139C36.3008 19.5359 37.4278 19.8449 38.4508 19.8049C39.1198 19.7779 39.7438 19.5949 40.1868 19.1519C40.6288 18.7099 40.8108 18.0889 40.8368 17.4209C40.8768 16.4019 40.5678 15.2759 40.2458 14.4199C39.7728 13.1629 39.0838 11.9159 38.2778 10.7379C37.3508 9.38494 36.2688 8.12194 35.1758 7.02894ZM6.50381 7.02894C5.41181 8.12194 4.32979 9.38494 3.40279 10.7379C2.59779 11.9149 1.90884 13.1629 1.43484 14.4199C1.11184 15.2759 0.803808 16.4009 0.844808 17.4209C0.869808 18.0889 1.05283 18.7099 1.49483 19.1519C1.93783 19.5949 2.56079 19.7779 3.23079 19.8049C4.25379 19.8449 5.3798 19.5359 6.2358 19.2139C7.4908 18.7419 8.73683 18.0509 9.91683 17.2429C11.2708 16.3179 12.5348 15.2359 13.6268 14.1429C14.7198 13.0489 15.8008 11.7859 16.7278 10.4319C17.5338 9.25394 18.2228 8.00794 18.6968 6.75094C19.0188 5.89494 19.3268 4.76894 19.2868 3.74994C19.2608 3.08094 19.0788 2.45994 18.6368 2.01894C18.1928 1.57494 17.5698 1.39294 16.9008 1.36594C15.8778 1.32594 14.7508 1.63394 13.8968 1.95594C12.6408 2.42894 11.3948 3.11894 10.2138 3.92694C8.85983 4.85294 7.59681 5.93594 6.50381 7.02894Z" fill="#128264"/>
<path fill-rule="evenodd" clip-rule="evenodd" d="M140.062 0.361938C151.66 0.361938 161.062 9.76394 161.062 21.3619C161.062 21.6329 161.056 21.9039 161.046 22.1719C161.034 22.4679 161.153 22.7269 161.385 22.9109C161.472 22.9799 161.559 23.0529 161.643 23.1289L161.794 23.2649C162.631 24.0189 162.994 25.1399 162.759 26.2429C162.451 27.6799 162.006 29.0869 161.432 30.4389C160.991 31.4769 160.049 32.1849 158.93 32.3209L158.73 32.3449C158.617 32.3589 158.502 32.3699 158.388 32.3759C158.093 32.3919 157.847 32.5349 157.686 32.7829C153.943 38.5489 147.448 42.3619 140.062 42.3619C128.464 42.3619 119.062 32.9599 119.062 21.3619C119.062 21.0319 119.07 20.7039 119.085 20.3779C119.1 20.0779 118.977 19.8119 118.739 19.6279C118.654 19.5609 118.57 19.4919 118.489 19.4209L118.359 19.3069C117.495 18.5469 117.12 17.3989 117.371 16.2759C117.613 15.1939 117.933 14.1299 118.327 13.0939C118.386 12.9399 118.446 12.7869 118.508 12.6339C118.592 12.4259 118.68 12.2199 118.77 12.0149C119.233 10.9599 120.217 10.2559 121.366 10.1569L121.537 10.1429C121.643 10.1339 121.75 10.1279 121.856 10.1249C122.157 10.1169 122.412 9.97594 122.579 9.72594C126.343 4.08094 132.768 0.361938 140.062 0.361938ZM166.291 3.40694C174.413 5.08994 180.53 12.4899 180.53 21.3619C180.53 30.2349 174.413 37.6339 166.291 39.3169C165.896 39.3989 165.509 39.1999 165.344 38.8319C165.178 38.4639 165.29 38.0419 165.615 37.8019C170.584 34.1399 173.824 28.1409 173.824 21.3619C173.824 14.5829 170.584 8.58394 165.615 4.92294C165.29 4.68294 165.178 4.25994 165.344 3.89194C165.509 3.52394 165.897 3.32594 166.291 3.40694ZM176.217 4.93394C183.622 6.51894 189.186 13.2719 189.186 21.3619C189.186 29.4519 183.622 36.2049 176.217 37.7899C175.844 37.8699 175.477 37.6849 175.319 37.3379C175.161 36.9909 175.264 36.5919 175.57 36.3629C180.088 33.0029 183.027 27.5359 183.027 21.3619C183.027 15.1879 180.088 9.72094 175.57 6.36094C175.264 6.13294 175.161 5.73394 175.319 5.38594C175.477 5.03994 175.844 4.85494 176.217 4.93394ZM156.366 1.87994C165.204 3.66094 171.874 11.7069 171.874 21.3619C171.874 31.0169 165.204 39.0629 156.366 40.8439C155.949 40.9279 155.54 40.7169 155.368 40.3269C155.196 39.9369 155.315 39.4919 155.659 39.2399C161.081 35.2769 164.621 28.7469 164.621 21.3619C164.621 13.9769 161.081 7.44694 155.659 3.48394C155.315 3.23294 155.196 2.78694 155.368 2.39694C155.54 2.00794 155.949 1.79594 156.366 1.87994Z" fill="#FF6600"/>
<path fill-rule="evenodd" clip-rule="evenodd" d="M152.455 24.5749C153.13 24.5749 153.804 24.5749 154.479 24.5749C154.735 24.5749 154.956 24.4799 155.132 24.2929C155.16 24.2629 155.189 24.2339 155.218 24.2039C155.439 23.9839 155.684 23.7889 155.948 23.6249C156.591 23.2249 157.331 23.0159 158.088 23.0159C159.095 23.0159 160.057 23.3849 160.805 24.0579L160.957 24.1939C161.462 24.6489 161.677 25.3159 161.535 25.9809C161.244 27.3399 160.824 28.6709 160.28 29.9499C160.014 30.5759 159.454 30.9969 158.779 31.0789L158.58 31.1029C158.417 31.1229 158.252 31.1329 158.088 31.1329C157.331 31.1329 156.591 30.9229 155.948 30.5239C155.684 30.3589 155.439 30.1649 155.218 29.9439C155.191 29.9179 155.165 29.8899 155.139 29.8629C154.962 29.6749 154.74 29.5809 154.482 29.5819L153.358 29.5889C153.042 29.5909 152.726 29.5919 152.411 29.5929C152.017 29.5939 151.684 29.8369 151.561 30.2109C151.308 30.9859 150.949 31.7179 150.477 32.3929C150.043 33.0129 149.526 33.5669 148.947 34.0539C148.654 34.2989 148.348 34.5269 148.028 34.7349C145.876 36.1379 143.29 36.5989 140.758 36.5989C139.968 36.5989 139.178 36.5479 138.395 36.4459C137.044 36.2709 135.717 35.9429 134.439 35.4729C133.685 35.1959 132.931 34.9209 132.169 34.6699C132.039 34.6279 131.82 34.5449 131.631 34.4899C131.316 34.3979 130.999 34.4739 130.761 34.6999C130.619 34.8349 130.503 35.0079 130.402 35.1859C130.331 35.3129 130.268 35.4459 130.212 35.5799L130.191 35.6309C130.048 35.9719 129.733 36.1819 129.363 36.1819H128.795C128.301 36.1819 127.898 35.7799 127.898 35.2849V25.5759C127.898 25.0819 128.301 24.6789 128.795 24.6789H129.421C129.851 24.6789 130.213 24.9739 130.3 25.3959L130.313 25.4619C130.367 25.7209 130.427 25.9789 130.495 26.2359C130.997 28.1199 131.896 29.8029 133.381 31.0929C133.57 31.2569 133.767 31.4129 133.97 31.5609C135.353 32.5649 136.9 33.1239 138.6 33.2609C138.884 33.2839 139.169 33.2949 139.455 33.2949C140.64 33.2949 141.94 33.1119 142.945 32.4389C143.334 32.1789 143.666 31.8479 143.865 31.4189C144.015 31.0959 144.076 30.7479 144.076 30.3929C144.076 29.5059 143.732 28.7829 143.108 28.1629C142.663 27.7189 141.911 27.3279 141.356 27.0349C140.308 26.4829 139.226 25.9979 138.137 25.5339C137.98 25.4669 137.823 25.4009 137.666 25.3349C136.516 24.8499 135.38 24.3229 134.289 23.7149C132.966 22.9789 131.663 22.1029 130.589 21.0289C129.842 20.2819 129.256 19.4259 128.851 18.4649C128.708 18.1249 128.393 17.9159 128.024 17.9159H125.62C125.362 17.9159 125.14 18.0129 124.964 18.2019C124.932 18.2359 124.899 18.2699 124.866 18.3029C124.102 19.0669 123.075 19.4919 121.996 19.4919C121.343 19.4919 120.702 19.3359 120.123 19.0349C119.832 18.8839 119.561 18.6969 119.314 18.4799L119.185 18.3669C118.663 17.9089 118.441 17.2259 118.592 16.5479C118.821 15.5249 119.123 14.5189 119.496 13.5389C119.552 13.3929 119.609 13.2479 119.668 13.1029C119.747 12.9069 119.83 12.7119 119.915 12.5189C120.195 11.8819 120.78 11.4629 121.473 11.4039L121.644 11.3889C121.761 11.3789 121.878 11.3739 121.996 11.3739C123.075 11.3739 124.102 11.7989 124.866 12.5629C124.895 12.5929 124.924 12.6219 124.952 12.6529C125.128 12.8389 125.349 12.9349 125.605 12.9349H127.731C128.129 12.9349 128.467 12.6869 128.586 12.3069C128.597 12.2729 128.608 12.2389 128.619 12.2049C129.033 10.9459 129.737 9.84793 130.67 8.90793C132.758 6.80293 135.599 6.03593 138.489 5.94093C138.704 5.93393 138.92 5.92993 139.135 5.92993C141.192 5.92993 143.237 6.24593 145.157 6.99893C145.891 7.28693 146.941 7.83093 147.707 7.92193C148.284 7.99193 148.371 7.67193 148.463 7.12293L148.474 7.05393C148.547 6.61793 148.917 6.30493 149.359 6.30493H149.933C150.428 6.30493 150.831 6.70793 150.831 7.20193V15.6489C150.831 16.1429 150.428 16.5459 149.933 16.5459H149.357C148.913 16.5459 148.542 16.2289 148.472 15.7909L148.461 15.7219C148.379 15.2109 148.253 14.7069 148.078 14.2199C147.774 13.3779 147.33 12.6139 146.748 11.9329C146.46 11.5959 146.144 11.2839 145.806 10.9979C144.215 9.65293 142.356 9.06693 140.286 9.06693C139.766 9.06693 139.241 9.11093 138.733 9.22393C138.164 9.35093 137.62 9.56393 137.138 9.89693C136.458 10.3669 136.067 10.9629 136.067 11.8029C136.067 12.3629 136.292 12.8279 136.656 13.2429C136.707 13.3009 136.759 13.3569 136.814 13.4119C137.191 13.7889 138.014 14.1779 138.497 14.4159C138.645 14.4889 138.793 14.5609 138.942 14.6319C140.062 15.1659 141.208 15.6429 142.358 16.1099C144.256 16.8799 146.393 17.7919 148.063 18.9859C148.437 19.2539 148.798 19.5459 149.124 19.8709C149.874 20.6209 150.507 21.4699 150.987 22.4169C151.235 22.9079 151.438 23.4159 151.597 23.9389C151.714 24.3229 152.054 24.5749 152.455 24.5749ZM158.089 29.0659C159.189 29.0659 160.08 28.1709 160.08 27.0719C160.08 25.9729 159.188 25.0819 158.089 25.0819C156.99 25.0819 156.097 25.9719 156.097 27.0719C156.097 28.1709 156.989 29.0659 158.089 29.0659ZM121.996 13.4979C121.156 13.4979 120.407 14.0419 120.15 14.8419C120.09 15.0329 120.06 15.2299 120.06 15.4299C120.06 15.6319 120.09 15.8299 120.15 16.0209C120.407 16.8199 121.154 17.3679 121.996 17.3679C123.065 17.3679 123.93 16.4979 123.93 15.4299C123.93 14.3629 123.063 13.4979 121.996 13.4979Z" fill="white"/>
<path fill-rule="evenodd" clip-rule="evenodd" d="M126.78 19.3859L126.739 19.0279C126.706 18.7349 126.791 18.4699 126.987 18.2499C127.184 18.0299 127.438 17.9159 127.733 17.9159H137.514L137.53 18.0539C137.536 18.1089 137.522 18.1579 137.487 18.2019C137.453 18.2449 137.407 18.2699 137.352 18.2749L126.78 19.3859Z" fill="#FF6600"/>
<path fill-rule="evenodd" clip-rule="evenodd" d="M154.83 23.1069L154.87 23.4639C154.903 23.7569 154.818 24.0219 154.622 24.2419C154.425 24.4619 154.172 24.5759 153.876 24.5759H144.096L144.08 24.4379C144.073 24.3829 144.088 24.3339 144.122 24.2899C144.157 24.2469 144.202 24.2219 144.257 24.2169L154.83 23.1069Z" fill="#FF6600"/>
<path fill-rule="evenodd" clip-rule="evenodd" d="M155.018 30.7589L155.05 30.4749C155.076 30.2419 155.009 30.0319 154.853 29.8569C154.697 29.6819 154.495 29.5919 154.261 29.5919H146.49L146.477 29.7009C146.472 29.7449 146.483 29.7839 146.511 29.8189C146.538 29.8529 146.574 29.8729 146.618 29.8769L155.018 30.7589Z" fill="#FF6600"/>
<path fill-rule="evenodd" clip-rule="evenodd" d="M125.326 11.7669L125.296 12.0519C125.271 12.2839 125.335 12.4949 125.484 12.6699C125.632 12.8439 125.824 12.9349 126.047 12.9349H133.448L133.46 12.8259C133.465 12.7819 133.454 12.7419 133.428 12.7079C133.402 12.6729 133.368 12.6539 133.326 12.6489L125.326 11.7669Z" fill="#FF6600"/>
</svg>
