<svg width="151" height="41" viewBox="0 0 151 41" fill="none" xmlns="http://www.w3.org/2000/svg">
<path fill-rule="evenodd" clip-rule="evenodd" d="M32.8198 12.808H29.1478V23.879C29.1478 26.281 27.7508 28.96 25.5128 29.855L8.9628 36.475C7.8568 36.903 6.43481 36.685 6.43481 35.194C6.43481 34.574 6.79679 34.04 7.31479 33.806C7.89979 33.543 8.67981 33.256 9.31381 33.005L24.4468 27C25.4408 26.605 26.1808 25.106 26.1808 23.879V1.87296C26.1808 0.645964 25.4008 0.0429641 24.4468 0.531964L2.24579 11.921C1.29179 12.41 0.510803 13.815 0.510803 15.042V21.733V34.468V38.384C0.510803 39.472 1.3738 40.362 2.4288 40.362H32.8198C33.8748 40.362 34.7378 39.472 34.7378 38.384V14.786C34.7378 13.698 33.8748 12.808 32.8198 12.808V12.808ZM19.0878 11.62C20.5418 11.182 21.7208 11.89 21.7208 13.202C21.7208 14.514 20.5418 15.932 19.0878 16.37C17.6348 16.809 16.4558 16.1 16.4558 14.789C16.4558 13.476 17.6348 12.058 19.0878 11.62Z" fill="#FF6600"/>
<path fill-rule="evenodd" clip-rule="evenodd" d="M100.901 20.7409L94.6546 23.9279L88.4086 27.1149C88.2506 27.1959 88.0696 27.1959 87.9126 27.1149C87.7546 27.0349 87.6646 26.8969 87.6646 26.7359V20.3619V13.9879C87.6646 13.8269 87.7546 13.6889 87.9126 13.6089C88.0696 13.5279 88.2506 13.5279 88.4086 13.6089L94.6546 16.7959L100.901 19.9819C101.059 20.0629 101.149 20.2009 101.149 20.3619C101.149 20.5229 101.059 20.6609 100.901 20.7409V20.7409ZM81.9086 20.7409L75.6626 23.9279L69.4156 27.1149C69.2586 27.1959 69.0776 27.1959 68.9196 27.1149C68.7626 27.0349 68.6716 26.8969 68.6716 26.7359V20.3619V13.9879C68.6716 13.8269 68.7626 13.6889 68.9196 13.6089C69.0776 13.5279 69.2576 13.5279 69.4156 13.6089L75.6626 16.7959L81.9086 19.9819C82.0666 20.0629 82.1566 20.2009 82.1566 20.3619C82.1566 20.5229 82.0666 20.6609 81.9086 20.7409V20.7409ZM62.9156 20.7409L56.6696 23.9279L50.4236 27.1149C50.2656 27.1959 50.0856 27.1959 49.9276 27.1149C49.7696 27.0349 49.6796 26.8969 49.6796 26.7359V20.3619V13.9879C49.6796 13.8269 49.7696 13.6889 49.9276 13.6089C50.0856 13.5279 50.2656 13.5279 50.4236 13.6089L56.6696 16.7959L62.9156 19.9819C63.0736 20.0629 63.1636 20.2009 63.1636 20.3619C63.1636 20.5229 63.0736 20.6609 62.9156 20.7409V20.7409Z" fill="#FF6600"/>
<path fill-rule="evenodd" clip-rule="evenodd" d="M130.712 9.44294C129.829 12.1249 128.505 14.3469 126.73 16.1219C124.958 17.8939 122.743 19.2149 120.07 20.0979C119.954 20.1359 119.88 20.2399 119.88 20.3609C119.88 20.4829 119.954 20.5859 120.07 20.6239C122.743 21.5079 124.958 22.8289 126.73 24.5999C128.505 26.3759 129.829 28.5969 130.712 31.2779C130.75 31.3929 130.852 31.4669 130.973 31.4669C131.094 31.4669 131.197 31.3929 131.235 31.2779C132.118 28.5969 133.441 26.3759 135.217 24.5999C136.988 22.8289 139.203 21.5079 141.875 20.6239C141.99 20.5859 142.065 20.4829 142.065 20.3609C142.065 20.2389 141.99 20.1359 141.875 20.0979C139.203 19.2149 136.988 17.8939 135.218 16.1219C133.442 14.3469 132.119 12.1249 131.236 9.44294C131.198 9.32694 131.095 9.25294 130.974 9.25294C130.853 9.25294 130.75 9.32694 130.712 9.44294V9.44294ZM123.76 27.5809C122.668 26.4879 121.404 25.4059 120.05 24.4809C118.87 23.6729 117.624 22.9819 116.369 22.5099C115.513 22.1879 114.387 21.8789 113.364 21.9189C112.694 21.9459 112.072 22.1289 111.628 22.5719C111.186 23.0139 111.003 23.6349 110.978 24.3029C110.937 25.3229 111.246 26.4479 111.568 27.3039C112.042 28.5609 112.731 29.8089 113.536 30.9859C114.463 32.3389 115.545 33.6019 116.637 34.6949C117.73 35.7879 118.993 36.8709 120.347 37.7969C121.528 38.6049 122.774 39.2949 124.03 39.7679C124.884 40.0899 126.011 40.3979 127.034 40.3579C127.703 40.3309 128.327 40.1489 128.77 39.7049C129.212 39.2639 129.394 38.6419 129.42 37.9739C129.46 36.9549 129.152 35.8289 128.83 34.9729C128.356 33.7159 127.667 32.4699 126.861 31.2919C125.934 29.9379 124.853 28.6749 123.76 27.5809V27.5809ZM138.187 27.5809C137.094 28.6749 136.013 29.9379 135.087 31.2909C134.281 32.4689 133.592 33.7149 133.118 34.9729C132.796 35.8289 132.487 36.9549 132.527 37.9749C132.554 38.6419 132.736 39.2639 133.177 39.7049C133.621 40.1489 134.244 40.3309 134.914 40.3579C135.936 40.3979 137.063 40.0899 137.918 39.7679C139.174 39.2949 140.42 38.6049 141.6 37.7969C142.954 36.8709 144.216 35.7879 145.309 34.6949C146.402 33.6019 147.484 32.3389 148.411 30.9859C149.217 29.8079 149.906 28.5609 150.379 27.3039C150.701 26.4479 151.01 25.3219 150.97 24.3029C150.944 23.6349 150.762 23.0139 150.32 22.5719C149.877 22.1289 149.253 21.9459 148.584 21.9189C147.561 21.8789 146.434 22.1879 145.579 22.5099C144.325 22.9829 143.077 23.6729 141.897 24.4809C140.542 25.4059 139.279 26.4879 138.187 27.5809V27.5809ZM145.309 6.02894C144.216 4.93594 142.954 3.85294 141.6 2.92694C140.42 2.11894 139.174 1.42894 137.918 0.955941C137.063 0.633941 135.936 0.325941 134.914 0.365941C134.244 0.392941 133.621 0.574941 133.177 1.01894C132.736 1.45994 132.554 2.08094 132.527 2.74894C132.487 3.76894 132.796 4.89494 133.118 5.75094C133.592 7.00894 134.281 8.25494 135.087 9.43294C136.013 10.7859 137.094 12.0489 138.187 13.1429C139.279 14.2359 140.542 15.3179 141.897 16.2429C143.077 17.0509 144.325 17.7409 145.579 18.2139C146.434 18.5359 147.561 18.8449 148.584 18.8049C149.253 18.7779 149.877 18.5949 150.32 18.1519C150.762 17.7099 150.944 17.0889 150.97 16.4209C151.01 15.4019 150.701 14.2759 150.379 13.4199C149.906 12.1629 149.217 10.9159 148.411 9.73794C147.484 8.38494 146.402 7.12194 145.309 6.02894V6.02894ZM116.637 6.02894C115.545 7.12194 114.463 8.38494 113.536 9.73794C112.731 10.9149 112.042 12.1629 111.568 13.4199C111.246 14.2759 110.937 15.4009 110.978 16.4209C111.003 17.0889 111.186 17.7099 111.628 18.1519C112.072 18.5949 112.694 18.7779 113.364 18.8049C114.387 18.8449 115.513 18.5359 116.369 18.2139C117.624 17.7419 118.87 17.0509 120.05 16.2429C121.404 15.3179 122.668 14.2359 123.76 13.1429C124.853 12.0489 125.934 10.7859 126.861 9.43194C127.667 8.25394 128.356 7.00794 128.83 5.75094C129.152 4.89494 129.46 3.76894 129.42 2.74994C129.394 2.08094 129.212 1.45994 128.77 1.01894C128.327 0.574941 127.703 0.392941 127.034 0.365941C126.011 0.325941 124.884 0.633941 124.03 0.955941C122.774 1.42894 121.528 2.11894 120.347 2.92694C118.993 3.85294 117.73 4.93594 116.637 6.02894V6.02894Z" fill="#128264"/>
</svg>
