<svg width="230" height="36" viewBox="0 0 230 36" fill="none" xmlns="http://www.w3.org/2000/svg">
<path fill-rule="evenodd" clip-rule="evenodd" d="M148.974 4.14755H227.149C228.719 4.14755 230 5.42326 230 6.9836V28.625C230 30.1905 228.719 31.4611 227.149 31.4611H155.693C154.423 31.4611 153.34 30.6682 152.969 29.4586L146.667 9.06744C146.545 8.68625 146.418 8.29998 146.28 7.91879C145.97 7.02426 146.097 6.11449 146.651 5.34194C147.205 4.5694 148.024 4.14755 148.974 4.14755Z" fill="white"/>
<path d="M153.538 14.0636C155.747 14.0636 157.538 12.2727 157.538 10.0636C157.538 7.85451 155.747 6.06367 153.538 6.06367C151.329 6.06367 149.538 7.85451 149.538 10.0636C149.538 12.2727 151.329 14.0636 153.538 14.0636Z" fill="#1DAB03"/>
<path fill-rule="evenodd" clip-rule="evenodd" d="M212.176 25.7026C212.384 25.728 212.602 25.7534 212.826 25.7737C213.187 25.8042 213.548 25.8246 213.904 25.8246C215.54 25.8246 216.765 25.4891 217.583 24.8182C218.407 24.1473 218.966 23.1816 219.276 21.9313C219.449 21.2249 219.566 20.5591 219.627 19.9339C219.688 19.3088 219.672 18.7497 219.591 18.2668C219.51 17.784 219.357 17.4028 219.144 17.1283C218.925 16.8539 218.641 16.7167 218.28 16.7167C217.71 16.7167 217.156 16.925 216.613 17.3418C216.074 17.7637 215.54 18.3532 215.017 19.1258C214.498 19.8932 213.97 20.8335 213.431 21.9466C212.943 22.9631 212.445 24.0863 211.947 25.3163C211.911 25.4027 211.916 25.4891 211.962 25.5654C212.008 25.6467 212.084 25.6924 212.176 25.7026ZM217.192 6.11449L214.727 16.122C214.691 16.2541 214.757 16.3863 214.879 16.4422C215.001 16.5032 215.144 16.4676 215.225 16.3609C215.54 15.9492 215.855 15.5782 216.17 15.2478C216.765 14.6227 217.355 14.1144 217.949 13.7332C218.544 13.3469 219.144 13.0776 219.754 12.92C220.358 12.7675 220.973 12.6913 221.588 12.6913C222.493 12.6913 223.235 12.8692 223.825 13.2199C224.414 13.5706 224.872 14.0636 225.187 14.704C225.507 15.3444 225.67 16.1118 225.685 17.0114C225.7 17.9161 225.573 18.9174 225.304 20.0152C224.851 21.8399 224.206 23.3799 223.362 24.6353C222.519 25.8906 221.527 26.9021 220.389 27.6695C219.25 28.4421 217.985 28.9961 216.597 29.3366C215.21 29.6771 213.741 29.8499 212.196 29.8499C211.108 29.8499 210.026 29.8144 208.963 29.7483C208.008 29.6873 207.042 29.6212 206.061 29.545C205.975 29.5399 205.904 29.4992 205.853 29.4281C205.802 29.3569 205.787 29.2756 205.807 29.1943L211.53 5.97726C211.561 5.8502 211.672 5.76379 211.805 5.76379H216.918C217.009 5.76379 217.085 5.79937 217.141 5.87053C217.197 5.94168 217.212 6.02809 217.192 6.11449ZM195.363 13.3724L193.147 22.3583C192.857 23.5476 192.77 24.4218 192.892 24.9809C193.014 25.5399 193.482 25.8246 194.29 25.8246C194.976 25.8246 195.647 25.4688 196.293 24.7674C196.943 24.0609 197.553 23.1207 198.127 21.9466C198.702 20.7674 199.246 19.4053 199.759 17.8551C200.252 16.371 200.694 14.831 201.096 13.2351C201.126 13.1081 201.238 13.0217 201.37 13.0217H206.483C206.575 13.0217 206.651 13.0572 206.707 13.1284C206.763 13.1995 206.778 13.2859 206.758 13.3724L202.834 29.301C202.798 29.4281 202.686 29.5196 202.554 29.5196H197.441C197.355 29.5196 197.274 29.4789 197.218 29.4077C197.162 29.3366 197.146 29.2553 197.167 29.1689L197.853 26.3786C197.889 26.2464 197.822 26.1143 197.7 26.0533C197.579 25.9974 197.436 26.0329 197.355 26.1397C197.035 26.5615 196.72 26.9376 196.404 27.2731C195.81 27.9135 195.21 28.4167 194.605 28.7928C194.005 29.1638 193.391 29.4332 192.77 29.6009C192.145 29.7635 191.515 29.8499 190.875 29.8499C190.234 29.8499 189.624 29.7483 189.045 29.5501C188.46 29.3518 187.983 29.0164 187.601 28.5437C187.215 28.071 186.971 27.4306 186.865 26.6124C186.758 25.7992 186.854 24.7877 187.149 23.5781L189.701 13.2351C189.731 13.1081 189.843 13.0217 189.975 13.0217H195.088C195.18 13.0217 195.256 13.0572 195.312 13.1284C195.368 13.1995 195.383 13.2859 195.363 13.3724ZM183.154 5.76379H188.267C188.354 5.76379 188.435 5.79937 188.491 5.87053C188.547 5.94168 188.562 6.02809 188.542 6.11449L182.824 29.301C182.793 29.4281 182.682 29.5196 182.549 29.5196H177.436C177.35 29.5196 177.269 29.4789 177.213 29.4077C177.157 29.3366 177.142 29.2553 177.162 29.1689L182.875 5.97726C182.91 5.8502 183.022 5.76379 183.154 5.76379ZM158.875 18.3024C159.358 16.3406 160.059 14.6379 160.989 13.1843C161.914 11.7358 163.033 10.5312 164.339 9.5757C165.64 8.6151 167.114 7.90862 168.761 7.44611C170.402 6.9836 172.186 6.75489 174.112 6.75489C174.682 6.75489 175.266 6.77014 175.861 6.80063C176.461 6.83621 177.04 6.88703 177.604 6.94802C178.168 7.0141 178.707 7.09034 179.21 7.16657C179.576 7.22248 179.901 7.28347 180.181 7.34446C180.257 7.35971 180.318 7.40545 180.359 7.47661C180.405 7.54268 180.41 7.61892 180.389 7.69516C180.323 7.93912 180.242 8.20341 180.145 8.50328C180.003 8.92005 179.856 9.33682 179.693 9.75358C179.53 10.1754 179.363 10.5668 179.185 10.9429C179.053 11.2275 178.921 11.4766 178.799 11.69C178.738 11.7968 178.616 11.8476 178.494 11.8222C178.255 11.7663 177.955 11.7104 177.604 11.6494C177.147 11.5731 176.654 11.5071 176.12 11.4562C175.591 11.4003 175.048 11.3546 174.499 11.3241C173.95 11.2885 173.447 11.2733 172.999 11.2733C170.91 11.2733 169.187 11.8679 167.841 13.0522C166.494 14.2415 165.533 15.9899 164.964 18.3024C164.395 20.6099 164.491 22.3583 165.254 23.5476C166.021 24.7318 167.444 25.3265 169.533 25.3265C170.102 25.3265 170.702 25.3112 171.327 25.2807C171.952 25.2452 172.567 25.1994 173.172 25.1486C173.782 25.0927 174.341 25.0317 174.86 24.9656C175.18 24.925 175.48 24.8792 175.749 24.8284C175.851 24.8081 175.942 24.8386 176.013 24.9148C176.079 24.991 176.1 25.0876 176.074 25.1842C176.018 25.3671 175.957 25.5704 175.881 25.789C175.744 26.2058 175.591 26.6327 175.429 27.0596C175.261 27.4866 175.093 27.8881 174.915 28.2642C174.763 28.5895 174.621 28.8639 174.483 29.0876C174.443 29.1536 174.387 29.1994 174.311 29.2146C174.001 29.2959 173.635 29.3671 173.203 29.4332C172.725 29.5094 172.206 29.5856 171.658 29.6517C171.104 29.7178 170.545 29.7635 169.98 29.7991C169.416 29.8296 168.893 29.8499 168.42 29.8499C166.499 29.8499 164.827 29.6161 163.409 29.1536C161.991 28.6911 160.867 27.9846 160.034 27.0291C159.2 26.0685 158.682 24.864 158.468 23.4154C158.255 21.9618 158.392 20.2592 158.875 18.3024Z" fill="black"/>
<path fill-rule="evenodd" clip-rule="evenodd" d="M131.338 19.7052H136.741L134.021 10.8209H133.818L131.338 19.7052ZM129.417 4.16788H133.777C134.794 4.16788 135.648 4.25428 136.339 4.42709C137.035 4.59989 137.63 4.90993 138.123 5.36227C138.616 5.81462 139.048 6.44485 139.424 7.25298C139.795 8.06618 140.186 9.09285 140.583 10.3432L147.109 31.4611H140.385L138.26 24.5692H130.016L128.095 31.4611H121.488L129.417 4.16788ZM103.719 10.1043V25.7229H108.324C110.403 25.7229 111.953 25.0419 112.97 23.6747C113.981 22.3024 114.489 20.3862 114.489 17.9161C114.489 15.4409 113.981 13.5248 112.97 12.1576C111.953 10.7853 110.403 10.1043 108.324 10.1043H103.719ZM97.0307 4.3661H108.324C110.327 4.3661 112.131 4.64564 113.747 5.19963C115.363 5.75871 116.731 6.59733 117.854 7.7104C118.972 8.82856 119.841 10.2364 120.456 11.9391C121.066 13.6366 121.376 15.629 121.376 17.9161C121.376 20.1982 121.066 22.1905 120.456 23.8932C119.841 25.5908 118.972 26.9986 117.854 28.1168C116.731 29.2299 115.363 30.0685 113.747 30.6276C112.131 31.1866 110.327 31.4611 108.324 31.4611H97.0307V4.3661ZM69.4935 20.8233V4.3661H76.1821V20.8233C76.1821 21.8043 76.2634 22.6378 76.421 23.3138C76.5836 23.9898 76.853 24.5438 77.2444 24.9656C77.6306 25.3925 78.144 25.6924 78.7844 25.8652C79.4248 26.038 80.2227 26.1244 81.1884 26.1244C82.149 26.1244 82.947 26.038 83.5874 25.8652C84.2278 25.6924 84.7513 25.3925 85.1477 24.9656C85.5492 24.5438 85.8288 23.9898 85.9914 23.3138C86.149 22.6378 86.2303 21.8043 86.2303 20.8233V4.3661H92.9189V20.8233C92.9189 22.9224 92.6343 24.6759 92.0752 26.0838C91.5161 27.4916 90.7283 28.62 89.7118 29.4687C88.7004 30.3226 87.4654 30.9325 86.0117 31.3035C84.5581 31.6746 82.947 31.8626 81.1884 31.8626C79.4248 31.8626 77.8238 31.6746 76.3803 31.3035C74.942 30.9325 73.712 30.3226 72.7006 29.4687C71.6841 28.62 70.8963 27.4916 70.3372 26.0838C69.773 24.6759 69.4935 22.9224 69.4935 20.8233ZM46.3629 31.4611C46.3629 31.1714 46.3629 30.7902 46.3629 30.3277C46.3629 29.8601 46.368 29.3773 46.3832 28.8741C46.3934 28.3658 46.4137 27.8779 46.4442 27.4001C46.4696 26.9224 46.5103 26.5209 46.5611 26.2007L58.2916 10.1043H47.0846C47.0846 9.70276 47.1049 9.24533 47.1405 8.72691C47.1812 8.20849 47.2371 7.67991 47.3032 7.13608C47.3692 6.59225 47.4505 6.07383 47.542 5.58082C47.6386 5.08782 47.7352 4.6863 47.8419 4.3661H66.9421C66.9421 4.71171 66.9319 5.13356 66.9217 5.64181C66.9065 6.14498 66.8963 6.64815 66.8811 7.15641C66.8658 7.65958 66.8557 8.13734 66.8404 8.58968C66.8252 9.04203 66.8099 9.38764 66.7794 9.62652L54.9676 25.7229H67.5012C67.5012 26.0431 67.4808 26.4497 67.4402 26.9376C67.3995 27.4306 67.3487 27.9491 67.2826 28.4929C67.2165 29.0367 67.1352 29.5755 67.0437 30.1091C66.9472 30.6377 66.8353 31.0901 66.7032 31.4611H46.3629Z" fill="white"/>
<path fill-rule="evenodd" clip-rule="evenodd" d="M17.8651 5.72294C16.5589 12.6047 12.6047 16.5589 5.72294 17.8651C5.65687 17.8753 5.61112 17.9312 5.61112 17.9973C5.61112 18.0684 5.65687 18.1243 5.72294 18.1345C12.6047 19.4407 16.5589 23.3949 17.8651 30.2767C17.8753 30.3427 17.9312 30.3885 17.9973 30.3885C18.0684 30.3885 18.1243 30.3427 18.1345 30.2767C19.4407 23.3949 23.3949 19.4407 30.2767 18.1345C30.3427 18.1243 30.3885 18.0684 30.3885 18.0023C30.3885 17.9312 30.3427 17.8753 30.2767 17.8651C23.3949 16.5589 19.4407 12.6047 18.1345 5.72294C18.1243 5.65687 18.0684 5.61112 18.0023 5.61112C17.9312 5.61112 17.8753 5.65687 17.8651 5.72294ZM12.1473 23.8523C10.3125 22.0175 7.94909 20.2285 5.50439 19.3035C4.11177 18.78 1.94153 18.2971 0.747137 19.4966C-0.452341 20.691 0.0304996 22.8612 0.554001 24.2539C1.47902 26.6986 3.26807 29.0619 5.10287 30.8967C6.93766 32.7315 9.30104 34.5206 11.7508 35.4456C13.1384 35.9691 15.3086 36.4519 16.503 35.2525C17.7025 34.0581 17.2196 31.8878 16.6961 30.5003C15.7711 28.0505 13.9821 25.6871 12.1473 23.8523ZM23.8523 23.8523C22.0175 25.6871 20.2285 28.0505 19.3035 30.5003C18.78 31.8878 18.2971 34.0581 19.4966 35.2525C20.691 36.4519 22.8612 35.9691 24.2539 35.4456C26.6986 34.5206 29.0619 32.7315 30.8967 30.8967C32.7315 29.0619 34.5257 26.6986 35.4456 24.2539C35.9691 22.8612 36.4519 20.691 35.2525 19.4966C34.0581 18.2971 31.8878 18.78 30.5003 19.3035C28.0505 20.2285 25.6871 22.0175 23.8523 23.8523ZM30.8967 5.10287C29.0619 3.26807 26.6986 1.47902 24.2539 0.554001C22.8612 0.0304996 20.691 -0.452341 19.4966 0.747137C18.2971 1.94153 18.78 4.11177 19.3035 5.50439C20.2285 7.94909 22.0175 10.3125 23.8523 12.1473C25.6871 13.9821 28.0505 15.7762 30.5003 16.6961C31.8878 17.2196 34.0581 17.7025 35.2525 16.503C36.4519 15.3086 35.9691 13.1384 35.4456 11.7508C34.5257 9.30104 32.7315 6.93766 30.8967 5.10287ZM5.10287 5.10287C3.26807 6.93766 1.47902 9.30104 0.554001 11.7508C0.0304996 13.1384 -0.452341 15.3086 0.747137 16.503C1.94153 17.7025 4.11177 17.2196 5.50439 16.6961C7.94909 15.7762 10.3125 13.9821 12.1473 12.1473C13.9821 10.3125 15.7711 7.94909 16.6961 5.50439C17.2196 4.11177 17.7025 1.94153 16.503 0.747137C15.3086 -0.452341 13.1384 0.0304996 11.7508 0.554001C9.30104 1.47902 6.93766 3.26807 5.10287 5.10287Z" fill="white"/>
</svg>
