<svg width="95" height="95" viewBox="0 0 95 95" fill="none" xmlns="http://www.w3.org/2000/svg">
<path d="M85.1502 59.0014C79.7601 59.3338 72.6692 64.7211 65.8282 67.819C57.4488 71.6099 44.3988 68.5606 44.3975 68.5606C46.4077 67.6182 54.5871 65.6696 56.2357 64.9415C64.9927 61.0928 64.2542 53.0598 60.0833 53.1275C54.569 53.2201 51.3382 54.5728 40.3429 56.0717C32.0094 57.2044 22.1535 56.7904 17.4253 58.5952C10.7515 61.1452 0 78.2957 0 78.2957L16.6211 94.3976C16.6211 94.3976 26.9086 84.2675 31.9139 84.2675C43.3197 84.2675 43.7826 84.111 54.3769 83.5389C58.877 83.2982 59.8204 83.1132 62.3966 82.24C76.1252 77.6022 90.8678 65.2395 91.1391 63.752C91.7695 60.309 88.0028 58.8243 85.1502 59.0014Z" fill="#7681B0"/>
<path d="M62.2137 34.0806C62.4994 34.1389 62.7903 34.0126 62.9448 33.7655C66.7632 27.6124 72.5289 20.1691 80.0474 15.1106C73.04 21.8401 68.0916 28.9238 65.0919 35.5922C65.0019 35.7925 65.012 36.0226 65.1179 36.2147C65.2248 36.4066 65.4152 36.5374 65.6327 36.5675C66.1224 36.6339 66.6309 36.6682 67.1429 36.6682C71.9449 36.6682 76.728 33.7421 79.8942 31.2878C83.5102 28.4851 86.9828 24.7817 89.1841 21.3792C92.4861 16.2759 94.5508 9.98637 94.9982 3.66787C95.0127 3.46682 94.9392 3.26959 94.7964 3.12631C94.6534 2.9838 94.4554 2.90898 94.2546 2.9245C89.4704 3.26323 77.5994 4.79857 70.6574 11.7271C70.4149 11.946 67.859 14.2977 65.4821 18.0568C62.2243 23.2113 60.9038 28.552 61.6652 33.5036C61.7087 33.7922 61.9274 34.0223 62.2137 34.0806Z" fill="#7681B0"/>
<path d="M43.2279 41.4599C46.2459 43.7991 50.8043 46.5873 55.3811 46.5873C55.8692 46.5873 56.3537 46.5555 56.8195 46.4909C57.0271 46.4624 57.2088 46.3379 57.3101 46.1555C57.4114 45.9727 57.4206 45.7531 57.3356 45.5623C54.4771 39.2071 49.7609 32.456 43.0818 26.0423C50.2475 30.8636 55.743 37.9578 59.3817 43.8215C59.5285 44.0572 59.8069 44.1768 60.0787 44.1213C60.3505 44.0651 60.56 43.8465 60.6022 43.5719C61.3265 38.8534 60.0691 33.7628 56.9638 28.8511C54.6988 25.2679 52.2615 23.0278 52.031 22.8184C45.4157 16.2159 34.1018 14.752 29.5421 14.4296C29.351 14.4146 29.1619 14.4856 29.0262 14.6217C28.8903 14.7576 28.8198 14.9465 28.8336 15.1381C29.2601 21.1596 31.2276 27.1536 34.3744 32.0167C36.4724 35.2597 39.7823 38.789 43.2279 41.4599Z" fill="#7681B0"/>
<path d="M49.75 18.6078C51.7604 20.1653 54.7965 22.0228 57.8448 22.0228C58.1695 22.0228 58.4927 22.0007 58.8035 21.9582C58.9422 21.9394 59.0628 21.8567 59.13 21.7353C59.1977 21.6126 59.204 21.467 59.1465 21.3393C57.2427 17.1058 54.1023 12.61 49.6535 8.33834C54.4257 11.549 58.0858 16.2749 60.5101 20.1798C60.6076 20.3363 60.7933 20.417 60.9743 20.3796C61.1552 20.3424 61.2944 20.1969 61.3227 20.0136C61.8049 16.8707 60.9677 13.4803 58.8997 10.2086C57.391 7.82274 55.7676 6.33015 55.6144 6.19095C51.2077 1.79309 43.6724 0.818385 40.6356 0.60334C40.5076 0.593414 40.3821 0.641259 40.2913 0.731603C40.2009 0.821947 40.1541 0.94792 40.1633 1.07542C40.447 5.08645 41.7577 9.07866 43.8536 12.3176C45.2508 14.4777 47.4557 16.8282 49.75 18.6078Z" fill="#7681B0"/>
</svg>
