<svg width="107" height="107" viewBox="0 0 107 107" fill="none" xmlns="http://www.w3.org/2000/svg">
<path d="M77.9339 92.9947C78.7339 93.1223 79.551 92.9266 80.2064 92.4457C80.8533 91.9776 81.3044 91.2541 81.4235 90.4498L82.1427 85.6707C82.2874 84.7089 82.8875 83.8918 83.7556 83.4535L88.0836 81.2916C88.8156 80.9213 89.3646 80.2873 89.6114 79.517C89.8667 78.7382 89.7859 77.9041 89.4199 77.1806L87.1899 72.8696C86.7516 72.027 86.7516 71.0014 87.1899 70.1503L89.4199 65.8436C89.7859 65.1201 89.8625 64.286 89.6114 63.5072C89.3603 62.7327 88.8113 62.1028 88.0836 61.7326L83.7556 59.5707C82.8875 59.1324 82.2874 58.3153 82.1427 57.3535L81.4235 52.5744C81.3044 51.7701 80.8533 51.0509 80.2064 50.5828C79.551 50.0976 78.7339 49.9019 77.9339 50.0338L73.1463 50.8339C72.1973 50.9913 71.2355 50.6764 70.5546 49.9912L67.1543 46.5356C66.5798 45.9611 65.8095 45.6377 64.9924 45.6377C64.1881 45.6377 63.4008 45.9654 62.8306 46.5356L59.4303 49.9912C58.7536 50.6806 57.7876 50.9913 56.8386 50.8339L52.0595 50.0466C51.2594 49.9146 50.4423 50.1104 49.7827 50.5955C49.1316 51.0637 48.6847 51.7829 48.5656 52.5872L47.8506 57.3663C47.7017 58.3281 47.1059 59.1452 46.2377 59.5835L41.9055 61.7454C41.1863 62.1156 40.6288 62.7454 40.382 63.52C40.1309 64.2988 40.2032 65.1329 40.5692 65.8563L42.7992 70.163C43.2418 71.0099 43.2418 72.0355 42.7992 72.8824L40.5692 77.1934C40.2032 77.9169 40.1309 78.751 40.382 79.5298C40.633 80.3 41.182 80.9341 41.9055 81.3044L46.2377 83.4662C47.1059 83.9046 47.7017 84.7217 47.8506 85.6834L48.5656 90.4625C48.6847 91.2626 49.1316 91.9861 49.7827 92.4584C50.4381 92.9393 51.2552 93.1351 52.0595 93.0074L56.8386 92.2201C57.7876 92.0542 58.7536 92.3733 59.4303 93.0585L62.8306 96.5056C63.4051 97.0929 64.1839 97.4163 64.9924 97.4163C65.8053 97.4163 66.584 97.0929 67.1543 96.5056L70.5546 93.0585C71.2355 92.3733 72.2015 92.0542 73.1463 92.2201L77.9339 92.9947ZM64.9882 89.505C54.8171 89.505 46.5484 81.2363 46.5484 71.0695C46.5484 60.9027 54.8214 52.6255 64.9882 52.6255C75.1592 52.6255 83.4279 60.907 83.4279 71.0695C83.4279 81.232 75.1634 89.505 64.9882 89.505Z" fill="#7681B0"/>
<path d="M64.9924 55.2853C56.3066 55.2853 49.2337 62.3497 49.2337 71.0397C49.2337 79.7298 56.3109 86.7942 64.9924 86.7942C73.6867 86.7942 80.7511 79.7298 80.7511 71.0397C80.7511 62.3497 73.6867 55.2853 64.9924 55.2853Z" fill="#7681B0"/>
<path d="M92.4542 96.446L83.879 87.8666L83.445 90.7604C83.2407 92.0924 82.5002 93.3223 81.4065 94.1096C80.3213 94.9012 78.9638 95.2374 77.6105 95.0161L72.8186 94.233C72.4228 94.2075 72.1845 94.3182 72.01 94.4969L71.1929 95.3182L82.3938 106.515C82.8279 106.949 83.4535 107.102 84.0323 106.928C84.611 106.745 85.0366 106.264 85.1557 105.664L86.1643 100.229L91.6158 99.2079C92.2116 99.0973 92.6925 98.6674 92.867 98.0844C93.0457 97.5014 92.884 96.8673 92.4542 96.446Z" fill="#7681B0"/>
<path d="M57.3195 94.2118L52.3829 95.0161C50.9998 95.2289 49.6593 94.8969 48.5698 94.0969C47.4846 93.3138 46.7442 92.0882 46.5399 90.7477L46.1058 87.8666L37.5349 96.446C37.1093 96.8716 36.9519 97.5014 37.1264 98.0802C37.3094 98.6632 37.7945 99.0845 38.3818 99.2037L43.829 100.221L44.8504 105.664C44.961 106.264 45.3909 106.745 45.9696 106.928C46.5441 107.102 47.174 106.949 47.5995 106.519L58.7962 95.3182L57.9791 94.4926C57.8004 94.3096 57.562 94.2118 57.3195 94.2118Z" fill="#7681B0"/>
<path d="M58.097 27H28.903C27.8509 27 27 27.6713 27 28.4963C26.9969 29.3263 27.8478 30 28.903 30H58.097C59.146 30 60 29.3312 60 28.4988C60 27.6713 59.1429 27 58.097 27Z" fill="#7681B0"/>
<path d="M70.3474 21H29.6526C28.1861 21 27 21.6713 27 22.4963C26.9957 23.3263 28.1818 24 29.6526 24H70.3474C71.8096 24 73 23.3312 73 22.4988C73 21.6713 71.8053 21 70.3474 21Z" fill="#7681B0"/>
<path d="M70.3474 15H29.6526C28.1861 15 27 15.6713 27 16.4963C26.9957 17.3263 28.1818 18 29.6526 18H70.3474C71.8096 18 73 17.3312 73 16.4988C73 15.6713 71.8053 15 70.3474 15Z" fill="#7681B0"/>
<path d="M58.097 33H28.903C27.8509 33 27 33.6713 27 34.4963C26.9969 35.3263 27.8478 36 28.903 36H58.097C59.146 36 60 35.3312 60 34.4988C60 33.6713 59.1429 33 58.097 33Z" fill="#7681B0"/>
<path d="M58.097 39H28.903C27.8509 39 27 39.6713 27 40.4963C26.9969 41.3263 27.8478 42 28.903 42H58.097C59.146 42 60 41.3312 60 40.4988C60 39.6713 59.1429 39 58.097 39Z" fill="#7681B0"/>
<path d="M42.0119 86.0324L40.033 85.0451C39.5266 84.7897 39.067 84.462 38.6414 84.096H21.7379C20.5804 84.096 19.6399 83.1513 19.6399 82.0023V7.67721C19.6399 6.51541 20.5804 5.57491 21.7379 5.57491H77.9892C79.1425 5.57491 80.0872 6.51541 80.0872 7.67721V46.0079C81.0235 46.2292 81.9172 46.6378 82.7002 47.2208C84.2323 48.3145 85.2919 50.0636 85.577 51.9701L85.6622 7.68146C85.6707 3.44708 82.2236 0 77.9892 0H21.7379C17.5035 0 14.0565 3.45134 14.0565 7.68146V82.0108C14.0565 86.2494 17.5078 89.6965 21.7379 89.6965H38.3563L42.0119 86.0324Z" fill="#7681B0"/>
</svg>
