<svg width="1905" height="57" viewBox="0 0 1905 57" fill="none" xmlns="http://www.w3.org/2000/svg">
<path fill-rule="evenodd" clip-rule="evenodd" d="M0 0H1.00025V1.00025H0V0ZM7.99998 0H9.00022V1.00025H7.99998V0ZM16 0H17.0002V1.00025H16V0ZM23.9999 0H25.0002V1.00025H23.9999V0ZM31.9999 0H33.0002V1.00025H31.9999V0ZM39.9999 0H41.0001V1.00025H39.9999V0ZM47.9999 0H49.0001V1.00025H47.9999V0ZM55.9998 0H57.0001V1.00025H55.9998V0ZM63.9998 0H65.0001V1.00025H63.9998V0ZM71.9998 0H73V1.00025H71.9998V0ZM79.9998 0H81V1.00025H79.9998V0ZM87.9998 0H89V1.00025H87.9998V0ZM95.9997 0H97V1.00025H95.9997V0ZM104 0H105V1.00025H104V0ZM112 0H113V1.00025H112V0ZM120 0H121V1.00025H120V0ZM128 0H129V1.00025H128V0ZM136 0H137V1.00025H136V0ZM144 0H145V1.00025H144V0ZM152 0H153V1.00025H152V0ZM160 0H161V1.00025H160V0ZM168 0H169V1.00025H168V0ZM176 0H177V1.00025H176V0ZM184 0H185V1.00025H184V0ZM192 0H193V1.00025H192V0ZM200 0H201V1.00025H200V0ZM208 0H209V1.00025H208V0ZM216 0H217V1.00025H216V0ZM224 0H225V1.00025H224V0ZM232 0H233V1.00025H232V0ZM240 0H241V1.00025H240V0ZM248 0H249.001V1.00025H248V0ZM256 0H257.001V1.00025H256V0ZM264 0H265.001V1.00025H264V0ZM272 0H273V1.00025H272V0ZM280 0H281V1.00025H280V0ZM288 0H289V1.00025H288V0ZM296 0H297V1.00025H296V0ZM304 0H305V1.00025H304V0ZM312 0H313V1.00025H312V0ZM320 0H321V1.00025H320V0ZM328 0H329V1.00025H328V0ZM336 0H337V1.00025H336V0ZM344 0H345V1.00025H344V0ZM352 0H353V1.00025H352V0ZM360 0H361V1.00025H360V0ZM368 0H369V1.00025H368V0ZM376 0H377V1.00025H376V0ZM384 0H385V1.00025H384V0ZM392 0H393V1.00025H392V0ZM400 0H401V1.00025H400V0ZM408 0H409V1.00025H408V0ZM416 0H417V1.00025H416V0ZM424 0H425V1.00025H424V0ZM432 0H433V1.00025H432V0ZM440 0H441V1.00025H440V0ZM448 0H449V1.00025H448V0ZM456 0H457V1.00025H456V0ZM464 0H465V1.00025H464V0ZM472 0H473V1.00025H472V0ZM480 0H481V1.00025H480V0ZM488 0H489V1.00025H488V0ZM496 0H497V1.00025H496V0ZM504 0H505V1.00025H504V0ZM512 0H513V1.00025H512V0ZM520 0H521V1.00025H520V0ZM528 0H529V1.00025H528V0ZM536 0H537V1.00025H536V0ZM544 0H545V1.00025H544V0ZM552 0H553V1.00025H552V0ZM560 0H561V1.00025H560V0ZM568 0H569V1.00025H568V0ZM576 0H577V1.00025H576V0ZM584 0H585V1.00025H584V0ZM592 0H593V1.00025H592V0ZM600 0H601V1.00025H600V0ZM608 0H609V1.00025H608V0ZM616 0H617V1.00025H616V0ZM624 0H625.001V1.00025H624V0ZM632 0H633V1.00025H632V0ZM640 0H641V1.00025H640V0ZM648 0H649V1.00025H648V0ZM656 0H657V1.00025H656V0ZM664 0H665V1.00025H664V0ZM672 0H673V1.00025H672V0ZM680 0H681V1.00025H680V0ZM688 0H689V1.00025H688V0ZM696 0H697V1.00025H696V0ZM704 0H705V1.00025H704V0ZM712 0H713V1.00025H712V0ZM720 0H721V1.00025H720V0ZM728 0H729V1.00025H728V0ZM736 0H737V1.00025H736V0ZM744 0H745V1.00025H744V0ZM752 0H753V1.00025H752V0ZM760 0H761V1.00025H760V0ZM768 0H769V1.00025H768V0ZM776 0H777V1.00025H776V0ZM784 0H785V1.00025H784V0ZM792 0H793V1.00025H792V0ZM800 0H801V1.00025H800V0ZM808 0H809V1.00025H808V0ZM816 0H817V1.00025H816V0ZM824 0H825V1.00025H824V0ZM832 0H833V1.00025H832V0ZM840 0H841V1.00025H840V0ZM848 0H849V1.00025H848V0ZM856 0H857V1.00025H856V0ZM864 0H865V1.00025H864V0ZM872 0H873V1.00025H872V0ZM880 0H881V1.00025H880V0ZM888 0H889V1.00025H888V0ZM896 0H897V1.00025H896V0ZM904 0H905V1.00025H904V0ZM912 0H913V1.00025H912V0ZM920 0H921V1.00025H920V0ZM928 0H929V1.00025H928V0ZM936 0H937V1.00025H936V0ZM944 0H945V1.00025H944V0ZM952 0H953V1.00025H952V0ZM960 0H961V1.00025H960V0ZM968 0H969V1.00025H968V0ZM976 0H977V1.00025H976V0ZM984 0H985.001V1.00025H984V0ZM992 0H993.001V1.00025H992V0ZM1000 0H1001V1.00025H1000V0ZM1008 0H1009V1.00025H1008V0ZM1016 0H1017V1.00025H1016V0ZM1024 0H1025V1.00025H1024V0ZM1032 0H1033V1.00025H1032V0ZM1040 0H1041V1.00025H1040V0ZM1048 0H1049V1.00025H1048V0ZM1056 0H1057V1.00025H1056V0ZM1064 0H1065V1.00025H1064V0ZM1072 0H1073V1.00025H1072V0ZM1080 0H1081V1.00025H1080V0ZM1088 0H1089V1.00025H1088V0ZM1096 0H1097V1.00025H1096V0ZM1104 0H1105V1.00025H1104V0ZM1112 0H1113V1.00025H1112V0ZM1120 0H1121V1.00025H1120V0ZM1128 0H1129V1.00025H1128V0ZM1136 0H1137V1.00025H1136V0ZM1144 0H1145V1.00025H1144V0ZM1152 0H1153V1.00025H1152V0ZM1160 0H1161V1.00025H1160V0ZM1168 0H1169V1.00025H1168V0ZM1176 0H1177V1.00025H1176V0ZM1184 0H1185V1.00025H1184V0ZM1192 0H1193V1.00025H1192V0ZM1200 0H1201V1.00025H1200V0ZM1208 0H1209V1.00025H1208V0ZM1216 0H1217V1.00025H1216V0ZM1224 0H1225V1.00025H1224V0ZM1232 0H1233V1.00025H1232V0ZM1240 0H1241V1.00025H1240V0ZM1248 0H1249V1.00025H1248V0ZM1256 0H1257V1.00025H1256V0ZM1264 0H1265V1.00025H1264V0ZM1272 0H1273V1.00025H1272V0ZM1280 0H1281V1.00025H1280V0ZM1288 0H1289V1.00025H1288V0ZM1296 0H1297V1.00025H1296V0ZM1304 0H1305V1.00025H1304V0ZM1312 0H1313V1.00025H1312V0ZM1320 0H1321V1.00025H1320V0ZM1328 0H1329V1.00025H1328V0ZM1336 0H1337V1.00025H1336V0ZM1344 0H1345V1.00025H1344V0ZM1352 0H1353V1.00025H1352V0ZM1360 0H1361V1.00025H1360V0ZM1368 0H1369V1.00025H1368V0ZM1376 0H1377V1.00025H1376V0ZM1384 0H1385V1.00025H1384V0ZM1392 0H1393V1.00025H1392V0ZM1400 0H1401V1.00025H1400V0ZM1408 0H1409V1.00025H1408V0ZM1416 0H1417V1.00025H1416V0ZM1424 0H1425V1.00025H1424V0ZM1432 0H1433V1.00025H1432V0ZM1440 0H1441V1.00025H1440V0ZM1448 0H1449V1.00025H1448V0ZM1456 0H1457V1.00025H1456V0ZM1464 0H1465V1.00025H1464V0ZM1472 0H1473V1.00025H1472V0ZM1480 0H1481V1.00025H1480V0ZM1488 0H1489V1.00025H1488V0ZM1496 0H1497V1.00025H1496V0ZM1504 0H1505V1.00025H1504V0ZM1512 0H1513V1.00025H1512V0ZM1520 0H1521V1.00025H1520V0ZM1528 0H1529V1.00025H1528V0ZM1536 0H1537V1.00025H1536V0ZM1544 0H1545V1.00025H1544V0ZM1552 0H1553V1.00025H1552V0ZM1560 0H1561V1.00025H1560V0ZM1568 0H1569V1.00025H1568V0ZM1576 0H1577V1.00025H1576V0ZM1584 0H1585V1.00025H1584V0ZM1592 0H1593V1.00025H1592V0ZM1600 0H1601V1.00025H1600V0ZM1608 0H1609V1.00025H1608V0ZM1616 0H1617V1.00025H1616V0ZM1624 0H1625V1.00025H1624V0ZM1632 0H1633V1.00025H1632V0ZM1640 0H1641V1.00025H1640V0ZM1648 0H1649V1.00025H1648V0ZM1656 0H1657V1.00025H1656V0ZM1664 0H1665V1.00025H1664V0ZM1672 0H1673V1.00025H1672V0ZM1680 0H1681V1.00025H1680V0ZM1688 0H1689V1.00025H1688V0ZM1696 0H1697V1.00025H1696V0ZM1704 0H1705V1.00025H1704V0ZM1712 0H1713V1.00025H1712V0ZM1720 0H1721V1.00025H1720V0ZM1728 0H1729V1.00025H1728V0ZM1736 0H1737V1.00025H1736V0ZM1744 0H1745V1.00025H1744V0ZM1752 0H1753V1.00025H1752V0ZM1760 0H1761V1.00025H1760V0ZM1768 0H1769V1.00025H1768V0ZM1776 0H1777V1.00025H1776V0ZM1784 0H1785V1.00025H1784V0ZM1792 0H1793V1.00025H1792V0ZM1800 0H1801V1.00025H1800V0ZM1808 0H1809V1.00025H1808V0ZM1816 0H1817V1.00025H1816V0ZM1824 0H1825V1.00025H1824V0ZM1832 0H1833V1.00025H1832V0ZM1840 0H1841V1.00025H1840V0ZM1848 0H1849V1.00025H1848V0ZM1856 0H1857V1.00025H1856V0ZM1864 0H1865V1.00025H1864V0ZM1872 0H1873V1.00025H1872V0ZM1880 0H1881V1.00025H1880V0ZM1888 0H1889V1.00025H1888V0ZM1896 0H1897V1.00025H1896V0ZM1904 0H1905V1.00025H1904V0ZM0 7.99998H1.00025V9.00022H0V7.99998ZM7.99998 7.99998H9.00022V9.00022H7.99998V7.99998ZM16 7.99998H17.0002V9.00022H16V7.99998ZM23.9999 7.99998H25.0002V9.00022H23.9999V7.99998ZM31.9999 7.99998H33.0002V9.00022H31.9999V7.99998ZM39.9999 7.99998H41.0001V9.00022H39.9999V7.99998ZM47.9999 7.99998H49.0001V9.00022H47.9999V7.99998ZM55.9998 7.99998H57.0001V9.00022H55.9998V7.99998ZM63.9998 7.99998H65.0001V9.00022H63.9998V7.99998ZM71.9998 7.99998H73V9.00022H71.9998V7.99998ZM79.9998 7.99998H81V9.00022H79.9998V7.99998ZM87.9998 7.99998H89V9.00022H87.9998V7.99998ZM95.9997 7.99998H97V9.00022H95.9997V7.99998ZM104 7.99998H105V9.00022H104V7.99998ZM112 7.99998H113V9.00022H112V7.99998ZM120 7.99998H121V9.00022H120V7.99998ZM128 7.99998H129V9.00022H128V7.99998ZM136 7.99998H137V9.00022H136V7.99998ZM144 7.99998H145V9.00022H144V7.99998ZM152 7.99998H153V9.00022H152V7.99998ZM160 7.99998H161V9.00022H160V7.99998ZM168 7.99998H169V9.00022H168V7.99998ZM176 7.99998H177V9.00022H176V7.99998ZM184 7.99998H185V9.00022H184V7.99998ZM192 7.99998H193V9.00022H192V7.99998ZM200 7.99998H201V9.00022H200V7.99998ZM208 7.99998H209V9.00022H208V7.99998ZM216 7.99998H217V9.00022H216V7.99998ZM224 7.99998H225V9.00022H224V7.99998ZM232 7.99998H233V9.00022H232V7.99998ZM240 7.99998H241V9.00022H240V7.99998ZM248 7.99998H249.001V9.00022H248V7.99998ZM256 7.99998H257.001V9.00022H256V7.99998ZM264 7.99998H265.001V9.00022H264V7.99998ZM272 7.99998H273V9.00022H272V7.99998ZM280 7.99998H281V9.00022H280V7.99998ZM288 7.99998H289V9.00022H288V7.99998ZM296 7.99998H297V9.00022H296V7.99998ZM304 7.99998H305V9.00022H304V7.99998ZM312 7.99998H313V9.00022H312V7.99998ZM320 7.99998H321V9.00022H320V7.99998ZM328 7.99998H329V9.00022H328V7.99998ZM336 7.99998H337V9.00022H336V7.99998ZM344 7.99998H345V9.00022H344V7.99998ZM352 7.99998H353V9.00022H352V7.99998ZM360 7.99998H361V9.00022H360V7.99998ZM368 7.99998H369V9.00022H368V7.99998ZM376 7.99998H377V9.00022H376V7.99998ZM384 7.99998H385V9.00022H384V7.99998ZM392 7.99998H393V9.00022H392V7.99998ZM400 7.99998H401V9.00022H400V7.99998ZM408 7.99998H409V9.00022H408V7.99998ZM416 7.99998H417V9.00022H416V7.99998ZM424 7.99998H425V9.00022H424V7.99998ZM432 7.99998H433V9.00022H432V7.99998ZM440 7.99998H441V9.00022H440V7.99998ZM448 7.99998H449V9.00022H448V7.99998ZM456 7.99998H457V9.00022H456V7.99998ZM464 7.99998H465V9.00022H464V7.99998ZM472 7.99998H473V9.00022H472V7.99998ZM480 7.99998H481V9.00022H480V7.99998ZM488 7.99998H489V9.00022H488V7.99998ZM496 7.99998H497V9.00022H496V7.99998ZM504 7.99998H505V9.00022H504V7.99998ZM512 7.99998H513V9.00022H512V7.99998ZM520 7.99998H521V9.00022H520V7.99998ZM528 7.99998H529V9.00022H528V7.99998ZM536 7.99998H537V9.00022H536V7.99998ZM544 7.99998H545V9.00022H544V7.99998ZM552 7.99998H553V9.00022H552V7.99998ZM560 7.99998H561V9.00022H560V7.99998ZM568 7.99998H569V9.00022H568V7.99998ZM576 7.99998H577V9.00022H576V7.99998ZM584 7.99998H585V9.00022H584V7.99998ZM592 7.99998H593V9.00022H592V7.99998ZM600 7.99998H601V9.00022H600V7.99998ZM608 7.99998H609V9.00022H608V7.99998ZM616 7.99998H617V9.00022H616V7.99998ZM624 7.99998H625.001V9.00022H624V7.99998ZM632 7.99998H633V9.00022H632V7.99998ZM640 7.99998H641V9.00022H640V7.99998ZM648 7.99998H649V9.00022H648V7.99998ZM656 7.99998H657V9.00022H656V7.99998ZM664 7.99998H665V9.00022H664V7.99998ZM672 7.99998H673V9.00022H672V7.99998ZM680 7.99998H681V9.00022H680V7.99998ZM688 7.99998H689V9.00022H688V7.99998ZM696 7.99998H697V9.00022H696V7.99998ZM704 7.99998H705V9.00022H704V7.99998ZM712 7.99998H713V9.00022H712V7.99998ZM720 7.99998H721V9.00022H720V7.99998ZM728 7.99998H729V9.00022H728V7.99998ZM736 7.99998H737V9.00022H736V7.99998ZM744 7.99998H745V9.00022H744V7.99998ZM752 7.99998H753V9.00022H752V7.99998ZM760 7.99998H761V9.00022H760V7.99998ZM768 7.99998H769V9.00022H768V7.99998ZM776 7.99998H777V9.00022H776V7.99998ZM784 7.99998H785V9.00022H784V7.99998ZM792 7.99998H793V9.00022H792V7.99998ZM800 7.99998H801V9.00022H800V7.99998ZM808 7.99998H809V9.00022H808V7.99998ZM816 7.99998H817V9.00022H816V7.99998ZM824 7.99998H825V9.00022H824V7.99998ZM832 7.99998H833V9.00022H832V7.99998ZM840 7.99998H841V9.00022H840V7.99998ZM848 7.99998H849V9.00022H848V7.99998ZM856 7.99998H857V9.00022H856V7.99998ZM864 7.99998H865V9.00022H864V7.99998ZM872 7.99998H873V9.00022H872V7.99998ZM880 7.99998H881V9.00022H880V7.99998ZM888 7.99998H889V9.00022H888V7.99998ZM896 7.99998H897V9.00022H896V7.99998ZM904 7.99998H905V9.00022H904V7.99998ZM912 7.99998H913V9.00022H912V7.99998ZM920 7.99998H921V9.00022H920V7.99998ZM928 7.99998H929V9.00022H928V7.99998ZM936 7.99998H937V9.00022H936V7.99998ZM944 7.99998H945V9.00022H944V7.99998ZM952 7.99998H953V9.00022H952V7.99998ZM960 7.99998H961V9.00022H960V7.99998ZM968 7.99998H969V9.00022H968V7.99998ZM976 7.99998H977V9.00022H976V7.99998ZM984 7.99998H985.001V9.00022H984V7.99998ZM992 7.99998H993.001V9.00022H992V7.99998ZM1000 7.99998H1001V9.00022H1000V7.99998ZM1008 7.99998H1009V9.00022H1008V7.99998ZM1016 7.99998H1017V9.00022H1016V7.99998ZM1024 7.99998H1025V9.00022H1024V7.99998ZM1032 7.99998H1033V9.00022H1032V7.99998ZM1040 7.99998H1041V9.00022H1040V7.99998ZM1048 7.99998H1049V9.00022H1048V7.99998ZM1056 7.99998H1057V9.00022H1056V7.99998ZM1064 7.99998H1065V9.00022H1064V7.99998ZM1072 7.99998H1073V9.00022H1072V7.99998ZM1080 7.99998H1081V9.00022H1080V7.99998ZM1088 7.99998H1089V9.00022H1088V7.99998ZM1096 7.99998H1097V9.00022H1096V7.99998ZM1104 7.99998H1105V9.00022H1104V7.99998ZM1112 7.99998H1113V9.00022H1112V7.99998ZM1120 7.99998H1121V9.00022H1120V7.99998ZM1128 7.99998H1129V9.00022H1128V7.99998ZM1136 7.99998H1137V9.00022H1136V7.99998ZM1144 7.99998H1145V9.00022H1144V7.99998ZM1152 7.99998H1153V9.00022H1152V7.99998ZM1160 7.99998H1161V9.00022H1160V7.99998ZM1168 7.99998H1169V9.00022H1168V7.99998ZM1176 7.99998H1177V9.00022H1176V7.99998ZM1184 7.99998H1185V9.00022H1184V7.99998ZM1192 7.99998H1193V9.00022H1192V7.99998ZM1200 7.99998H1201V9.00022H1200V7.99998ZM1208 7.99998H1209V9.00022H1208V7.99998ZM1216 7.99998H1217V9.00022H1216V7.99998ZM1224 7.99998H1225V9.00022H1224V7.99998ZM1232 7.99998H1233V9.00022H1232V7.99998ZM1240 7.99998H1241V9.00022H1240V7.99998ZM1248 7.99998H1249V9.00022H1248V7.99998ZM1256 7.99998H1257V9.00022H1256V7.99998ZM1264 7.99998H1265V9.00022H1264V7.99998ZM1272 7.99998H1273V9.00022H1272V7.99998ZM1280 7.99998H1281V9.00022H1280V7.99998ZM1288 7.99998H1289V9.00022H1288V7.99998ZM1296 7.99998H1297V9.00022H1296V7.99998ZM1304 7.99998H1305V9.00022H1304V7.99998ZM1312 7.99998H1313V9.00022H1312V7.99998ZM1320 7.99998H1321V9.00022H1320V7.99998ZM1328 7.99998H1329V9.00022H1328V7.99998ZM1336 7.99998H1337V9.00022H1336V7.99998ZM1344 7.99998H1345V9.00022H1344V7.99998ZM1352 7.99998H1353V9.00022H1352V7.99998ZM1360 7.99998H1361V9.00022H1360V7.99998ZM1368 7.99998H1369V9.00022H1368V7.99998ZM1376 7.99998H1377V9.00022H1376V7.99998ZM1384 7.99998H1385V9.00022H1384V7.99998ZM1392 7.99998H1393V9.00022H1392V7.99998ZM1400 7.99998H1401V9.00022H1400V7.99998ZM1408 7.99998H1409V9.00022H1408V7.99998ZM1416 7.99998H1417V9.00022H1416V7.99998ZM1424 7.99998H1425V9.00022H1424V7.99998ZM1432 7.99998H1433V9.00022H1432V7.99998ZM1440 7.99998H1441V9.00022H1440V7.99998ZM1448 7.99998H1449V9.00022H1448V7.99998ZM1456 7.99998H1457V9.00022H1456V7.99998ZM1464 7.99998H1465V9.00022H1464V7.99998ZM1472 7.99998H1473V9.00022H1472V7.99998ZM1480 7.99998H1481V9.00022H1480V7.99998ZM1488 7.99998H1489V9.00022H1488V7.99998ZM1496 7.99998H1497V9.00022H1496V7.99998ZM1504 7.99998H1505V9.00022H1504V7.99998ZM1512 7.99998H1513V9.00022H1512V7.99998ZM1520 7.99998H1521V9.00022H1520V7.99998ZM1528 7.99998H1529V9.00022H1528V7.99998ZM1536 7.99998H1537V9.00022H1536V7.99998ZM1544 7.99998H1545V9.00022H1544V7.99998ZM1552 7.99998H1553V9.00022H1552V7.99998ZM1560 7.99998H1561V9.00022H1560V7.99998ZM1568 7.99998H1569V9.00022H1568V7.99998ZM1576 7.99998H1577V9.00022H1576V7.99998ZM1584 7.99998H1585V9.00022H1584V7.99998ZM1592 7.99998H1593V9.00022H1592V7.99998ZM1600 7.99998H1601V9.00022H1600V7.99998ZM1608 7.99998H1609V9.00022H1608V7.99998ZM1616 7.99998H1617V9.00022H1616V7.99998ZM1624 7.99998H1625V9.00022H1624V7.99998ZM1632 7.99998H1633V9.00022H1632V7.99998ZM1640 7.99998H1641V9.00022H1640V7.99998ZM1648 7.99998H1649V9.00022H1648V7.99998ZM1656 7.99998H1657V9.00022H1656V7.99998ZM1664 7.99998H1665V9.00022H1664V7.99998ZM1672 7.99998H1673V9.00022H1672V7.99998ZM1680 7.99998H1681V9.00022H1680V7.99998ZM1688 7.99998H1689V9.00022H1688V7.99998ZM1696 7.99998H1697V9.00022H1696V7.99998ZM1704 7.99998H1705V9.00022H1704V7.99998ZM1712 7.99998H1713V9.00022H1712V7.99998ZM1720 7.99998H1721V9.00022H1720V7.99998ZM1728 7.99998H1729V9.00022H1728V7.99998ZM1736 7.99998H1737V9.00022H1736V7.99998ZM1744 7.99998H1745V9.00022H1744V7.99998ZM1752 7.99998H1753V9.00022H1752V7.99998ZM1760 7.99998H1761V9.00022H1760V7.99998ZM1768 7.99998H1769V9.00022H1768V7.99998ZM1776 7.99998H1777V9.00022H1776V7.99998ZM1784 7.99998H1785V9.00022H1784V7.99998ZM1792 7.99998H1793V9.00022H1792V7.99998ZM1800 7.99998H1801V9.00022H1800V7.99998ZM1808 7.99998H1809V9.00022H1808V7.99998ZM1816 7.99998H1817V9.00022H1816V7.99998ZM1824 7.99998H1825V9.00022H1824V7.99998ZM1832 7.99998H1833V9.00022H1832V7.99998ZM1840 7.99998H1841V9.00022H1840V7.99998ZM1848 7.99998H1849V9.00022H1848V7.99998ZM1856 7.99998H1857V9.00022H1856V7.99998ZM1864 7.99998H1865V9.00022H1864V7.99998ZM1872 7.99998H1873V9.00022H1872V7.99998ZM1880 7.99998H1881V9.00022H1880V7.99998ZM1888 7.99998H1889V9.00022H1888V7.99998ZM1896 7.99998H1897V9.00022H1896V7.99998ZM1904 7.99998H1905V9.00022H1904V7.99998ZM0 16H1.00025V17.0002H0V16ZM7.99998 16H9.00022V17.0002H7.99998V16ZM16 16H17.0002V17.0002H16V16ZM23.9999 16H25.0002V17.0002H23.9999V16ZM31.9999 16H33.0002V17.0002H31.9999V16ZM39.9999 16H41.0001V17.0002H39.9999V16ZM47.9999 16H49.0001V17.0002H47.9999V16ZM55.9998 16H57.0001V17.0002H55.9998V16ZM63.9998 16H65.0001V17.0002H63.9998V16ZM71.9998 16H73V17.0002H71.9998V16ZM79.9998 16H81V17.0002H79.9998V16ZM87.9998 16H89V17.0002H87.9998V16ZM95.9997 16H97V17.0002H95.9997V16ZM104 16H105V17.0002H104V16ZM112 16H113V17.0002H112V16ZM120 16H121V17.0002H120V16ZM128 16H129V17.0002H128V16ZM136 16H137V17.0002H136V16ZM144 16H145V17.0002H144V16ZM152 16H153V17.0002H152V16ZM160 16H161V17.0002H160V16ZM168 16H169V17.0002H168V16ZM176 16H177V17.0002H176V16ZM184 16H185V17.0002H184V16ZM192 16H193V17.0002H192V16ZM200 16H201V17.0002H200V16ZM208 16H209V17.0002H208V16ZM216 16H217V17.0002H216V16ZM224 16H225V17.0002H224V16ZM232 16H233V17.0002H232V16ZM240 16H241V17.0002H240V16ZM248 16H249.001V17.0002H248V16ZM256 16H257.001V17.0002H256V16ZM264 16H265.001V17.0002H264V16ZM272 16H273V17.0002H272V16ZM280 16H281V17.0002H280V16ZM288 16H289V17.0002H288V16ZM296 16H297V17.0002H296V16ZM304 16H305V17.0002H304V16ZM312 16H313V17.0002H312V16ZM320 16H321V17.0002H320V16ZM328 16H329V17.0002H328V16ZM336 16H337V17.0002H336V16ZM344 16H345V17.0002H344V16ZM352 16H353V17.0002H352V16ZM360 16H361V17.0002H360V16ZM368 16H369V17.0002H368V16ZM376 16H377V17.0002H376V16ZM384 16H385V17.0002H384V16ZM392 16H393V17.0002H392V16ZM400 16H401V17.0002H400V16ZM408 16H409V17.0002H408V16ZM416 16H417V17.0002H416V16ZM424 16H425V17.0002H424V16ZM432 16H433V17.0002H432V16ZM440 16H441V17.0002H440V16ZM448 16H449V17.0002H448V16ZM456 16H457V17.0002H456V16ZM464 16H465V17.0002H464V16ZM472 16H473V17.0002H472V16ZM480 16H481V17.0002H480V16ZM488 16H489V17.0002H488V16ZM496 16H497V17.0002H496V16ZM504 16H505V17.0002H504V16ZM512 16H513V17.0002H512V16ZM520 16H521V17.0002H520V16ZM528 16H529V17.0002H528V16ZM536 16H537V17.0002H536V16ZM544 16H545V17.0002H544V16ZM552 16H553V17.0002H552V16ZM560 16H561V17.0002H560V16ZM568 16H569V17.0002H568V16ZM576 16H577V17.0002H576V16ZM584 16H585V17.0002H584V16ZM592 16H593V17.0002H592V16ZM600 16H601V17.0002H600V16ZM608 16H609V17.0002H608V16ZM616 16H617V17.0002H616V16ZM624 16H625.001V17.0002H624V16ZM632 16H633V17.0002H632V16ZM640 16H641V17.0002H640V16ZM648 16H649V17.0002H648V16ZM656 16H657V17.0002H656V16ZM664 16H665V17.0002H664V16ZM672 16H673V17.0002H672V16ZM680 16H681V17.0002H680V16ZM688 16H689V17.0002H688V16ZM696 16H697V17.0002H696V16ZM704 16H705V17.0002H704V16ZM712 16H713V17.0002H712V16ZM720 16H721V17.0002H720V16ZM728 16H729V17.0002H728V16ZM736 16H737V17.0002H736V16ZM744 16H745V17.0002H744V16ZM752 16H753V17.0002H752V16ZM760 16H761V17.0002H760V16ZM768 16H769V17.0002H768V16ZM776 16H777V17.0002H776V16ZM784 16H785V17.0002H784V16ZM792 16H793V17.0002H792V16ZM800 16H801V17.0002H800V16ZM808 16H809V17.0002H808V16ZM816 16H817V17.0002H816V16ZM824 16H825V17.0002H824V16ZM832 16H833V17.0002H832V16ZM840 16H841V17.0002H840V16ZM848 16H849V17.0002H848V16ZM856 16H857V17.0002H856V16ZM864 16H865V17.0002H864V16ZM872 16H873V17.0002H872V16ZM880 16H881V17.0002H880V16ZM888 16H889V17.0002H888V16ZM896 16H897V17.0002H896V16ZM904 16H905V17.0002H904V16ZM912 16H913V17.0002H912V16ZM920 16H921V17.0002H920V16ZM928 16H929V17.0002H928V16ZM936 16H937V17.0002H936V16ZM944 16H945V17.0002H944V16ZM952 16H953V17.0002H952V16ZM960 16H961V17.0002H960V16ZM968 16H969V17.0002H968V16ZM976 16H977V17.0002H976V16ZM984 16H985.001V17.0002H984V16ZM992 16H993.001V17.0002H992V16ZM1000 16H1001V17.0002H1000V16ZM1008 16H1009V17.0002H1008V16ZM1016 16H1017V17.0002H1016V16ZM1024 16H1025V17.0002H1024V16ZM1032 16H1033V17.0002H1032V16ZM1040 16H1041V17.0002H1040V16ZM1048 16H1049V17.0002H1048V16ZM1056 16H1057V17.0002H1056V16ZM1064 16H1065V17.0002H1064V16ZM1072 16H1073V17.0002H1072V16ZM1080 16H1081V17.0002H1080V16ZM1088 16H1089V17.0002H1088V16ZM1096 16H1097V17.0002H1096V16ZM1104 16H1105V17.0002H1104V16ZM1112 16H1113V17.0002H1112V16ZM1120 16H1121V17.0002H1120V16ZM1128 16H1129V17.0002H1128V16ZM1136 16H1137V17.0002H1136V16ZM1144 16H1145V17.0002H1144V16ZM1152 16H1153V17.0002H1152V16ZM1160 16H1161V17.0002H1160V16ZM1168 16H1169V17.0002H1168V16ZM1176 16H1177V17.0002H1176V16ZM1184 16H1185V17.0002H1184V16ZM1192 16H1193V17.0002H1192V16ZM1200 16H1201V17.0002H1200V16ZM1208 16H1209V17.0002H1208V16ZM1216 16H1217V17.0002H1216V16ZM1224 16H1225V17.0002H1224V16ZM1232 16H1233V17.0002H1232V16ZM1240 16H1241V17.0002H1240V16ZM1248 16H1249V17.0002H1248V16ZM1256 16H1257V17.0002H1256V16ZM1264 16H1265V17.0002H1264V16ZM1272 16H1273V17.0002H1272V16ZM1280 16H1281V17.0002H1280V16ZM1288 16H1289V17.0002H1288V16ZM1296 16H1297V17.0002H1296V16ZM1304 16H1305V17.0002H1304V16ZM1312 16H1313V17.0002H1312V16ZM1320 16H1321V17.0002H1320V16ZM1328 16H1329V17.0002H1328V16ZM1336 16H1337V17.0002H1336V16ZM1344 16H1345V17.0002H1344V16ZM1352 16H1353V17.0002H1352V16ZM1360 16H1361V17.0002H1360V16ZM1368 16H1369V17.0002H1368V16ZM1376 16H1377V17.0002H1376V16ZM1384 16H1385V17.0002H1384V16ZM1392 16H1393V17.0002H1392V16ZM1400 16H1401V17.0002H1400V16ZM1408 16H1409V17.0002H1408V16ZM1416 16H1417V17.0002H1416V16ZM1424 16H1425V17.0002H1424V16ZM1432 16H1433V17.0002H1432V16ZM1440 16H1441V17.0002H1440V16ZM1448 16H1449V17.0002H1448V16ZM1456 16H1457V17.0002H1456V16ZM1464 16H1465V17.0002H1464V16ZM1472 16H1473V17.0002H1472V16ZM1480 16H1481V17.0002H1480V16ZM1488 16H1489V17.0002H1488V16ZM1496 16H1497V17.0002H1496V16ZM1504 16H1505V17.0002H1504V16ZM1512 16H1513V17.0002H1512V16ZM1520 16H1521V17.0002H1520V16ZM1528 16H1529V17.0002H1528V16ZM1536 16H1537V17.0002H1536V16ZM1544 16H1545V17.0002H1544V16ZM1552 16H1553V17.0002H1552V16ZM1560 16H1561V17.0002H1560V16ZM1568 16H1569V17.0002H1568V16ZM1576 16H1577V17.0002H1576V16ZM1584 16H1585V17.0002H1584V16ZM1592 16H1593V17.0002H1592V16ZM1600 16H1601V17.0002H1600V16ZM1608 16H1609V17.0002H1608V16ZM1616 16H1617V17.0002H1616V16ZM1624 16H1625V17.0002H1624V16ZM1632 16H1633V17.0002H1632V16ZM1640 16H1641V17.0002H1640V16ZM1648 16H1649V17.0002H1648V16ZM1656 16H1657V17.0002H1656V16ZM1664 16H1665V17.0002H1664V16ZM1672 16H1673V17.0002H1672V16ZM1680 16H1681V17.0002H1680V16ZM1688 16H1689V17.0002H1688V16ZM1696 16H1697V17.0002H1696V16ZM1704 16H1705V17.0002H1704V16ZM1712 16H1713V17.0002H1712V16ZM1720 16H1721V17.0002H1720V16ZM1728 16H1729V17.0002H1728V16ZM1736 16H1737V17.0002H1736V16ZM1744 16H1745V17.0002H1744V16ZM1752 16H1753V17.0002H1752V16ZM1760 16H1761V17.0002H1760V16ZM1768 16H1769V17.0002H1768V16ZM1776 16H1777V17.0002H1776V16ZM1784 16H1785V17.0002H1784V16ZM1792 16H1793V17.0002H1792V16ZM1800 16H1801V17.0002H1800V16ZM1808 16H1809V17.0002H1808V16ZM1816 16H1817V17.0002H1816V16ZM1824 16H1825V17.0002H1824V16ZM1832 16H1833V17.0002H1832V16ZM1840 16H1841V17.0002H1840V16ZM1848 16H1849V17.0002H1848V16ZM1856 16H1857V17.0002H1856V16ZM1864 16H1865V17.0002H1864V16ZM1872 16H1873V17.0002H1872V16ZM1880 16H1881V17.0002H1880V16ZM1888 16H1889V17.0002H1888V16ZM1896 16H1897V17.0002H1896V16ZM1904 16H1905V17.0002H1904V16ZM0 23.9999H1.00025V25.0002H0V23.9999ZM7.99998 23.9999H9.00022V25.0002H7.99998V23.9999ZM16 23.9999H17.0002V25.0002H16V23.9999ZM23.9999 23.9999H25.0002V25.0002H23.9999V23.9999ZM31.9999 23.9999H33.0002V25.0002H31.9999V23.9999ZM39.9999 23.9999H41.0001V25.0002H39.9999V23.9999ZM47.9999 23.9999H49.0001V25.0002H47.9999V23.9999ZM55.9998 23.9999H57.0001V25.0002H55.9998V23.9999ZM63.9998 23.9999H65.0001V25.0002H63.9998V23.9999ZM71.9998 23.9999H73V25.0002H71.9998V23.9999ZM79.9998 23.9999H81V25.0002H79.9998V23.9999ZM87.9998 23.9999H89V25.0002H87.9998V23.9999ZM95.9997 23.9999H97V25.0002H95.9997V23.9999ZM104 23.9999H105V25.0002H104V23.9999ZM112 23.9999H113V25.0002H112V23.9999ZM120 23.9999H121V25.0002H120V23.9999ZM128 23.9999H129V25.0002H128V23.9999ZM136 23.9999H137V25.0002H136V23.9999ZM144 23.9999H145V25.0002H144V23.9999ZM152 23.9999H153V25.0002H152V23.9999ZM160 23.9999H161V25.0002H160V23.9999ZM168 23.9999H169V25.0002H168V23.9999ZM176 23.9999H177V25.0002H176V23.9999ZM184 23.9999H185V25.0002H184V23.9999ZM192 23.9999H193V25.0002H192V23.9999ZM200 23.9999H201V25.0002H200V23.9999ZM208 23.9999H209V25.0002H208V23.9999ZM216 23.9999H217V25.0002H216V23.9999ZM224 23.9999H225V25.0002H224V23.9999ZM232 23.9999H233V25.0002H232V23.9999ZM240 23.9999H241V25.0002H240V23.9999ZM248 23.9999H249.001V25.0002H248V23.9999ZM256 23.9999H257.001V25.0002H256V23.9999ZM264 23.9999H265.001V25.0002H264V23.9999ZM272 23.9999H273V25.0002H272V23.9999ZM280 23.9999H281V25.0002H280V23.9999ZM288 23.9999H289V25.0002H288V23.9999ZM296 23.9999H297V25.0002H296V23.9999ZM304 23.9999H305V25.0002H304V23.9999ZM312 23.9999H313V25.0002H312V23.9999ZM320 23.9999H321V25.0002H320V23.9999ZM328 23.9999H329V25.0002H328V23.9999ZM336 23.9999H337V25.0002H336V23.9999ZM344 23.9999H345V25.0002H344V23.9999ZM352 23.9999H353V25.0002H352V23.9999ZM360 23.9999H361V25.0002H360V23.9999ZM368 23.9999H369V25.0002H368V23.9999ZM376 23.9999H377V25.0002H376V23.9999ZM384 23.9999H385V25.0002H384V23.9999ZM392 23.9999H393V25.0002H392V23.9999ZM400 23.9999H401V25.0002H400V23.9999ZM408 23.9999H409V25.0002H408V23.9999ZM416 23.9999H417V25.0002H416V23.9999ZM424 23.9999H425V25.0002H424V23.9999ZM432 23.9999H433V25.0002H432V23.9999ZM440 23.9999H441V25.0002H440V23.9999ZM448 23.9999H449V25.0002H448V23.9999ZM456 23.9999H457V25.0002H456V23.9999ZM464 23.9999H465V25.0002H464V23.9999ZM472 23.9999H473V25.0002H472V23.9999ZM480 23.9999H481V25.0002H480V23.9999ZM488 23.9999H489V25.0002H488V23.9999ZM496 23.9999H497V25.0002H496V23.9999ZM504 23.9999H505V25.0002H504V23.9999ZM512 23.9999H513V25.0002H512V23.9999ZM520 23.9999H521V25.0002H520V23.9999ZM528 23.9999H529V25.0002H528V23.9999ZM536 23.9999H537V25.0002H536V23.9999ZM544 23.9999H545V25.0002H544V23.9999ZM552 23.9999H553V25.0002H552V23.9999ZM560 23.9999H561V25.0002H560V23.9999ZM568 23.9999H569V25.0002H568V23.9999ZM576 23.9999H577V25.0002H576V23.9999ZM584 23.9999H585V25.0002H584V23.9999ZM592 23.9999H593V25.0002H592V23.9999ZM600 23.9999H601V25.0002H600V23.9999ZM608 23.9999H609V25.0002H608V23.9999ZM616 23.9999H617V25.0002H616V23.9999ZM624 23.9999H625.001V25.0002H624V23.9999ZM632 23.9999H633V25.0002H632V23.9999ZM640 23.9999H641V25.0002H640V23.9999ZM648 23.9999H649V25.0002H648V23.9999ZM656 23.9999H657V25.0002H656V23.9999ZM664 23.9999H665V25.0002H664V23.9999ZM672 23.9999H673V25.0002H672V23.9999ZM680 23.9999H681V25.0002H680V23.9999ZM688 23.9999H689V25.0002H688V23.9999ZM696 23.9999H697V25.0002H696V23.9999ZM704 23.9999H705V25.0002H704V23.9999ZM712 23.9999H713V25.0002H712V23.9999ZM720 23.9999H721V25.0002H720V23.9999ZM728 23.9999H729V25.0002H728V23.9999ZM736 23.9999H737V25.0002H736V23.9999ZM744 23.9999H745V25.0002H744V23.9999ZM752 23.9999H753V25.0002H752V23.9999ZM760 23.9999H761V25.0002H760V23.9999ZM768 23.9999H769V25.0002H768V23.9999ZM776 23.9999H777V25.0002H776V23.9999ZM784 23.9999H785V25.0002H784V23.9999ZM792 23.9999H793V25.0002H792V23.9999ZM800 23.9999H801V25.0002H800V23.9999ZM808 23.9999H809V25.0002H808V23.9999ZM816 23.9999H817V25.0002H816V23.9999ZM824 23.9999H825V25.0002H824V23.9999ZM832 23.9999H833V25.0002H832V23.9999ZM840 23.9999H841V25.0002H840V23.9999ZM848 23.9999H849V25.0002H848V23.9999ZM856 23.9999H857V25.0002H856V23.9999ZM864 23.9999H865V25.0002H864V23.9999ZM872 23.9999H873V25.0002H872V23.9999ZM880 23.9999H881V25.0002H880V23.9999ZM888 23.9999H889V25.0002H888V23.9999ZM896 23.9999H897V25.0002H896V23.9999ZM904 23.9999H905V25.0002H904V23.9999ZM912 23.9999H913V25.0002H912V23.9999ZM920 23.9999H921V25.0002H920V23.9999ZM928 23.9999H929V25.0002H928V23.9999ZM936 23.9999H937V25.0002H936V23.9999ZM944 23.9999H945V25.0002H944V23.9999ZM952 23.9999H953V25.0002H952V23.9999ZM960 23.9999H961V25.0002H960V23.9999ZM968 23.9999H969V25.0002H968V23.9999ZM976 23.9999H977V25.0002H976V23.9999ZM984 23.9999H985.001V25.0002H984V23.9999ZM992 23.9999H993.001V25.0002H992V23.9999ZM1000 23.9999H1001V25.0002H1000V23.9999ZM1008 23.9999H1009V25.0002H1008V23.9999ZM1016 23.9999H1017V25.0002H1016V23.9999ZM1024 23.9999H1025V25.0002H1024V23.9999ZM1032 23.9999H1033V25.0002H1032V23.9999ZM1040 23.9999H1041V25.0002H1040V23.9999ZM1048 23.9999H1049V25.0002H1048V23.9999ZM1056 23.9999H1057V25.0002H1056V23.9999ZM1064 23.9999H1065V25.0002H1064V23.9999ZM1072 23.9999H1073V25.0002H1072V23.9999ZM1080 23.9999H1081V25.0002H1080V23.9999ZM1088 23.9999H1089V25.0002H1088V23.9999ZM1096 23.9999H1097V25.0002H1096V23.9999ZM1104 23.9999H1105V25.0002H1104V23.9999ZM1112 23.9999H1113V25.0002H1112V23.9999ZM1120 23.9999H1121V25.0002H1120V23.9999ZM1128 23.9999H1129V25.0002H1128V23.9999ZM1136 23.9999H1137V25.0002H1136V23.9999ZM1144 23.9999H1145V25.0002H1144V23.9999ZM1152 23.9999H1153V25.0002H1152V23.9999ZM1160 23.9999H1161V25.0002H1160V23.9999ZM1168 23.9999H1169V25.0002H1168V23.9999ZM1176 23.9999H1177V25.0002H1176V23.9999ZM1184 23.9999H1185V25.0002H1184V23.9999ZM1192 23.9999H1193V25.0002H1192V23.9999ZM1200 23.9999H1201V25.0002H1200V23.9999ZM1208 23.9999H1209V25.0002H1208V23.9999ZM1216 23.9999H1217V25.0002H1216V23.9999ZM1224 23.9999H1225V25.0002H1224V23.9999ZM1232 23.9999H1233V25.0002H1232V23.9999ZM1240 23.9999H1241V25.0002H1240V23.9999ZM1248 23.9999H1249V25.0002H1248V23.9999ZM1256 23.9999H1257V25.0002H1256V23.9999ZM1264 23.9999H1265V25.0002H1264V23.9999ZM1272 23.9999H1273V25.0002H1272V23.9999ZM1280 23.9999H1281V25.0002H1280V23.9999ZM1288 23.9999H1289V25.0002H1288V23.9999ZM1296 23.9999H1297V25.0002H1296V23.9999ZM1304 23.9999H1305V25.0002H1304V23.9999ZM1312 23.9999H1313V25.0002H1312V23.9999ZM1320 23.9999H1321V25.0002H1320V23.9999ZM1328 23.9999H1329V25.0002H1328V23.9999ZM1336 23.9999H1337V25.0002H1336V23.9999ZM1344 23.9999H1345V25.0002H1344V23.9999ZM1352 23.9999H1353V25.0002H1352V23.9999ZM1360 23.9999H1361V25.0002H1360V23.9999ZM1368 23.9999H1369V25.0002H1368V23.9999ZM1376 23.9999H1377V25.0002H1376V23.9999ZM1384 23.9999H1385V25.0002H1384V23.9999ZM1392 23.9999H1393V25.0002H1392V23.9999ZM1400 23.9999H1401V25.0002H1400V23.9999ZM1408 23.9999H1409V25.0002H1408V23.9999ZM1416 23.9999H1417V25.0002H1416V23.9999ZM1424 23.9999H1425V25.0002H1424V23.9999ZM1432 23.9999H1433V25.0002H1432V23.9999ZM1440 23.9999H1441V25.0002H1440V23.9999ZM1448 23.9999H1449V25.0002H1448V23.9999ZM1456 23.9999H1457V25.0002H1456V23.9999ZM1464 23.9999H1465V25.0002H1464V23.9999ZM1472 23.9999H1473V25.0002H1472V23.9999ZM1480 23.9999H1481V25.0002H1480V23.9999ZM1488 23.9999H1489V25.0002H1488V23.9999ZM1496 23.9999H1497V25.0002H1496V23.9999ZM1504 23.9999H1505V25.0002H1504V23.9999ZM1512 23.9999H1513V25.0002H1512V23.9999ZM1520 23.9999H1521V25.0002H1520V23.9999ZM1528 23.9999H1529V25.0002H1528V23.9999ZM1536 23.9999H1537V25.0002H1536V23.9999ZM1544 23.9999H1545V25.0002H1544V23.9999ZM1552 23.9999H1553V25.0002H1552V23.9999ZM1560 23.9999H1561V25.0002H1560V23.9999ZM1568 23.9999H1569V25.0002H1568V23.9999ZM1576 23.9999H1577V25.0002H1576V23.9999ZM1584 23.9999H1585V25.0002H1584V23.9999ZM1592 23.9999H1593V25.0002H1592V23.9999ZM1600 23.9999H1601V25.0002H1600V23.9999ZM1608 23.9999H1609V25.0002H1608V23.9999ZM1616 23.9999H1617V25.0002H1616V23.9999ZM1624 23.9999H1625V25.0002H1624V23.9999ZM1632 23.9999H1633V25.0002H1632V23.9999ZM1640 23.9999H1641V25.0002H1640V23.9999ZM1648 23.9999H1649V25.0002H1648V23.9999ZM1656 23.9999H1657V25.0002H1656V23.9999ZM1664 23.9999H1665V25.0002H1664V23.9999ZM1672 23.9999H1673V25.0002H1672V23.9999ZM1680 23.9999H1681V25.0002H1680V23.9999ZM1688 23.9999H1689V25.0002H1688V23.9999ZM1696 23.9999H1697V25.0002H1696V23.9999ZM1704 23.9999H1705V25.0002H1704V23.9999ZM1712 23.9999H1713V25.0002H1712V23.9999ZM1720 23.9999H1721V25.0002H1720V23.9999ZM1728 23.9999H1729V25.0002H1728V23.9999ZM1736 23.9999H1737V25.0002H1736V23.9999ZM1744 23.9999H1745V25.0002H1744V23.9999ZM1752 23.9999H1753V25.0002H1752V23.9999ZM1760 23.9999H1761V25.0002H1760V23.9999ZM1768 23.9999H1769V25.0002H1768V23.9999ZM1776 23.9999H1777V25.0002H1776V23.9999ZM1784 23.9999H1785V25.0002H1784V23.9999ZM1792 23.9999H1793V25.0002H1792V23.9999ZM1800 23.9999H1801V25.0002H1800V23.9999ZM1808 23.9999H1809V25.0002H1808V23.9999ZM1816 23.9999H1817V25.0002H1816V23.9999ZM1824 23.9999H1825V25.0002H1824V23.9999ZM1832 23.9999H1833V25.0002H1832V23.9999ZM1840 23.9999H1841V25.0002H1840V23.9999ZM1848 23.9999H1849V25.0002H1848V23.9999ZM1856 23.9999H1857V25.0002H1856V23.9999ZM1864 23.9999H1865V25.0002H1864V23.9999ZM1872 23.9999H1873V25.0002H1872V23.9999ZM1880 23.9999H1881V25.0002H1880V23.9999ZM1888 23.9999H1889V25.0002H1888V23.9999ZM1896 23.9999H1897V25.0002H1896V23.9999ZM1904 23.9999H1905V25.0002H1904V23.9999ZM0 31.9999H1.00025V33.0002H0V31.9999ZM7.99998 31.9999H9.00022V33.0002H7.99998V31.9999ZM16 31.9999H17.0002V33.0002H16V31.9999ZM23.9999 31.9999H25.0002V33.0002H23.9999V31.9999ZM31.9999 31.9999H33.0002V33.0002H31.9999V31.9999ZM39.9999 31.9999H41.0001V33.0002H39.9999V31.9999ZM47.9999 31.9999H49.0001V33.0002H47.9999V31.9999ZM55.9998 31.9999H57.0001V33.0002H55.9998V31.9999ZM63.9998 31.9999H65.0001V33.0002H63.9998V31.9999ZM71.9998 31.9999H73V33.0002H71.9998V31.9999ZM79.9998 31.9999H81V33.0002H79.9998V31.9999ZM87.9998 31.9999H89V33.0002H87.9998V31.9999ZM95.9997 31.9999H97V33.0002H95.9997V31.9999ZM104 31.9999H105V33.0002H104V31.9999ZM112 31.9999H113V33.0002H112V31.9999ZM120 31.9999H121V33.0002H120V31.9999ZM128 31.9999H129V33.0002H128V31.9999ZM136 31.9999H137V33.0002H136V31.9999ZM144 31.9999H145V33.0002H144V31.9999ZM152 31.9999H153V33.0002H152V31.9999ZM160 31.9999H161V33.0002H160V31.9999ZM168 31.9999H169V33.0002H168V31.9999ZM176 31.9999H177V33.0002H176V31.9999ZM184 31.9999H185V33.0002H184V31.9999ZM192 31.9999H193V33.0002H192V31.9999ZM200 31.9999H201V33.0002H200V31.9999ZM208 31.9999H209V33.0002H208V31.9999ZM216 31.9999H217V33.0002H216V31.9999ZM224 31.9999H225V33.0002H224V31.9999ZM232 31.9999H233V33.0002H232V31.9999ZM240 31.9999H241V33.0002H240V31.9999ZM248 31.9999H249.001V33.0002H248V31.9999ZM256 31.9999H257.001V33.0002H256V31.9999ZM264 31.9999H265.001V33.0002H264V31.9999ZM272 31.9999H273V33.0002H272V31.9999ZM280 31.9999H281V33.0002H280V31.9999ZM288 31.9999H289V33.0002H288V31.9999ZM296 31.9999H297V33.0002H296V31.9999ZM304 31.9999H305V33.0002H304V31.9999ZM312 31.9999H313V33.0002H312V31.9999ZM320 31.9999H321V33.0002H320V31.9999ZM328 31.9999H329V33.0002H328V31.9999ZM336 31.9999H337V33.0002H336V31.9999ZM344 31.9999H345V33.0002H344V31.9999ZM352 31.9999H353V33.0002H352V31.9999ZM360 31.9999H361V33.0002H360V31.9999ZM368 31.9999H369V33.0002H368V31.9999ZM376 31.9999H377V33.0002H376V31.9999ZM384 31.9999H385V33.0002H384V31.9999ZM392 31.9999H393V33.0002H392V31.9999ZM400 31.9999H401V33.0002H400V31.9999ZM408 31.9999H409V33.0002H408V31.9999ZM416 31.9999H417V33.0002H416V31.9999ZM424 31.9999H425V33.0002H424V31.9999ZM432 31.9999H433V33.0002H432V31.9999ZM440 31.9999H441V33.0002H440V31.9999ZM448 31.9999H449V33.0002H448V31.9999ZM456 31.9999H457V33.0002H456V31.9999ZM464 31.9999H465V33.0002H464V31.9999ZM472 31.9999H473V33.0002H472V31.9999ZM480 31.9999H481V33.0002H480V31.9999ZM488 31.9999H489V33.0002H488V31.9999ZM496 31.9999H497V33.0002H496V31.9999ZM504 31.9999H505V33.0002H504V31.9999ZM512 31.9999H513V33.0002H512V31.9999ZM520 31.9999H521V33.0002H520V31.9999ZM528 31.9999H529V33.0002H528V31.9999ZM536 31.9999H537V33.0002H536V31.9999ZM544 31.9999H545V33.0002H544V31.9999ZM552 31.9999H553V33.0002H552V31.9999ZM560 31.9999H561V33.0002H560V31.9999ZM568 31.9999H569V33.0002H568V31.9999ZM576 31.9999H577V33.0002H576V31.9999ZM584 31.9999H585V33.0002H584V31.9999ZM592 31.9999H593V33.0002H592V31.9999ZM600 31.9999H601V33.0002H600V31.9999ZM608 31.9999H609V33.0002H608V31.9999ZM616 31.9999H617V33.0002H616V31.9999ZM624 31.9999H625.001V33.0002H624V31.9999ZM632 31.9999H633V33.0002H632V31.9999ZM640 31.9999H641V33.0002H640V31.9999ZM648 31.9999H649V33.0002H648V31.9999ZM656 31.9999H657V33.0002H656V31.9999ZM664 31.9999H665V33.0002H664V31.9999ZM672 31.9999H673V33.0002H672V31.9999ZM680 31.9999H681V33.0002H680V31.9999ZM688 31.9999H689V33.0002H688V31.9999ZM696 31.9999H697V33.0002H696V31.9999ZM704 31.9999H705V33.0002H704V31.9999ZM712 31.9999H713V33.0002H712V31.9999ZM720 31.9999H721V33.0002H720V31.9999ZM728 31.9999H729V33.0002H728V31.9999ZM736 31.9999H737V33.0002H736V31.9999ZM744 31.9999H745V33.0002H744V31.9999ZM752 31.9999H753V33.0002H752V31.9999ZM760 31.9999H761V33.0002H760V31.9999ZM768 31.9999H769V33.0002H768V31.9999ZM776 31.9999H777V33.0002H776V31.9999ZM784 31.9999H785V33.0002H784V31.9999ZM792 31.9999H793V33.0002H792V31.9999ZM800 31.9999H801V33.0002H800V31.9999ZM808 31.9999H809V33.0002H808V31.9999ZM816 31.9999H817V33.0002H816V31.9999ZM824 31.9999H825V33.0002H824V31.9999ZM832 31.9999H833V33.0002H832V31.9999ZM840 31.9999H841V33.0002H840V31.9999ZM848 31.9999H849V33.0002H848V31.9999ZM856 31.9999H857V33.0002H856V31.9999ZM864 31.9999H865V33.0002H864V31.9999ZM872 31.9999H873V33.0002H872V31.9999ZM880 31.9999H881V33.0002H880V31.9999ZM888 31.9999H889V33.0002H888V31.9999ZM896 31.9999H897V33.0002H896V31.9999ZM904 31.9999H905V33.0002H904V31.9999ZM912 31.9999H913V33.0002H912V31.9999ZM920 31.9999H921V33.0002H920V31.9999ZM928 31.9999H929V33.0002H928V31.9999ZM936 31.9999H937V33.0002H936V31.9999ZM944 31.9999H945V33.0002H944V31.9999ZM952 31.9999H953V33.0002H952V31.9999ZM960 31.9999H961V33.0002H960V31.9999ZM968 31.9999H969V33.0002H968V31.9999ZM976 31.9999H977V33.0002H976V31.9999ZM984 31.9999H985.001V33.0002H984V31.9999ZM992 31.9999H993.001V33.0002H992V31.9999ZM1000 31.9999H1001V33.0002H1000V31.9999ZM1008 31.9999H1009V33.0002H1008V31.9999ZM1016 31.9999H1017V33.0002H1016V31.9999ZM1024 31.9999H1025V33.0002H1024V31.9999ZM1032 31.9999H1033V33.0002H1032V31.9999ZM1040 31.9999H1041V33.0002H1040V31.9999ZM1048 31.9999H1049V33.0002H1048V31.9999ZM1056 31.9999H1057V33.0002H1056V31.9999ZM1064 31.9999H1065V33.0002H1064V31.9999ZM1072 31.9999H1073V33.0002H1072V31.9999ZM1080 31.9999H1081V33.0002H1080V31.9999ZM1088 31.9999H1089V33.0002H1088V31.9999ZM1096 31.9999H1097V33.0002H1096V31.9999ZM1104 31.9999H1105V33.0002H1104V31.9999ZM1112 31.9999H1113V33.0002H1112V31.9999ZM1120 31.9999H1121V33.0002H1120V31.9999ZM1128 31.9999H1129V33.0002H1128V31.9999ZM1136 31.9999H1137V33.0002H1136V31.9999ZM1144 31.9999H1145V33.0002H1144V31.9999ZM1152 31.9999H1153V33.0002H1152V31.9999ZM1160 31.9999H1161V33.0002H1160V31.9999ZM1168 31.9999H1169V33.0002H1168V31.9999ZM1176 31.9999H1177V33.0002H1176V31.9999ZM1184 31.9999H1185V33.0002H1184V31.9999ZM1192 31.9999H1193V33.0002H1192V31.9999ZM1200 31.9999H1201V33.0002H1200V31.9999ZM1208 31.9999H1209V33.0002H1208V31.9999ZM1216 31.9999H1217V33.0002H1216V31.9999ZM1224 31.9999H1225V33.0002H1224V31.9999ZM1232 31.9999H1233V33.0002H1232V31.9999ZM1240 31.9999H1241V33.0002H1240V31.9999ZM1248 31.9999H1249V33.0002H1248V31.9999ZM1256 31.9999H1257V33.0002H1256V31.9999ZM1264 31.9999H1265V33.0002H1264V31.9999ZM1272 31.9999H1273V33.0002H1272V31.9999ZM1280 31.9999H1281V33.0002H1280V31.9999ZM1288 31.9999H1289V33.0002H1288V31.9999ZM1296 31.9999H1297V33.0002H1296V31.9999ZM1304 31.9999H1305V33.0002H1304V31.9999ZM1312 31.9999H1313V33.0002H1312V31.9999ZM1320 31.9999H1321V33.0002H1320V31.9999ZM1328 31.9999H1329V33.0002H1328V31.9999ZM1336 31.9999H1337V33.0002H1336V31.9999ZM1344 31.9999H1345V33.0002H1344V31.9999ZM1352 31.9999H1353V33.0002H1352V31.9999ZM1360 31.9999H1361V33.0002H1360V31.9999ZM1368 31.9999H1369V33.0002H1368V31.9999ZM1376 31.9999H1377V33.0002H1376V31.9999ZM1384 31.9999H1385V33.0002H1384V31.9999ZM1392 31.9999H1393V33.0002H1392V31.9999ZM1400 31.9999H1401V33.0002H1400V31.9999ZM1408 31.9999H1409V33.0002H1408V31.9999ZM1416 31.9999H1417V33.0002H1416V31.9999ZM1424 31.9999H1425V33.0002H1424V31.9999ZM1432 31.9999H1433V33.0002H1432V31.9999ZM1440 31.9999H1441V33.0002H1440V31.9999ZM1448 31.9999H1449V33.0002H1448V31.9999ZM1456 31.9999H1457V33.0002H1456V31.9999ZM1464 31.9999H1465V33.0002H1464V31.9999ZM1472 31.9999H1473V33.0002H1472V31.9999ZM1480 31.9999H1481V33.0002H1480V31.9999ZM1488 31.9999H1489V33.0002H1488V31.9999ZM1496 31.9999H1497V33.0002H1496V31.9999ZM1504 31.9999H1505V33.0002H1504V31.9999ZM1512 31.9999H1513V33.0002H1512V31.9999ZM1520 31.9999H1521V33.0002H1520V31.9999ZM1528 31.9999H1529V33.0002H1528V31.9999ZM1536 31.9999H1537V33.0002H1536V31.9999ZM1544 31.9999H1545V33.0002H1544V31.9999ZM1552 31.9999H1553V33.0002H1552V31.9999ZM1560 31.9999H1561V33.0002H1560V31.9999ZM1568 31.9999H1569V33.0002H1568V31.9999ZM1576 31.9999H1577V33.0002H1576V31.9999ZM1584 31.9999H1585V33.0002H1584V31.9999ZM1592 31.9999H1593V33.0002H1592V31.9999ZM1600 31.9999H1601V33.0002H1600V31.9999ZM1608 31.9999H1609V33.0002H1608V31.9999ZM1616 31.9999H1617V33.0002H1616V31.9999ZM1624 31.9999H1625V33.0002H1624V31.9999ZM1632 31.9999H1633V33.0002H1632V31.9999ZM1640 31.9999H1641V33.0002H1640V31.9999ZM1648 31.9999H1649V33.0002H1648V31.9999ZM1656 31.9999H1657V33.0002H1656V31.9999ZM1664 31.9999H1665V33.0002H1664V31.9999ZM1672 31.9999H1673V33.0002H1672V31.9999ZM1680 31.9999H1681V33.0002H1680V31.9999ZM1688 31.9999H1689V33.0002H1688V31.9999ZM1696 31.9999H1697V33.0002H1696V31.9999ZM1704 31.9999H1705V33.0002H1704V31.9999ZM1712 31.9999H1713V33.0002H1712V31.9999ZM1720 31.9999H1721V33.0002H1720V31.9999ZM1728 31.9999H1729V33.0002H1728V31.9999ZM1736 31.9999H1737V33.0002H1736V31.9999ZM1744 31.9999H1745V33.0002H1744V31.9999ZM1752 31.9999H1753V33.0002H1752V31.9999ZM1760 31.9999H1761V33.0002H1760V31.9999ZM1768 31.9999H1769V33.0002H1768V31.9999ZM1776 31.9999H1777V33.0002H1776V31.9999ZM1784 31.9999H1785V33.0002H1784V31.9999ZM1792 31.9999H1793V33.0002H1792V31.9999ZM1800 31.9999H1801V33.0002H1800V31.9999ZM1808 31.9999H1809V33.0002H1808V31.9999ZM1816 31.9999H1817V33.0002H1816V31.9999ZM1824 31.9999H1825V33.0002H1824V31.9999ZM1832 31.9999H1833V33.0002H1832V31.9999ZM1840 31.9999H1841V33.0002H1840V31.9999ZM1848 31.9999H1849V33.0002H1848V31.9999ZM1856 31.9999H1857V33.0002H1856V31.9999ZM1864 31.9999H1865V33.0002H1864V31.9999ZM1872 31.9999H1873V33.0002H1872V31.9999ZM1880 31.9999H1881V33.0002H1880V31.9999ZM1888 31.9999H1889V33.0002H1888V31.9999ZM1896 31.9999H1897V33.0002H1896V31.9999ZM1904 31.9999H1905V33.0002H1904V31.9999ZM0 39.9999H1.00025V41.0001H0V39.9999ZM7.99998 39.9999H9.00022V41.0001H7.99998V39.9999ZM16 39.9999H17.0002V41.0001H16V39.9999ZM23.9999 39.9999H25.0002V41.0001H23.9999V39.9999ZM31.9999 39.9999H33.0002V41.0001H31.9999V39.9999ZM39.9999 39.9999H41.0001V41.0001H39.9999V39.9999ZM47.9999 39.9999H49.0001V41.0001H47.9999V39.9999ZM55.9998 39.9999H57.0001V41.0001H55.9998V39.9999ZM63.9998 39.9999H65.0001V41.0001H63.9998V39.9999ZM71.9998 39.9999H73V41.0001H71.9998V39.9999ZM79.9998 39.9999H81V41.0001H79.9998V39.9999ZM87.9998 39.9999H89V41.0001H87.9998V39.9999ZM95.9997 39.9999H97V41.0001H95.9997V39.9999ZM104 39.9999H105V41.0001H104V39.9999ZM112 39.9999H113V41.0001H112V39.9999ZM120 39.9999H121V41.0001H120V39.9999ZM128 39.9999H129V41.0001H128V39.9999ZM136 39.9999H137V41.0001H136V39.9999ZM144 39.9999H145V41.0001H144V39.9999ZM152 39.9999H153V41.0001H152V39.9999ZM160 39.9999H161V41.0001H160V39.9999ZM168 39.9999H169V41.0001H168V39.9999ZM176 39.9999H177V41.0001H176V39.9999ZM184 39.9999H185V41.0001H184V39.9999ZM192 39.9999H193V41.0001H192V39.9999ZM200 39.9999H201V41.0001H200V39.9999ZM208 39.9999H209V41.0001H208V39.9999ZM216 39.9999H217V41.0001H216V39.9999ZM224 39.9999H225V41.0001H224V39.9999ZM232 39.9999H233V41.0001H232V39.9999ZM240 39.9999H241V41.0001H240V39.9999ZM248 39.9999H249.001V41.0001H248V39.9999ZM256 39.9999H257.001V41.0001H256V39.9999ZM264 39.9999H265.001V41.0001H264V39.9999ZM272 39.9999H273V41.0001H272V39.9999ZM280 39.9999H281V41.0001H280V39.9999ZM288 39.9999H289V41.0001H288V39.9999ZM296 39.9999H297V41.0001H296V39.9999ZM304 39.9999H305V41.0001H304V39.9999ZM312 39.9999H313V41.0001H312V39.9999ZM320 39.9999H321V41.0001H320V39.9999ZM328 39.9999H329V41.0001H328V39.9999ZM336 39.9999H337V41.0001H336V39.9999ZM344 39.9999H345V41.0001H344V39.9999ZM352 39.9999H353V41.0001H352V39.9999ZM360 39.9999H361V41.0001H360V39.9999ZM368 39.9999H369V41.0001H368V39.9999ZM376 39.9999H377V41.0001H376V39.9999ZM384 39.9999H385V41.0001H384V39.9999ZM392 39.9999H393V41.0001H392V39.9999ZM400 39.9999H401V41.0001H400V39.9999ZM408 39.9999H409V41.0001H408V39.9999ZM416 39.9999H417V41.0001H416V39.9999ZM424 39.9999H425V41.0001H424V39.9999ZM432 39.9999H433V41.0001H432V39.9999ZM440 39.9999H441V41.0001H440V39.9999ZM448 39.9999H449V41.0001H448V39.9999ZM456 39.9999H457V41.0001H456V39.9999ZM464 39.9999H465V41.0001H464V39.9999ZM472 39.9999H473V41.0001H472V39.9999ZM480 39.9999H481V41.0001H480V39.9999ZM488 39.9999H489V41.0001H488V39.9999ZM496 39.9999H497V41.0001H496V39.9999ZM504 39.9999H505V41.0001H504V39.9999ZM512 39.9999H513V41.0001H512V39.9999ZM520 39.9999H521V41.0001H520V39.9999ZM528 39.9999H529V41.0001H528V39.9999ZM536 39.9999H537V41.0001H536V39.9999ZM544 39.9999H545V41.0001H544V39.9999ZM552 39.9999H553V41.0001H552V39.9999ZM560 39.9999H561V41.0001H560V39.9999ZM568 39.9999H569V41.0001H568V39.9999ZM576 39.9999H577V41.0001H576V39.9999ZM584 39.9999H585V41.0001H584V39.9999ZM592 39.9999H593V41.0001H592V39.9999ZM600 39.9999H601V41.0001H600V39.9999ZM608 39.9999H609V41.0001H608V39.9999ZM616 39.9999H617V41.0001H616V39.9999ZM624 39.9999H625.001V41.0001H624V39.9999ZM632 39.9999H633V41.0001H632V39.9999ZM640 39.9999H641V41.0001H640V39.9999ZM648 39.9999H649V41.0001H648V39.9999ZM656 39.9999H657V41.0001H656V39.9999ZM664 39.9999H665V41.0001H664V39.9999ZM672 39.9999H673V41.0001H672V39.9999ZM680 39.9999H681V41.0001H680V39.9999ZM688 39.9999H689V41.0001H688V39.9999ZM696 39.9999H697V41.0001H696V39.9999ZM704 39.9999H705V41.0001H704V39.9999ZM712 39.9999H713V41.0001H712V39.9999ZM720 39.9999H721V41.0001H720V39.9999ZM728 39.9999H729V41.0001H728V39.9999ZM736 39.9999H737V41.0001H736V39.9999ZM744 39.9999H745V41.0001H744V39.9999ZM752 39.9999H753V41.0001H752V39.9999ZM760 39.9999H761V41.0001H760V39.9999ZM768 39.9999H769V41.0001H768V39.9999ZM776 39.9999H777V41.0001H776V39.9999ZM784 39.9999H785V41.0001H784V39.9999ZM792 39.9999H793V41.0001H792V39.9999ZM800 39.9999H801V41.0001H800V39.9999ZM808 39.9999H809V41.0001H808V39.9999ZM816 39.9999H817V41.0001H816V39.9999ZM824 39.9999H825V41.0001H824V39.9999ZM832 39.9999H833V41.0001H832V39.9999ZM840 39.9999H841V41.0001H840V39.9999ZM848 39.9999H849V41.0001H848V39.9999ZM856 39.9999H857V41.0001H856V39.9999ZM864 39.9999H865V41.0001H864V39.9999ZM872 39.9999H873V41.0001H872V39.9999ZM880 39.9999H881V41.0001H880V39.9999ZM888 39.9999H889V41.0001H888V39.9999ZM896 39.9999H897V41.0001H896V39.9999ZM904 39.9999H905V41.0001H904V39.9999ZM912 39.9999H913V41.0001H912V39.9999ZM920 39.9999H921V41.0001H920V39.9999ZM928 39.9999H929V41.0001H928V39.9999ZM936 39.9999H937V41.0001H936V39.9999ZM944 39.9999H945V41.0001H944V39.9999ZM952 39.9999H953V41.0001H952V39.9999ZM960 39.9999H961V41.0001H960V39.9999ZM968 39.9999H969V41.0001H968V39.9999ZM976 39.9999H977V41.0001H976V39.9999ZM984 39.9999H985.001V41.0001H984V39.9999ZM992 39.9999H993.001V41.0001H992V39.9999ZM1000 39.9999H1001V41.0001H1000V39.9999ZM1008 39.9999H1009V41.0001H1008V39.9999ZM1016 39.9999H1017V41.0001H1016V39.9999ZM1024 39.9999H1025V41.0001H1024V39.9999ZM1032 39.9999H1033V41.0001H1032V39.9999ZM1040 39.9999H1041V41.0001H1040V39.9999ZM1048 39.9999H1049V41.0001H1048V39.9999ZM1056 39.9999H1057V41.0001H1056V39.9999ZM1064 39.9999H1065V41.0001H1064V39.9999ZM1072 39.9999H1073V41.0001H1072V39.9999ZM1080 39.9999H1081V41.0001H1080V39.9999ZM1088 39.9999H1089V41.0001H1088V39.9999ZM1096 39.9999H1097V41.0001H1096V39.9999ZM1104 39.9999H1105V41.0001H1104V39.9999ZM1112 39.9999H1113V41.0001H1112V39.9999ZM1120 39.9999H1121V41.0001H1120V39.9999ZM1128 39.9999H1129V41.0001H1128V39.9999ZM1136 39.9999H1137V41.0001H1136V39.9999ZM1144 39.9999H1145V41.0001H1144V39.9999ZM1152 39.9999H1153V41.0001H1152V39.9999ZM1160 39.9999H1161V41.0001H1160V39.9999ZM1168 39.9999H1169V41.0001H1168V39.9999ZM1176 39.9999H1177V41.0001H1176V39.9999ZM1184 39.9999H1185V41.0001H1184V39.9999ZM1192 39.9999H1193V41.0001H1192V39.9999ZM1200 39.9999H1201V41.0001H1200V39.9999ZM1208 39.9999H1209V41.0001H1208V39.9999ZM1216 39.9999H1217V41.0001H1216V39.9999ZM1224 39.9999H1225V41.0001H1224V39.9999ZM1232 39.9999H1233V41.0001H1232V39.9999ZM1240 39.9999H1241V41.0001H1240V39.9999ZM1248 39.9999H1249V41.0001H1248V39.9999ZM1256 39.9999H1257V41.0001H1256V39.9999ZM1264 39.9999H1265V41.0001H1264V39.9999ZM1272 39.9999H1273V41.0001H1272V39.9999ZM1280 39.9999H1281V41.0001H1280V39.9999ZM1288 39.9999H1289V41.0001H1288V39.9999ZM1296 39.9999H1297V41.0001H1296V39.9999ZM1304 39.9999H1305V41.0001H1304V39.9999ZM1312 39.9999H1313V41.0001H1312V39.9999ZM1320 39.9999H1321V41.0001H1320V39.9999ZM1328 39.9999H1329V41.0001H1328V39.9999ZM1336 39.9999H1337V41.0001H1336V39.9999ZM1344 39.9999H1345V41.0001H1344V39.9999ZM1352 39.9999H1353V41.0001H1352V39.9999ZM1360 39.9999H1361V41.0001H1360V39.9999ZM1368 39.9999H1369V41.0001H1368V39.9999ZM1376 39.9999H1377V41.0001H1376V39.9999ZM1384 39.9999H1385V41.0001H1384V39.9999ZM1392 39.9999H1393V41.0001H1392V39.9999ZM1400 39.9999H1401V41.0001H1400V39.9999ZM1408 39.9999H1409V41.0001H1408V39.9999ZM1416 39.9999H1417V41.0001H1416V39.9999ZM1424 39.9999H1425V41.0001H1424V39.9999ZM1432 39.9999H1433V41.0001H1432V39.9999ZM1440 39.9999H1441V41.0001H1440V39.9999ZM1448 39.9999H1449V41.0001H1448V39.9999ZM1456 39.9999H1457V41.0001H1456V39.9999ZM1464 39.9999H1465V41.0001H1464V39.9999ZM1472 39.9999H1473V41.0001H1472V39.9999ZM1480 39.9999H1481V41.0001H1480V39.9999ZM1488 39.9999H1489V41.0001H1488V39.9999ZM1496 39.9999H1497V41.0001H1496V39.9999ZM1504 39.9999H1505V41.0001H1504V39.9999ZM1512 39.9999H1513V41.0001H1512V39.9999ZM1520 39.9999H1521V41.0001H1520V39.9999ZM1528 39.9999H1529V41.0001H1528V39.9999ZM1536 39.9999H1537V41.0001H1536V39.9999ZM1544 39.9999H1545V41.0001H1544V39.9999ZM1552 39.9999H1553V41.0001H1552V39.9999ZM1560 39.9999H1561V41.0001H1560V39.9999ZM1568 39.9999H1569V41.0001H1568V39.9999ZM1576 39.9999H1577V41.0001H1576V39.9999ZM1584 39.9999H1585V41.0001H1584V39.9999ZM1592 39.9999H1593V41.0001H1592V39.9999ZM1600 39.9999H1601V41.0001H1600V39.9999ZM1608 39.9999H1609V41.0001H1608V39.9999ZM1616 39.9999H1617V41.0001H1616V39.9999ZM1624 39.9999H1625V41.0001H1624V39.9999ZM1632 39.9999H1633V41.0001H1632V39.9999ZM1640 39.9999H1641V41.0001H1640V39.9999ZM1648 39.9999H1649V41.0001H1648V39.9999ZM1656 39.9999H1657V41.0001H1656V39.9999ZM1664 39.9999H1665V41.0001H1664V39.9999ZM1672 39.9999H1673V41.0001H1672V39.9999ZM1680 39.9999H1681V41.0001H1680V39.9999ZM1688 39.9999H1689V41.0001H1688V39.9999ZM1696 39.9999H1697V41.0001H1696V39.9999ZM1704 39.9999H1705V41.0001H1704V39.9999ZM1712 39.9999H1713V41.0001H1712V39.9999ZM1720 39.9999H1721V41.0001H1720V39.9999ZM1728 39.9999H1729V41.0001H1728V39.9999ZM1736 39.9999H1737V41.0001H1736V39.9999ZM1744 39.9999H1745V41.0001H1744V39.9999ZM1752 39.9999H1753V41.0001H1752V39.9999ZM1760 39.9999H1761V41.0001H1760V39.9999ZM1768 39.9999H1769V41.0001H1768V39.9999ZM1776 39.9999H1777V41.0001H1776V39.9999ZM1784 39.9999H1785V41.0001H1784V39.9999ZM1792 39.9999H1793V41.0001H1792V39.9999ZM1800 39.9999H1801V41.0001H1800V39.9999ZM1808 39.9999H1809V41.0001H1808V39.9999ZM1816 39.9999H1817V41.0001H1816V39.9999ZM1824 39.9999H1825V41.0001H1824V39.9999ZM1832 39.9999H1833V41.0001H1832V39.9999ZM1840 39.9999H1841V41.0001H1840V39.9999ZM1848 39.9999H1849V41.0001H1848V39.9999ZM1856 39.9999H1857V41.0001H1856V39.9999ZM1864 39.9999H1865V41.0001H1864V39.9999ZM1872 39.9999H1873V41.0001H1872V39.9999ZM1880 39.9999H1881V41.0001H1880V39.9999ZM1888 39.9999H1889V41.0001H1888V39.9999ZM1896 39.9999H1897V41.0001H1896V39.9999ZM1904 39.9999H1905V41.0001H1904V39.9999ZM0 47.9999H1.00025V49.0001H0V47.9999ZM7.99998 47.9999H9.00022V49.0001H7.99998V47.9999ZM16 47.9999H17.0002V49.0001H16V47.9999ZM23.9999 47.9999H25.0002V49.0001H23.9999V47.9999ZM31.9999 47.9999H33.0002V49.0001H31.9999V47.9999ZM39.9999 47.9999H41.0001V49.0001H39.9999V47.9999ZM47.9999 47.9999H49.0001V49.0001H47.9999V47.9999ZM55.9998 47.9999H57.0001V49.0001H55.9998V47.9999ZM63.9998 47.9999H65.0001V49.0001H63.9998V47.9999ZM71.9998 47.9999H73V49.0001H71.9998V47.9999ZM79.9998 47.9999H81V49.0001H79.9998V47.9999ZM87.9998 47.9999H89V49.0001H87.9998V47.9999ZM95.9997 47.9999H97V49.0001H95.9997V47.9999ZM104 47.9999H105V49.0001H104V47.9999ZM112 47.9999H113V49.0001H112V47.9999ZM120 47.9999H121V49.0001H120V47.9999ZM128 47.9999H129V49.0001H128V47.9999ZM136 47.9999H137V49.0001H136V47.9999ZM144 47.9999H145V49.0001H144V47.9999ZM152 47.9999H153V49.0001H152V47.9999ZM160 47.9999H161V49.0001H160V47.9999ZM168 47.9999H169V49.0001H168V47.9999ZM176 47.9999H177V49.0001H176V47.9999ZM184 47.9999H185V49.0001H184V47.9999ZM192 47.9999H193V49.0001H192V47.9999ZM200 47.9999H201V49.0001H200V47.9999ZM208 47.9999H209V49.0001H208V47.9999ZM216 47.9999H217V49.0001H216V47.9999ZM224 47.9999H225V49.0001H224V47.9999ZM232 47.9999H233V49.0001H232V47.9999ZM240 47.9999H241V49.0001H240V47.9999ZM248 47.9999H249.001V49.0001H248V47.9999ZM256 47.9999H257.001V49.0001H256V47.9999ZM264 47.9999H265.001V49.0001H264V47.9999ZM272 47.9999H273V49.0001H272V47.9999ZM280 47.9999H281V49.0001H280V47.9999ZM288 47.9999H289V49.0001H288V47.9999ZM296 47.9999H297V49.0001H296V47.9999ZM304 47.9999H305V49.0001H304V47.9999ZM312 47.9999H313V49.0001H312V47.9999ZM320 47.9999H321V49.0001H320V47.9999ZM328 47.9999H329V49.0001H328V47.9999ZM336 47.9999H337V49.0001H336V47.9999ZM344 47.9999H345V49.0001H344V47.9999ZM352 47.9999H353V49.0001H352V47.9999ZM360 47.9999H361V49.0001H360V47.9999ZM368 47.9999H369V49.0001H368V47.9999ZM376 47.9999H377V49.0001H376V47.9999ZM384 47.9999H385V49.0001H384V47.9999ZM392 47.9999H393V49.0001H392V47.9999ZM400 47.9999H401V49.0001H400V47.9999ZM408 47.9999H409V49.0001H408V47.9999ZM416 47.9999H417V49.0001H416V47.9999ZM424 47.9999H425V49.0001H424V47.9999ZM432 47.9999H433V49.0001H432V47.9999ZM440 47.9999H441V49.0001H440V47.9999ZM448 47.9999H449V49.0001H448V47.9999ZM456 47.9999H457V49.0001H456V47.9999ZM464 47.9999H465V49.0001H464V47.9999ZM472 47.9999H473V49.0001H472V47.9999ZM480 47.9999H481V49.0001H480V47.9999ZM488 47.9999H489V49.0001H488V47.9999ZM496 47.9999H497V49.0001H496V47.9999ZM504 47.9999H505V49.0001H504V47.9999ZM512 47.9999H513V49.0001H512V47.9999ZM520 47.9999H521V49.0001H520V47.9999ZM528 47.9999H529V49.0001H528V47.9999ZM536 47.9999H537V49.0001H536V47.9999ZM544 47.9999H545V49.0001H544V47.9999ZM552 47.9999H553V49.0001H552V47.9999ZM560 47.9999H561V49.0001H560V47.9999ZM568 47.9999H569V49.0001H568V47.9999ZM576 47.9999H577V49.0001H576V47.9999ZM584 47.9999H585V49.0001H584V47.9999ZM592 47.9999H593V49.0001H592V47.9999ZM600 47.9999H601V49.0001H600V47.9999ZM608 47.9999H609V49.0001H608V47.9999ZM616 47.9999H617V49.0001H616V47.9999ZM624 47.9999H625.001V49.0001H624V47.9999ZM632 47.9999H633V49.0001H632V47.9999ZM640 47.9999H641V49.0001H640V47.9999ZM648 47.9999H649V49.0001H648V47.9999ZM656 47.9999H657V49.0001H656V47.9999ZM664 47.9999H665V49.0001H664V47.9999ZM672 47.9999H673V49.0001H672V47.9999ZM680 47.9999H681V49.0001H680V47.9999ZM688 47.9999H689V49.0001H688V47.9999ZM696 47.9999H697V49.0001H696V47.9999ZM704 47.9999H705V49.0001H704V47.9999ZM712 47.9999H713V49.0001H712V47.9999ZM720 47.9999H721V49.0001H720V47.9999ZM728 47.9999H729V49.0001H728V47.9999ZM736 47.9999H737V49.0001H736V47.9999ZM744 47.9999H745V49.0001H744V47.9999ZM752 47.9999H753V49.0001H752V47.9999ZM760 47.9999H761V49.0001H760V47.9999ZM768 47.9999H769V49.0001H768V47.9999ZM776 47.9999H777V49.0001H776V47.9999ZM784 47.9999H785V49.0001H784V47.9999ZM792 47.9999H793V49.0001H792V47.9999ZM800 47.9999H801V49.0001H800V47.9999ZM808 47.9999H809V49.0001H808V47.9999ZM816 47.9999H817V49.0001H816V47.9999ZM824 47.9999H825V49.0001H824V47.9999ZM832 47.9999H833V49.0001H832V47.9999ZM840 47.9999H841V49.0001H840V47.9999ZM848 47.9999H849V49.0001H848V47.9999ZM856 47.9999H857V49.0001H856V47.9999ZM864 47.9999H865V49.0001H864V47.9999ZM872 47.9999H873V49.0001H872V47.9999ZM880 47.9999H881V49.0001H880V47.9999ZM888 47.9999H889V49.0001H888V47.9999ZM896 47.9999H897V49.0001H896V47.9999ZM904 47.9999H905V49.0001H904V47.9999ZM912 47.9999H913V49.0001H912V47.9999ZM920 47.9999H921V49.0001H920V47.9999ZM928 47.9999H929V49.0001H928V47.9999ZM936 47.9999H937V49.0001H936V47.9999ZM944 47.9999H945V49.0001H944V47.9999ZM952 47.9999H953V49.0001H952V47.9999ZM960 47.9999H961V49.0001H960V47.9999ZM968 47.9999H969V49.0001H968V47.9999ZM976 47.9999H977V49.0001H976V47.9999ZM984 47.9999H985.001V49.0001H984V47.9999ZM992 47.9999H993.001V49.0001H992V47.9999ZM1000 47.9999H1001V49.0001H1000V47.9999ZM1008 47.9999H1009V49.0001H1008V47.9999ZM1016 47.9999H1017V49.0001H1016V47.9999ZM1024 47.9999H1025V49.0001H1024V47.9999ZM1032 47.9999H1033V49.0001H1032V47.9999ZM1040 47.9999H1041V49.0001H1040V47.9999ZM1048 47.9999H1049V49.0001H1048V47.9999ZM1056 47.9999H1057V49.0001H1056V47.9999ZM1064 47.9999H1065V49.0001H1064V47.9999ZM1072 47.9999H1073V49.0001H1072V47.9999ZM1080 47.9999H1081V49.0001H1080V47.9999ZM1088 47.9999H1089V49.0001H1088V47.9999ZM1096 47.9999H1097V49.0001H1096V47.9999ZM1104 47.9999H1105V49.0001H1104V47.9999ZM1112 47.9999H1113V49.0001H1112V47.9999ZM1120 47.9999H1121V49.0001H1120V47.9999ZM1128 47.9999H1129V49.0001H1128V47.9999ZM1136 47.9999H1137V49.0001H1136V47.9999ZM1144 47.9999H1145V49.0001H1144V47.9999ZM1152 47.9999H1153V49.0001H1152V47.9999ZM1160 47.9999H1161V49.0001H1160V47.9999ZM1168 47.9999H1169V49.0001H1168V47.9999ZM1176 47.9999H1177V49.0001H1176V47.9999ZM1184 47.9999H1185V49.0001H1184V47.9999ZM1192 47.9999H1193V49.0001H1192V47.9999ZM1200 47.9999H1201V49.0001H1200V47.9999ZM1208 47.9999H1209V49.0001H1208V47.9999ZM1216 47.9999H1217V49.0001H1216V47.9999ZM1224 47.9999H1225V49.0001H1224V47.9999ZM1232 47.9999H1233V49.0001H1232V47.9999ZM1240 47.9999H1241V49.0001H1240V47.9999ZM1248 47.9999H1249V49.0001H1248V47.9999ZM1256 47.9999H1257V49.0001H1256V47.9999ZM1264 47.9999H1265V49.0001H1264V47.9999ZM1272 47.9999H1273V49.0001H1272V47.9999ZM1280 47.9999H1281V49.0001H1280V47.9999ZM1288 47.9999H1289V49.0001H1288V47.9999ZM1296 47.9999H1297V49.0001H1296V47.9999ZM1304 47.9999H1305V49.0001H1304V47.9999ZM1312 47.9999H1313V49.0001H1312V47.9999ZM1320 47.9999H1321V49.0001H1320V47.9999ZM1328 47.9999H1329V49.0001H1328V47.9999ZM1336 47.9999H1337V49.0001H1336V47.9999ZM1344 47.9999H1345V49.0001H1344V47.9999ZM1352 47.9999H1353V49.0001H1352V47.9999ZM1360 47.9999H1361V49.0001H1360V47.9999ZM1368 47.9999H1369V49.0001H1368V47.9999ZM1376 47.9999H1377V49.0001H1376V47.9999ZM1384 47.9999H1385V49.0001H1384V47.9999ZM1392 47.9999H1393V49.0001H1392V47.9999ZM1400 47.9999H1401V49.0001H1400V47.9999ZM1408 47.9999H1409V49.0001H1408V47.9999ZM1416 47.9999H1417V49.0001H1416V47.9999ZM1424 47.9999H1425V49.0001H1424V47.9999ZM1432 47.9999H1433V49.0001H1432V47.9999ZM1440 47.9999H1441V49.0001H1440V47.9999ZM1448 47.9999H1449V49.0001H1448V47.9999ZM1456 47.9999H1457V49.0001H1456V47.9999ZM1464 47.9999H1465V49.0001H1464V47.9999ZM1472 47.9999H1473V49.0001H1472V47.9999ZM1480 47.9999H1481V49.0001H1480V47.9999ZM1488 47.9999H1489V49.0001H1488V47.9999ZM1496 47.9999H1497V49.0001H1496V47.9999ZM1504 47.9999H1505V49.0001H1504V47.9999ZM1512 47.9999H1513V49.0001H1512V47.9999ZM1520 47.9999H1521V49.0001H1520V47.9999ZM1528 47.9999H1529V49.0001H1528V47.9999ZM1536 47.9999H1537V49.0001H1536V47.9999ZM1544 47.9999H1545V49.0001H1544V47.9999ZM1552 47.9999H1553V49.0001H1552V47.9999ZM1560 47.9999H1561V49.0001H1560V47.9999ZM1568 47.9999H1569V49.0001H1568V47.9999ZM1576 47.9999H1577V49.0001H1576V47.9999ZM1584 47.9999H1585V49.0001H1584V47.9999ZM1592 47.9999H1593V49.0001H1592V47.9999ZM1600 47.9999H1601V49.0001H1600V47.9999ZM1608 47.9999H1609V49.0001H1608V47.9999ZM1616 47.9999H1617V49.0001H1616V47.9999ZM1624 47.9999H1625V49.0001H1624V47.9999ZM1632 47.9999H1633V49.0001H1632V47.9999ZM1640 47.9999H1641V49.0001H1640V47.9999ZM1648 47.9999H1649V49.0001H1648V47.9999ZM1656 47.9999H1657V49.0001H1656V47.9999ZM1664 47.9999H1665V49.0001H1664V47.9999ZM1672 47.9999H1673V49.0001H1672V47.9999ZM1680 47.9999H1681V49.0001H1680V47.9999ZM1688 47.9999H1689V49.0001H1688V47.9999ZM1696 47.9999H1697V49.0001H1696V47.9999ZM1704 47.9999H1705V49.0001H1704V47.9999ZM1712 47.9999H1713V49.0001H1712V47.9999ZM1720 47.9999H1721V49.0001H1720V47.9999ZM1728 47.9999H1729V49.0001H1728V47.9999ZM1736 47.9999H1737V49.0001H1736V47.9999ZM1744 47.9999H1745V49.0001H1744V47.9999ZM1752 47.9999H1753V49.0001H1752V47.9999ZM1760 47.9999H1761V49.0001H1760V47.9999ZM1768 47.9999H1769V49.0001H1768V47.9999ZM1776 47.9999H1777V49.0001H1776V47.9999ZM1784 47.9999H1785V49.0001H1784V47.9999ZM1792 47.9999H1793V49.0001H1792V47.9999ZM1800 47.9999H1801V49.0001H1800V47.9999ZM1808 47.9999H1809V49.0001H1808V47.9999ZM1816 47.9999H1817V49.0001H1816V47.9999ZM1824 47.9999H1825V49.0001H1824V47.9999ZM1832 47.9999H1833V49.0001H1832V47.9999ZM1840 47.9999H1841V49.0001H1840V47.9999ZM1848 47.9999H1849V49.0001H1848V47.9999ZM1856 47.9999H1857V49.0001H1856V47.9999ZM1864 47.9999H1865V49.0001H1864V47.9999ZM1872 47.9999H1873V49.0001H1872V47.9999ZM1880 47.9999H1881V49.0001H1880V47.9999ZM1888 47.9999H1889V49.0001H1888V47.9999ZM1896 47.9999H1897V49.0001H1896V47.9999ZM1904 47.9999H1905V49.0001H1904V47.9999ZM0 55.9998H1.00025V57.0001H0V55.9998ZM7.99998 55.9998H9.00022V57.0001H7.99998V55.9998ZM16 55.9998H17.0002V57.0001H16V55.9998ZM23.9999 55.9998H25.0002V57.0001H23.9999V55.9998ZM31.9999 55.9998H33.0002V57.0001H31.9999V55.9998ZM39.9999 55.9998H41.0001V57.0001H39.9999V55.9998ZM47.9999 55.9998H49.0001V57.0001H47.9999V55.9998ZM55.9998 55.9998H57.0001V57.0001H55.9998V55.9998ZM63.9998 55.9998H65.0001V57.0001H63.9998V55.9998ZM71.9998 55.9998H73V57.0001H71.9998V55.9998ZM79.9998 55.9998H81V57.0001H79.9998V55.9998ZM87.9998 55.9998H89V57.0001H87.9998V55.9998ZM95.9997 55.9998H97V57.0001H95.9997V55.9998ZM104 55.9998H105V57.0001H104V55.9998ZM112 55.9998H113V57.0001H112V55.9998ZM120 55.9998H121V57.0001H120V55.9998ZM128 55.9998H129V57.0001H128V55.9998ZM136 55.9998H137V57.0001H136V55.9998ZM144 55.9998H145V57.0001H144V55.9998ZM152 55.9998H153V57.0001H152V55.9998ZM160 55.9998H161V57.0001H160V55.9998ZM168 55.9998H169V57.0001H168V55.9998ZM176 55.9998H177V57.0001H176V55.9998ZM184 55.9998H185V57.0001H184V55.9998ZM192 55.9998H193V57.0001H192V55.9998ZM200 55.9998H201V57.0001H200V55.9998ZM208 55.9998H209V57.0001H208V55.9998ZM216 55.9998H217V57.0001H216V55.9998ZM224 55.9998H225V57.0001H224V55.9998ZM232 55.9998H233V57.0001H232V55.9998ZM240 55.9998H241V57.0001H240V55.9998ZM248 55.9998H249.001V57.0001H248V55.9998ZM256 55.9998H257.001V57.0001H256V55.9998ZM264 55.9998H265.001V57.0001H264V55.9998ZM272 55.9998H273V57.0001H272V55.9998ZM280 55.9998H281V57.0001H280V55.9998ZM288 55.9998H289V57.0001H288V55.9998ZM296 55.9998H297V57.0001H296V55.9998ZM304 55.9998H305V57.0001H304V55.9998ZM312 55.9998H313V57.0001H312V55.9998ZM320 55.9998H321V57.0001H320V55.9998ZM328 55.9998H329V57.0001H328V55.9998ZM336 55.9998H337V57.0001H336V55.9998ZM344 55.9998H345V57.0001H344V55.9998ZM352 55.9998H353V57.0001H352V55.9998ZM360 55.9998H361V57.0001H360V55.9998ZM368 55.9998H369V57.0001H368V55.9998ZM376 55.9998H377V57.0001H376V55.9998ZM384 55.9998H385V57.0001H384V55.9998ZM392 55.9998H393V57.0001H392V55.9998ZM400 55.9998H401V57.0001H400V55.9998ZM408 55.9998H409V57.0001H408V55.9998ZM416 55.9998H417V57.0001H416V55.9998ZM424 55.9998H425V57.0001H424V55.9998ZM432 55.9998H433V57.0001H432V55.9998ZM440 55.9998H441V57.0001H440V55.9998ZM448 55.9998H449V57.0001H448V55.9998ZM456 55.9998H457V57.0001H456V55.9998ZM464 55.9998H465V57.0001H464V55.9998ZM472 55.9998H473V57.0001H472V55.9998ZM480 55.9998H481V57.0001H480V55.9998ZM488 55.9998H489V57.0001H488V55.9998ZM496 55.9998H497V57.0001H496V55.9998ZM504 55.9998H505V57.0001H504V55.9998ZM512 55.9998H513V57.0001H512V55.9998ZM520 55.9998H521V57.0001H520V55.9998ZM528 55.9998H529V57.0001H528V55.9998ZM536 55.9998H537V57.0001H536V55.9998ZM544 55.9998H545V57.0001H544V55.9998ZM552 55.9998H553V57.0001H552V55.9998ZM560 55.9998H561V57.0001H560V55.9998ZM568 55.9998H569V57.0001H568V55.9998ZM576 55.9998H577V57.0001H576V55.9998ZM584 55.9998H585V57.0001H584V55.9998ZM592 55.9998H593V57.0001H592V55.9998ZM600 55.9998H601V57.0001H600V55.9998ZM608 55.9998H609V57.0001H608V55.9998ZM616 55.9998H617V57.0001H616V55.9998ZM624 55.9998H625.001V57.0001H624V55.9998ZM632 55.9998H633V57.0001H632V55.9998ZM640 55.9998H641V57.0001H640V55.9998ZM648 55.9998H649V57.0001H648V55.9998ZM656 55.9998H657V57.0001H656V55.9998ZM664 55.9998H665V57.0001H664V55.9998ZM672 55.9998H673V57.0001H672V55.9998ZM680 55.9998H681V57.0001H680V55.9998ZM688 55.9998H689V57.0001H688V55.9998ZM696 55.9998H697V57.0001H696V55.9998ZM704 55.9998H705V57.0001H704V55.9998ZM712 55.9998H713V57.0001H712V55.9998ZM720 55.9998H721V57.0001H720V55.9998ZM728 55.9998H729V57.0001H728V55.9998ZM736 55.9998H737V57.0001H736V55.9998ZM744 55.9998H745V57.0001H744V55.9998ZM752 55.9998H753V57.0001H752V55.9998ZM760 55.9998H761V57.0001H760V55.9998ZM768 55.9998H769V57.0001H768V55.9998ZM776 55.9998H777V57.0001H776V55.9998ZM784 55.9998H785V57.0001H784V55.9998ZM792 55.9998H793V57.0001H792V55.9998ZM800 55.9998H801V57.0001H800V55.9998ZM808 55.9998H809V57.0001H808V55.9998ZM816 55.9998H817V57.0001H816V55.9998ZM824 55.9998H825V57.0001H824V55.9998ZM832 55.9998H833V57.0001H832V55.9998ZM840 55.9998H841V57.0001H840V55.9998ZM848 55.9998H849V57.0001H848V55.9998ZM856 55.9998H857V57.0001H856V55.9998ZM864 55.9998H865V57.0001H864V55.9998ZM872 55.9998H873V57.0001H872V55.9998ZM880 55.9998H881V57.0001H880V55.9998ZM888 55.9998H889V57.0001H888V55.9998ZM896 55.9998H897V57.0001H896V55.9998ZM904 55.9998H905V57.0001H904V55.9998ZM912 55.9998H913V57.0001H912V55.9998ZM920 55.9998H921V57.0001H920V55.9998ZM928 55.9998H929V57.0001H928V55.9998ZM936 55.9998H937V57.0001H936V55.9998ZM944 55.9998H945V57.0001H944V55.9998ZM952 55.9998H953V57.0001H952V55.9998ZM960 55.9998H961V57.0001H960V55.9998ZM968 55.9998H969V57.0001H968V55.9998ZM976 55.9998H977V57.0001H976V55.9998ZM984 55.9998H985.001V57.0001H984V55.9998ZM992 55.9998H993.001V57.0001H992V55.9998ZM1000 55.9998H1001V57.0001H1000V55.9998ZM1008 55.9998H1009V57.0001H1008V55.9998ZM1016 55.9998H1017V57.0001H1016V55.9998ZM1024 55.9998H1025V57.0001H1024V55.9998ZM1032 55.9998H1033V57.0001H1032V55.9998ZM1040 55.9998H1041V57.0001H1040V55.9998ZM1048 55.9998H1049V57.0001H1048V55.9998ZM1056 55.9998H1057V57.0001H1056V55.9998ZM1064 55.9998H1065V57.0001H1064V55.9998ZM1072 55.9998H1073V57.0001H1072V55.9998ZM1080 55.9998H1081V57.0001H1080V55.9998ZM1088 55.9998H1089V57.0001H1088V55.9998ZM1096 55.9998H1097V57.0001H1096V55.9998ZM1104 55.9998H1105V57.0001H1104V55.9998ZM1112 55.9998H1113V57.0001H1112V55.9998ZM1120 55.9998H1121V57.0001H1120V55.9998ZM1128 55.9998H1129V57.0001H1128V55.9998ZM1136 55.9998H1137V57.0001H1136V55.9998ZM1144 55.9998H1145V57.0001H1144V55.9998ZM1152 55.9998H1153V57.0001H1152V55.9998ZM1160 55.9998H1161V57.0001H1160V55.9998ZM1168 55.9998H1169V57.0001H1168V55.9998ZM1176 55.9998H1177V57.0001H1176V55.9998ZM1184 55.9998H1185V57.0001H1184V55.9998ZM1192 55.9998H1193V57.0001H1192V55.9998ZM1200 55.9998H1201V57.0001H1200V55.9998ZM1208 55.9998H1209V57.0001H1208V55.9998ZM1216 55.9998H1217V57.0001H1216V55.9998ZM1224 55.9998H1225V57.0001H1224V55.9998ZM1232 55.9998H1233V57.0001H1232V55.9998ZM1240 55.9998H1241V57.0001H1240V55.9998ZM1248 55.9998H1249V57.0001H1248V55.9998ZM1256 55.9998H1257V57.0001H1256V55.9998ZM1264 55.9998H1265V57.0001H1264V55.9998ZM1272 55.9998H1273V57.0001H1272V55.9998ZM1280 55.9998H1281V57.0001H1280V55.9998ZM1288 55.9998H1289V57.0001H1288V55.9998ZM1296 55.9998H1297V57.0001H1296V55.9998ZM1304 55.9998H1305V57.0001H1304V55.9998ZM1312 55.9998H1313V57.0001H1312V55.9998ZM1320 55.9998H1321V57.0001H1320V55.9998ZM1328 55.9998H1329V57.0001H1328V55.9998ZM1336 55.9998H1337V57.0001H1336V55.9998ZM1344 55.9998H1345V57.0001H1344V55.9998ZM1352 55.9998H1353V57.0001H1352V55.9998ZM1360 55.9998H1361V57.0001H1360V55.9998ZM1368 55.9998H1369V57.0001H1368V55.9998ZM1376 55.9998H1377V57.0001H1376V55.9998ZM1384 55.9998H1385V57.0001H1384V55.9998ZM1392 55.9998H1393V57.0001H1392V55.9998ZM1400 55.9998H1401V57.0001H1400V55.9998ZM1408 55.9998H1409V57.0001H1408V55.9998ZM1416 55.9998H1417V57.0001H1416V55.9998ZM1424 55.9998H1425V57.0001H1424V55.9998ZM1432 55.9998H1433V57.0001H1432V55.9998ZM1440 55.9998H1441V57.0001H1440V55.9998ZM1448 55.9998H1449V57.0001H1448V55.9998ZM1456 55.9998H1457V57.0001H1456V55.9998ZM1464 55.9998H1465V57.0001H1464V55.9998ZM1472 55.9998H1473V57.0001H1472V55.9998ZM1480 55.9998H1481V57.0001H1480V55.9998ZM1488 55.9998H1489V57.0001H1488V55.9998ZM1496 55.9998H1497V57.0001H1496V55.9998ZM1504 55.9998H1505V57.0001H1504V55.9998ZM1512 55.9998H1513V57.0001H1512V55.9998ZM1520 55.9998H1521V57.0001H1520V55.9998ZM1528 55.9998H1529V57.0001H1528V55.9998ZM1536 55.9998H1537V57.0001H1536V55.9998ZM1544 55.9998H1545V57.0001H1544V55.9998ZM1552 55.9998H1553V57.0001H1552V55.9998ZM1560 55.9998H1561V57.0001H1560V55.9998ZM1568 55.9998H1569V57.0001H1568V55.9998ZM1576 55.9998H1577V57.0001H1576V55.9998ZM1584 55.9998H1585V57.0001H1584V55.9998ZM1592 55.9998H1593V57.0001H1592V55.9998ZM1600 55.9998H1601V57.0001H1600V55.9998ZM1608 55.9998H1609V57.0001H1608V55.9998ZM1616 55.9998H1617V57.0001H1616V55.9998ZM1624 55.9998H1625V57.0001H1624V55.9998ZM1632 55.9998H1633V57.0001H1632V55.9998ZM1640 55.9998H1641V57.0001H1640V55.9998ZM1648 55.9998H1649V57.0001H1648V55.9998ZM1656 55.9998H1657V57.0001H1656V55.9998ZM1664 55.9998H1665V57.0001H1664V55.9998ZM1672 55.9998H1673V57.0001H1672V55.9998ZM1680 55.9998H1681V57.0001H1680V55.9998ZM1688 55.9998H1689V57.0001H1688V55.9998ZM1696 55.9998H1697V57.0001H1696V55.9998ZM1704 55.9998H1705V57.0001H1704V55.9998ZM1712 55.9998H1713V57.0001H1712V55.9998ZM1720 55.9998H1721V57.0001H1720V55.9998ZM1728 55.9998H1729V57.0001H1728V55.9998ZM1736 55.9998H1737V57.0001H1736V55.9998ZM1744 55.9998H1745V57.0001H1744V55.9998ZM1752 55.9998H1753V57.0001H1752V55.9998ZM1760 55.9998H1761V57.0001H1760V55.9998ZM1768 55.9998H1769V57.0001H1768V55.9998ZM1776 55.9998H1777V57.0001H1776V55.9998ZM1784 55.9998H1785V57.0001H1784V55.9998ZM1792 55.9998H1793V57.0001H1792V55.9998ZM1800 55.9998H1801V57.0001H1800V55.9998ZM1808 55.9998H1809V57.0001H1808V55.9998ZM1816 55.9998H1817V57.0001H1816V55.9998ZM1824 55.9998H1825V57.0001H1824V55.9998ZM1832 55.9998H1833V57.0001H1832V55.9998ZM1840 55.9998H1841V57.0001H1840V55.9998ZM1848 55.9998H1849V57.0001H1848V55.9998ZM1856 55.9998H1857V57.0001H1856V55.9998ZM1864 55.9998H1865V57.0001H1864V55.9998ZM1872 55.9998H1873V57.0001H1872V55.9998ZM1880 55.9998H1881V57.0001H1880V55.9998ZM1888 55.9998H1889V57.0001H1888V55.9998ZM1896 55.9998H1897V57.0001H1896V55.9998ZM1904 55.9998H1905V57.0001H1904V55.9998Z" fill="#29735F"/>
</svg>
