<svg width="94" height="80" viewBox="0 0 94 80" fill="none" xmlns="http://www.w3.org/2000/svg">
<path fill-rule="evenodd" clip-rule="evenodd" d="M8.78236 2.79588C5.47546 8.85054 2.37483 17.1416 0.866198 23.9625C0.0957892 27.4469 -0.0174307 28.9976 0.00195549 35.7883C0.0232803 43.1258 0.0884194 43.8214 1.06975 47.1566C4.9183 60.2375 15.5354 70.6622 31.1998 76.7414C37.0048 78.9945 42.823 80.5373 42.823 79.8243C42.823 79.7178 41.3691 77.4398 39.5921 74.7619C28.521 58.0783 21.0011 39.7281 19.3994 25.4858L19.1598 23.3543L20.8472 27.4405C23.9633 34.9847 27.0306 41.6799 31.1828 49.9986C32.9314 53.5015 39.565 65.6144 40.7475 67.4631C41.7424 69.0184 42.6819 69.5666 42.2585 68.3442C41.6215 66.5047 40.8503 62.3638 40.48 58.7934C39.4816 49.1642 42.5749 39.0528 48.7002 31.9228C49.5194 30.9693 50.1898 29.8189 50.1898 29.3663C50.1898 28.1226 45.1343 21.453 41.5932 18.0254C35.2799 11.9143 28.4214 7.37657 19.0101 3.08435C15.794 1.61713 12.5204 0.323287 11.7357 0.208538L10.3092 0L8.78236 2.79588ZM84.6329 15.1859C69.9591 18.9051 57.2627 26.0308 50.6644 34.2508C42.756 44.1024 41.3229 57.6882 46.7169 71.6694C48.243 75.6255 49.3287 77.6164 49.8692 77.4516C50.0964 77.3819 51.0184 75.3332 51.9179 72.8986C54.1853 66.7626 56.0859 62.4458 58.7162 57.4591C62.9801 49.3741 70.0541 39.5441 74.9375 34.9172L77.0176 32.9463L76.058 34.5449C75.5299 35.4242 74.2175 37.6016 73.1412 39.3832C66.5367 50.3173 54.941 74.2432 54.1698 78.5273C53.9651 79.6662 53.9918 79.6943 55.079 79.4733C67.4245 76.9624 80.3082 69.3787 86.549 60.9491C94.2896 50.4935 96.0568 36.0985 91.5802 19.9726C90.4205 15.7962 89.7617 14.4931 88.7649 14.4036C88.3403 14.3656 86.4808 14.7176 84.6329 15.1859Z" fill="#7681B0"/>
</svg>
