<svg width="32" height="32" viewBox="0 0 32 32" fill="none" xmlns="http://www.w3.org/2000/svg">
<path d="M25.5 10.5C25.4717 10.1045 25.4786 9.43262 25.036 9.43262H21.5415V8.25977C21.5415 5.91113 19.0551 4 15.9996 4C12.9441 4 10.4577 5.91113 10.4577 8.25977V9.43262H7C6.55743 9.43262 6.52834 10.1045 6.5 10.5L5.19043 27.2058C5.19043 27.5924 5.77707 28 5.77707 28H26.1619C26.393 28 26.6143 27.9141 26.7724 27.7637C26.9304 27.6123 27.0122 27.4102 26.998 27.2031L25.5 10.5ZM12.132 8.25977C12.132 6.73828 13.8674 5.5 15.9996 5.5C18.1318 5.5 19.8672 6.73828 19.8672 8.25977V9.43262H12.132V8.25977ZM10.4577 10.9326V12.5615C10.4577 12.9756 10.8326 13.3115 11.2948 13.3115C11.757 13.3115 12.132 12.9756 12.132 12.5615V10.9326H19.8672V12.5615C19.8672 12.9756 20.2421 13.3115 20.7043 13.3115C21.1665 13.3115 21.5415 12.9756 21.5415 12.5615V10.9326H24L25.036 22.333H15.9996L7 22.5L8 10.9326H10.4577ZM6.72783 26.5L7 22.5L15.9996 22.333H25.036L25.2713 26.5H6.72783Z" fill="white"/>
</svg>
