<svg width="24" height="24" viewBox="0 0 24 24" fill="none" xmlns="http://www.w3.org/2000/svg">
<g clip-path="url(#clip0_2_10)">
<path d="M9.22871 18.4615C7.40345 18.4615 5.61917 17.9202 4.10152 16.9059C2.58386 15.8916 1.401 14.4499 0.702498 12.7632C0.00399894 11.0765 -0.178761 9.22053 0.177331 7.42993C0.533423 5.63934 1.41237 3.99458 2.70303 2.70363C3.99369 1.41269 5.63809 0.533542 7.42828 0.177371C9.21848 -0.1788 11.0741 0.00399929 12.7604 0.702654C14.4467 1.40131 15.888 2.58444 16.9021 4.10243C17.9162 5.62042 18.4574 7.40509 18.4574 9.23077C18.4574 10.443 18.2187 11.6433 17.7549 12.7632C17.2911 13.8832 16.6114 14.9007 15.7544 15.7579C14.8974 16.6151 13.8801 17.295 12.7604 17.7589C11.6407 18.2228 10.4406 18.4615 9.22871 18.4615ZM9.22871 1.84616C7.7685 1.84616 6.34108 2.27926 5.12696 3.09069C3.91283 3.90212 2.96654 5.05544 2.40774 6.4048C1.84894 7.75416 1.70273 9.23896 1.98761 10.6714C2.27248 12.1039 2.97564 13.4197 4.00817 14.4525C5.04069 15.4852 6.35621 16.1885 7.78837 16.4735C9.22052 16.7584 10.705 16.6122 12.0541 16.0533C13.4031 15.4943 14.5562 14.5478 15.3674 13.3334C16.1787 12.119 16.6117 10.6913 16.6117 9.23077C16.6117 7.27225 15.8338 5.39394 14.4493 4.00906C13.0647 2.62418 11.1868 1.84616 9.22871 1.84616Z" fill="white"/>
<path d="M23.0713 24.0002C22.9499 24.0009 22.8295 23.9776 22.717 23.9316C22.6046 23.8857 22.5023 23.818 22.4161 23.7325L15.0331 16.3479C14.9471 16.2618 14.8788 16.1596 14.8323 16.0472C14.7857 15.9347 14.7617 15.8142 14.7617 15.6925C14.7617 15.5708 14.7857 15.4502 14.8323 15.3378C14.8788 15.2253 14.9471 15.1232 15.0331 15.0371C15.1192 14.951 15.2213 14.8828 15.3338 14.8362C15.4462 14.7896 15.5667 14.7656 15.6884 14.7656C15.8101 14.7656 15.9306 14.7896 16.043 14.8362C16.1554 14.8828 16.2576 14.951 16.3436 15.0371L23.7266 22.4217C23.8131 22.5075 23.8817 22.6096 23.9286 22.7221C23.9754 22.8346 23.9996 22.9552 23.9996 23.0771C23.9996 23.1989 23.9754 23.3196 23.9286 23.4321C23.8817 23.5446 23.8131 23.6467 23.7266 23.7325C23.6403 23.818 23.5381 23.8857 23.4256 23.9316C23.3132 23.9776 23.1928 24.0009 23.0713 24.0002Z" fill="white"/>
</g>
<defs>
<clipPath id="clip0_2_10">
<rect width="24" height="24" fill="white"/>
</clipPath>
</defs>
</svg>
