<svg width="34" height="34" viewBox="0 0 34 34" fill="none" xmlns="http://www.w3.org/2000/svg">
<path d="M19.6087 22.1262C19.6087 22.1262 21.6332 20.9671 22.1632 20.6886C22.6917 20.4091 23.2392 20.3386 23.5717 20.5416C24.0752 20.8496 28.3032 23.6622 28.6592 23.9112C29.0152 24.1607 29.1867 24.8732 28.6972 25.5712C28.2097 26.2692 25.9607 29.0293 25.0077 28.9998C24.0532 28.9688 20.0847 28.8818 12.6012 21.3961C5.11925 13.913 5.03075 9.94346 5.00025 8.98894C4.96975 8.03493 7.72974 5.78539 8.42774 5.29739C9.12674 4.80988 9.84024 4.99338 10.0882 5.33639C10.3702 5.72689 13.1502 9.94146 13.4562 10.4245C13.6657 10.7545 13.5887 11.305 13.3092 11.834C13.0312 12.364 11.8722 14.3885 11.8722 14.3885C11.8722 14.3885 12.6892 15.7821 15.4522 18.5446C18.2157 21.3076 19.6087 22.1262 19.6087 22.1262Z" stroke="white" stroke-width="2" stroke-miterlimit="10"/>
</svg>
