<svg width="46" height="46" viewBox="0 0 46 46" fill="none" xmlns="http://www.w3.org/2000/svg">
<path d="M23 43C34.0457 43 43 34.0457 43 23C43 11.9543 34.0457 3 23 3C11.9543 3 3 11.9543 3 23C3 34.0457 11.9543 43 23 43Z" fill="black"/>
<path d="M23.0009 0C10.2979 0 0 10.2998 0 23.0009C0 35.704 10.2979 46 23.0009 46C35.704 46 46 35.704 46 23.0009C46 10.2998 35.7031 0 23.0009 0ZM34.5869 18.3634C34.599 18.6118 34.6037 18.8612 34.6037 19.1134C34.6037 26.7736 28.7733 35.605 18.1121 35.605C14.8392 35.605 11.7914 34.6457 9.22653 33.0018C9.68047 33.055 10.141 33.0821 10.6089 33.0821C13.3251 33.0821 15.8246 32.1555 17.8076 30.6013C15.2717 30.5536 13.1318 28.877 12.3939 26.5746C12.747 26.6437 13.1103 26.6783 13.4839 26.6783C14.0126 26.6783 14.5244 26.6092 15.0111 26.4756C12.3584 25.9432 10.3605 23.5987 10.3605 20.7928C10.3605 20.7676 10.3605 20.7433 10.3614 20.7181C11.1423 21.1525 12.0361 21.4131 12.987 21.4439C11.4309 20.4024 10.4081 18.6305 10.4081 16.6186C10.4081 15.5566 10.6939 14.5599 11.1927 13.7044C14.0518 17.2108 18.3232 19.5188 23.141 19.7598C23.042 19.3367 22.9907 18.893 22.9907 18.439C22.9907 15.239 25.5854 12.6433 28.7874 12.6433C30.4546 12.6433 31.9603 13.3475 33.0177 14.4731C34.3384 14.2143 35.5788 13.7305 36.6987 13.0664C36.2644 14.4208 35.3462 15.5566 34.1488 16.273C35.3229 16.1329 36.44 15.8209 37.4787 15.3604C36.7034 16.5252 35.7199 17.5461 34.5869 18.3634Z" fill="white"/>
</svg>
