<svg width="32" height="32" viewBox="0 0 32 32" fill="none" xmlns="http://www.w3.org/2000/svg">
<path d="M28 16C28 9.3833 22.6172 4 16 4C9.38281 4 4 9.3833 4 16C4 19.3836 5.41321 22.4387 7.67365 24.6223C7.72656 24.6912 7.78925 24.747 7.86261 24.7941C10.0038 26.7769 12.8583 28 16 28C19.1417 28 21.9962 26.7769 24.1374 24.7941C24.2108 24.747 24.2734 24.6912 24.3264 24.6223C26.5868 22.4387 28 19.3836 28 16ZM16 5.5C21.79 5.5 26.5 10.2104 26.5 16C26.5 18.455 25.6467 20.7108 24.2297 22.5009C23.5792 20.403 21.7221 18.7607 19.2016 18.0051C20.5752 17.011 21.4736 15.4005 21.4736 13.5806C21.4736 10.5664 19.0186 8.11426 16 8.11426C12.9814 8.11426 10.5264 10.5664 10.5264 13.5806C10.5264 15.4005 11.4248 17.011 12.7984 18.0051C10.2779 18.7607 8.42078 20.403 7.77026 22.5009C6.35327 20.7108 5.5 18.455 5.5 16C5.5 10.2104 10.21 5.5 16 5.5ZM12.0264 13.5806C12.0264 11.3936 13.8086 9.61426 16 9.61426C18.1914 9.61426 19.9736 11.3936 19.9736 13.5806C19.9736 15.7676 18.1914 17.5469 16 17.5469C13.8086 17.5469 12.0264 15.7676 12.0264 13.5806ZM9.03076 23.832C9.25623 21.082 12.1724 19.0469 16 19.0469C19.8276 19.0469 22.7438 21.082 22.9692 23.832C21.1131 25.4855 18.6757 26.5 16 26.5C13.3243 26.5 10.8869 25.4855 9.03076 23.832Z" fill="white"/>
</svg>
